<svg width="40" height="30" viewBox="0 0 40 30" fill="none" xmlns="http://www.w3.org/2000/svg">
<g clip-path="url(#clip0_1809_1895)">
<mask id="mask0_1809_1895" style="mask-type:luminance" maskUnits="userSpaceOnUse" x="0" y="0" width="40" height="30">
<path d="M39.531 0H0.803711V30H39.531V0Z" fill="white"/>
</mask>
<g mask="url(#mask0_1809_1895)">
<path d="M33.588 2.67155C31.1196 1.53897 28.4727 0.704531 25.7052 0.226614C25.6548 0.217391 25.6044 0.240441 25.5785 0.286543C25.2381 0.892003 24.861 1.68188 24.5969 2.30271C21.6203 1.85708 18.6589 1.85708 15.7433 2.30271C15.4792 1.66808 15.0884 0.892003 14.7465 0.286543C14.7205 0.241979 14.6701 0.218929 14.6197 0.226614C11.8537 0.703003 9.20682 1.53744 6.73695 2.67155C6.71557 2.68077 6.69724 2.69615 6.68507 2.71611C1.66441 10.2169 0.289041 17.5333 0.963752 24.759C0.966805 24.7943 0.986649 24.8281 1.01413 24.8496C4.32662 27.2822 7.53533 28.7591 10.6845 29.7379C10.7349 29.7533 10.7883 29.7349 10.8203 29.6934C11.5653 28.6761 12.2293 27.6035 12.7986 26.4755C12.8322 26.4094 12.8002 26.331 12.7315 26.3049C11.6782 25.9054 10.6753 25.4182 9.71055 24.865C9.63424 24.8204 9.62813 24.7113 9.69833 24.659C9.90135 24.5069 10.1044 24.3486 10.2983 24.1888C10.3333 24.1596 10.3822 24.1535 10.4235 24.1719C16.7614 27.0656 23.623 27.0656 29.8862 24.1719C29.9274 24.1519 29.9763 24.1581 30.0129 24.1873C30.2068 24.3471 30.4098 24.5069 30.6144 24.659C30.6846 24.7113 30.68 24.8204 30.6037 24.865C29.6389 25.429 28.636 25.9054 27.5812 26.3034C27.5125 26.3295 27.482 26.4094 27.5156 26.4755C28.0972 27.6019 28.7612 28.6745 29.4924 29.6918C29.5229 29.7349 29.5779 29.7533 29.6283 29.7379C32.7927 28.7591 36.0013 27.2822 39.3138 24.8496C39.3429 24.8281 39.3612 24.7958 39.3642 24.7605C40.1717 16.4068 38.0117 9.1504 33.6383 2.71764C33.6276 2.69615 33.6094 2.68077 33.588 2.67155ZM13.7451 20.3593C11.8369 20.3593 10.2647 18.6074 10.2647 16.456C10.2647 14.3046 11.8065 12.5527 13.7451 12.5527C15.699 12.5527 17.256 14.3199 17.2255 16.456C17.2255 18.6074 15.6837 20.3593 13.7451 20.3593ZM26.6134 20.3593C24.7053 20.3593 23.133 18.6074 23.133 16.456C23.133 14.3046 24.6748 12.5527 26.6134 12.5527C28.5673 12.5527 30.1243 14.3199 30.0939 16.456C30.0939 18.6074 28.5673 20.3593 26.6134 20.3593Z" fill="#525252"/>
</g>
</g>
<defs>
<clipPath id="clip0_1809_1895">
<rect width="38.7273" height="30" fill="white" transform="translate(0.803711)"/>
</clipPath>
</defs>
</svg>
