<svg width="31" height="30" viewBox="0 0 31 30" fill="none" xmlns="http://www.w3.org/2000/svg">
<g clip-path="url(#clip0_1809_1901)">
<path d="M30.5312 15.0006C30.5312 6.71631 23.8155 0.000583649 15.5312 0.000583649C7.24697 0.000583649 0.53125 6.71631 0.53125 15.0006C0.53125 22.4875 6.01653 28.6931 13.1875 29.8184V19.3365H9.37891V15.0006H13.1875V11.6959C13.1875 7.93652 15.4269 5.85996 18.8532 5.85996C20.4943 5.85996 22.2109 6.15293 22.2109 6.15293V9.84433H20.3195C18.4561 9.84433 17.875 11.0006 17.875 12.1868V15.0006H22.0352L21.3701 19.3365H17.875V29.8184C25.046 28.6931 30.5312 22.4875 30.5312 15.0006Z" fill="#525252"/>
</g>
<defs>
<clipPath id="clip0_1809_1901">
<rect width="30" height="30" fill="white" transform="translate(0.53125)"/>
</clipPath>
</defs>
</svg>
