<svg width="25" height="25" viewBox="0 0 25 25" fill="none" xmlns="http://www.w3.org/2000/svg">
<g clip-path="url(#clip0_2877_3978)">
<path d="M12.3945 0.015625C7.38466 0.015625 5.91945 0.0207953 5.63464 0.0444249C4.60653 0.129909 3.96678 0.291833 3.26979 0.63893C2.73267 0.905731 2.30905 1.21498 1.89098 1.6485C1.12958 2.43909 0.668132 3.41172 0.501083 4.56789C0.419872 5.12916 0.396242 5.24363 0.391443 8.11059C0.389602 9.06624 0.391443 10.3239 0.391443 12.0109C0.391443 17.0181 0.396977 18.4822 0.420978 18.7666C0.50404 19.7673 0.66093 20.3969 0.993177 21.0855C1.62814 22.4038 2.84082 23.3934 4.26948 23.7627C4.76416 23.8901 5.31052 23.9602 6.01193 23.9935C6.30911 24.0064 9.33807 24.0156 12.3689 24.0156C15.3997 24.0156 18.4305 24.0119 18.7203 23.9972C19.5325 23.9589 20.0041 23.8956 20.5255 23.7608C21.9634 23.3897 23.1539 22.4149 23.8018 21.0781C24.1276 20.4061 24.2928 19.7525 24.3676 18.804C24.3838 18.5973 24.3906 15.3003 24.3906 12.0078C24.3906 8.7147 24.3832 5.42383 24.367 5.21704C24.2913 4.25327 24.1261 3.60522 23.7898 2.92023C23.5139 2.35951 23.2075 1.94076 22.7626 1.51262C21.9688 0.754148 20.9979 0.292568 19.8409 0.125664C19.2803 0.0446065 19.1687 0.0206049 16.3003 0.015625H12.3945Z" fill="url(#paint0_radial_2877_3978)"/>
<path d="M12.3945 0.015625C7.38466 0.015625 5.91945 0.0207953 5.63464 0.0444249C4.60653 0.129909 3.96678 0.291833 3.26979 0.63893C2.73267 0.905731 2.30905 1.21498 1.89098 1.6485C1.12958 2.43909 0.668132 3.41172 0.501083 4.56789C0.419872 5.12916 0.396242 5.24363 0.391443 8.11059C0.389602 9.06624 0.391443 10.3239 0.391443 12.0109C0.391443 17.0181 0.396977 18.4822 0.420978 18.7666C0.50404 19.7673 0.66093 20.3969 0.993177 21.0855C1.62814 22.4038 2.84082 23.3934 4.26948 23.7627C4.76416 23.8901 5.31052 23.9602 6.01193 23.9935C6.30911 24.0064 9.33807 24.0156 12.3689 24.0156C15.3997 24.0156 18.4305 24.0119 18.7203 23.9972C19.5325 23.9589 20.0041 23.8956 20.5255 23.7608C21.9634 23.3897 23.1539 22.4149 23.8018 21.0781C24.1276 20.4061 24.2928 19.7525 24.3676 18.804C24.3838 18.5973 24.3906 15.3003 24.3906 12.0078C24.3906 8.7147 24.3832 5.42383 24.367 5.21704C24.2913 4.25327 24.1261 3.60522 23.7898 2.92023C23.5139 2.35951 23.2075 1.94076 22.7626 1.51262C21.9688 0.754148 20.9979 0.292568 19.8409 0.125664C19.2803 0.0446065 19.1687 0.0206049 16.3003 0.015625H12.3945Z" fill="url(#paint1_radial_2877_3978)"/>
<path d="M12.3945 0.015625C7.38466 0.015625 5.91945 0.0207953 5.63464 0.0444249C4.60653 0.129909 3.96678 0.291833 3.26979 0.63893C2.73267 0.905731 2.30905 1.21498 1.89098 1.6485C1.12958 2.43909 0.668132 3.41172 0.501083 4.56789C0.419872 5.12916 0.396242 5.24363 0.391443 8.11059C0.389602 9.06624 0.391443 10.3239 0.391443 12.0109C0.391443 17.0181 0.396977 18.4822 0.420978 18.7666C0.50404 19.7673 0.66093 20.3969 0.993177 21.0855C1.62814 22.4038 2.84082 23.3934 4.26948 23.7627C4.76416 23.8901 5.31052 23.9602 6.01193 23.9935C6.30911 24.0064 9.33807 24.0156 12.3689 24.0156C15.3997 24.0156 18.4305 24.0119 18.7203 23.9972C19.5325 23.9589 20.0041 23.8956 20.5255 23.7608C21.9634 23.3897 23.1539 22.4149 23.8018 21.0781C24.1276 20.4061 24.2928 19.7525 24.3676 18.804C24.3838 18.5973 24.3906 15.3003 24.3906 12.0078C24.3906 8.7147 24.3832 5.42383 24.367 5.21704C24.2913 4.25327 24.1261 3.60522 23.7898 2.92023C23.5139 2.35951 23.2075 1.94076 22.7626 1.51262C21.9688 0.754148 20.9979 0.292568 19.8409 0.125664C19.2803 0.0446065 19.1687 0.0206049 16.3003 0.015625H12.3945Z" fill="url(#paint2_radial_2877_3978)"/>
<path d="M12.3945 0.015625C7.38466 0.015625 5.91945 0.0207953 5.63464 0.0444249C4.60653 0.129909 3.96678 0.291833 3.26979 0.63893C2.73267 0.905731 2.30905 1.21498 1.89098 1.6485C1.12958 2.43909 0.668132 3.41172 0.501083 4.56789C0.419872 5.12916 0.396242 5.24363 0.391443 8.11059C0.389602 9.06624 0.391443 10.3239 0.391443 12.0109C0.391443 17.0181 0.396977 18.4822 0.420978 18.7666C0.50404 19.7673 0.66093 20.3969 0.993177 21.0855C1.62814 22.4038 2.84082 23.3934 4.26948 23.7627C4.76416 23.8901 5.31052 23.9602 6.01193 23.9935C6.30911 24.0064 9.33807 24.0156 12.3689 24.0156C15.3997 24.0156 18.4305 24.0119 18.7203 23.9972C19.5325 23.9589 20.0041 23.8956 20.5255 23.7608C21.9634 23.3897 23.1539 22.4149 23.8018 21.0781C24.1276 20.4061 24.2928 19.7525 24.3676 18.804C24.3838 18.5973 24.3906 15.3003 24.3906 12.0078C24.3906 8.7147 24.3832 5.42383 24.367 5.21704C24.2913 4.25327 24.1261 3.60522 23.7898 2.92023C23.5139 2.35951 23.2075 1.94076 22.7626 1.51262C21.9688 0.754148 20.9979 0.292568 19.8409 0.125664C19.2803 0.0446065 19.1687 0.0206049 16.3003 0.015625H12.3945Z" fill="url(#paint3_radial_2877_3978)"/>
<path d="M12.3948 3.09668C9.97139 3.09668 9.66725 3.10727 8.71542 3.15055C7.76545 3.19402 7.11702 3.34431 6.54964 3.56482C5.96274 3.79256 5.46489 4.09721 4.9689 4.59302C4.47254 5.08865 4.16765 5.58612 3.939 6.1724C3.71777 6.73955 3.56718 7.38768 3.52443 8.33657C3.48186 9.28769 3.4707 9.59179 3.4707 12.0134C3.4707 14.4351 3.48149 14.7381 3.52461 15.6892C3.56831 16.6384 3.7187 17.2864 3.93918 17.8533C4.16728 18.4398 4.47216 18.9373 4.96834 19.4329C5.46415 19.9289 5.962 20.2343 6.54852 20.4621C7.11627 20.6826 7.7649 20.8328 8.71467 20.8763C9.66651 20.9196 9.97045 20.9302 12.3937 20.9302C14.8173 20.9302 15.1205 20.9196 16.0724 20.8763C17.0223 20.8328 17.6715 20.6826 18.2393 20.462C18.826 20.2343 19.3231 19.9289 19.8189 19.4329C20.3153 18.9373 20.6201 18.4398 20.8488 17.8535C21.0682 17.2864 21.2187 16.6383 21.2634 15.6894C21.3061 14.7382 21.3173 14.4351 21.3173 12.0134C21.3173 9.59178 21.3061 9.28788 21.2634 8.33676C21.2187 7.38749 21.0682 6.73955 20.8488 6.17259C20.6201 5.58612 20.3153 5.08864 19.8189 4.59302C19.3225 4.09702 18.8262 3.79237 18.2387 3.56481C17.6698 3.34431 17.021 3.19402 16.0711 3.15055C15.1192 3.10727 14.8162 3.09668 12.392 3.09668H12.3948ZM11.5943 4.70356C11.8319 4.70318 12.097 4.70356 12.3948 4.70356C14.7774 4.70356 15.0598 4.7121 16.0006 4.75483C16.8706 4.79458 17.3428 4.93984 17.6574 5.06189C18.0738 5.22351 18.3707 5.41671 18.6828 5.72879C18.9951 6.04088 19.1885 6.33811 19.3506 6.75422C19.4727 7.06816 19.6183 7.54001 19.6579 8.4094C19.7007 9.34936 19.71 9.63173 19.71 12.0114C19.71 14.391 19.7007 14.6734 19.6579 15.6134C19.6181 16.4828 19.4727 16.9546 19.3506 17.2686C19.1889 17.6847 18.9951 17.981 18.6828 18.2929C18.3705 18.605 18.074 18.7982 17.6574 18.9598C17.3432 19.0824 16.8706 19.2273 16.0006 19.267C15.0599 19.3097 14.7774 19.319 12.3948 19.319C10.0121 19.319 9.72971 19.3097 8.78903 19.267C7.91901 19.2269 7.44682 19.0816 7.13208 18.9596C6.71565 18.798 6.4182 18.6048 6.10589 18.2927C5.79357 17.9806 5.60023 17.6841 5.43812 17.2678C5.31598 16.9539 5.17042 16.482 5.13083 15.6126C5.08807 14.6727 5.07951 14.3903 5.07951 12.0092C5.07951 9.62802 5.08807 9.34713 5.13083 8.40716C5.17061 7.53778 5.31598 7.06594 5.43812 6.75162C5.59985 6.33551 5.79357 6.03828 6.10589 5.7262C6.4182 5.4141 6.71565 5.22091 7.13208 5.05893C7.44663 4.93632 7.91901 4.79143 8.78903 4.75148C9.61222 4.71432 9.93123 4.70318 11.5943 4.70132L11.5943 4.70356ZM17.1581 6.1841C16.5669 6.1841 16.0872 6.66283 16.0872 7.25374C16.0872 7.84448 16.5669 8.32376 17.1581 8.32376C17.7492 8.32376 18.2289 7.84448 18.2289 7.25374C18.2289 6.66301 17.7492 6.18374 17.158 6.18374L17.1581 6.1841ZM12.3948 7.4343C9.86411 7.4343 7.8123 9.4846 7.8123 12.0134C7.8123 14.5423 9.86411 16.5916 12.3948 16.5916C14.9255 16.5916 16.9766 14.5423 16.9766 12.0134C16.9766 9.4846 14.9254 7.4343 12.3946 7.4343H12.3948ZM12.3948 9.04118C14.0375 9.04118 15.3693 10.3718 15.3693 12.0134C15.3693 13.6549 14.0375 14.9857 12.3948 14.9857C10.752 14.9857 9.42037 13.6549 9.42037 12.0134C9.42037 10.3718 10.752 9.04118 12.3948 9.04118Z" fill="#F9F9F9"/>
</g>
<defs>
<radialGradient id="paint0_radial_2877_3978" cx="0" cy="0" r="1" gradientUnits="userSpaceOnUse" gradientTransform="translate(23.6157 11.2647) rotate(164.25) scale(15.3346 11.0479)">
<stop stop-color="#FF005F"/>
<stop offset="1" stop-color="#FC01D8"/>
</radialGradient>
<radialGradient id="paint1_radial_2877_3978" cx="0" cy="0" r="1" gradientUnits="userSpaceOnUse" gradientTransform="translate(6.76544 25.8641) rotate(-90) scale(19.1573 20.3254)">
<stop stop-color="#FFCC00"/>
<stop offset="0.1242" stop-color="#FFCC00"/>
<stop offset="0.5672" stop-color="#FE4A05"/>
<stop offset="0.6942" stop-color="#FF0F3F"/>
<stop offset="1" stop-color="#FE0657" stop-opacity="0"/>
</radialGradient>
<radialGradient id="paint2_radial_2877_3978" cx="0" cy="0" r="1" gradientUnits="userSpaceOnUse" gradientTransform="translate(12.9971 23.6772) rotate(-59.8703) scale(7.92169 10.3132)">
<stop stop-color="#FFCC00"/>
<stop offset="1" stop-color="#FFCC00" stop-opacity="0"/>
</radialGradient>
<radialGradient id="paint3_radial_2877_3978" cx="0" cy="0" r="1" gradientUnits="userSpaceOnUse" gradientTransform="translate(3.64691 0.992898) rotate(164.274) scale(15.1645 5.16655)">
<stop stop-color="#780CFF"/>
<stop offset="1" stop-color="#820BFF" stop-opacity="0"/>
</radialGradient>
<clipPath id="clip0_2877_3978">
<rect width="24" height="24" fill="white" transform="translate(0.390625 0.015625)"/>
</clipPath>
</defs>
</svg>
