<svg width="30" height="25" viewBox="0 0 30 25" fill="none" xmlns="http://www.w3.org/2000/svg">
<g clip-path="url(#clip0_2877_3988)">
<path d="M27.9676 22.4666C28.0298 22.4672 28.0915 22.4554 28.1488 22.4319C28.2062 22.4084 28.2579 22.3737 28.3008 22.33C28.3438 22.2862 28.377 22.2344 28.3985 22.1777C28.4199 22.121 28.4291 22.0607 28.4255 22.0004C28.4255 21.6697 28.22 21.5117 27.7984 21.5117H27.1172V23.2429H27.3734V22.4882H27.6883L27.6955 22.4974L28.1841 23.2429H28.4581L27.9324 22.4713L27.9676 22.4666ZM27.6713 22.2932H27.3742V21.7079H27.7507C27.9453 21.7079 28.167 21.7388 28.167 21.986C28.167 22.2704 27.9426 22.2932 27.6697 22.2932" fill="#0064E0"/>
<path d="M21.2841 20.2971H17.6508V14.7738C17.6508 13.4567 17.6266 11.7612 15.7611 11.7612C13.8688 11.7612 13.5792 13.1962 13.5792 14.6779V20.2967H9.94587V8.93853H13.4339V10.4907H13.4827C13.8318 9.91139 14.3362 9.43479 14.9422 9.11169C15.5482 8.7886 16.2332 8.63112 16.9242 8.65601C20.6067 8.65601 21.2857 11.0073 21.2857 14.0662L21.2841 20.2971ZM5.84628 7.38595C5.42927 7.38602 5.02159 7.26606 4.67481 7.04122C4.32803 6.81639 4.05775 6.49678 3.89809 6.12282C3.73844 5.74885 3.6966 5.33734 3.77788 4.9403C3.85916 4.54326 4.05991 4.17853 4.35473 3.89224C4.64956 3.60595 5.02521 3.41096 5.4342 3.33191C5.84319 3.25287 6.26713 3.29332 6.65243 3.44817C7.03773 3.60301 7.36707 3.86529 7.59882 4.20183C7.83056 4.53837 7.9543 4.93406 7.95437 5.33886C7.95442 5.60764 7.89993 5.8738 7.79401 6.12214C7.6881 6.37048 7.53285 6.59613 7.33709 6.78622C7.14134 6.97631 6.90891 7.12711 6.65312 7.23001C6.39733 7.33291 6.12317 7.3859 5.84628 7.38595ZM7.66294 20.2971H4.02584V8.93853H7.66294V20.2971ZM23.0955 0.0172467H2.2001C1.72583 0.0120513 1.26882 0.189844 0.929526 0.511555C0.590232 0.833267 0.396413 1.27258 0.390625 1.73295V22.1006C0.396215 22.5612 0.589921 23.0008 0.929203 23.3228C1.26849 23.6449 1.7256 23.823 2.2001 23.8181H23.0955C23.5709 23.8239 24.0293 23.6463 24.3699 23.3242C24.7106 23.0022 24.9056 22.5621 24.9122 22.1006V1.73148C24.9054 1.27019 24.7102 0.830384 24.3696 0.508681C24.029 0.186977 23.5707 0.00969276 23.0955 0.0157766" fill="#0064E0"/>
<path d="M27.7029 20.7402C27.2608 20.7444 26.8384 20.9182 26.5281 21.2239C26.2178 21.5295 26.0448 21.942 26.0469 22.3711C26.049 22.8002 26.2261 23.211 26.5395 23.5138C26.8528 23.8165 27.2769 23.9864 27.719 23.9864C28.161 23.9864 28.5851 23.8165 28.8985 23.5138C29.2118 23.211 29.3889 22.8002 29.391 22.3711C29.3932 21.942 29.2202 21.5295 28.9098 21.2239C28.5995 20.9182 28.1771 20.7444 27.735 20.7402H27.7029ZM27.7029 23.8006C27.4129 23.8053 27.1281 23.7264 26.8843 23.5739C26.6406 23.4214 26.4488 23.2022 26.3334 22.944C26.218 22.6857 26.1841 22.4001 26.2359 22.1231C26.2877 21.8462 26.423 21.5903 26.6246 21.388C26.8262 21.1857 27.0851 21.0459 27.3685 20.9864C27.652 20.9269 27.9472 20.9503 28.217 21.0537C28.4867 21.1571 28.7188 21.3358 28.8839 21.5672C29.049 21.7986 29.1396 22.0723 29.1445 22.3538C29.1445 22.3619 29.1445 22.3696 29.1445 22.3777C29.1526 22.7469 29.0093 23.1041 28.7461 23.3708C28.483 23.6375 28.1215 23.7918 27.7411 23.7998H27.7033" fill="#0064E0"/>
</g>
<defs>
<clipPath id="clip0_2877_3988">
<rect width="29" height="24" fill="white" transform="translate(0.390625 0.015625)"/>
</clipPath>
</defs>
</svg>
