<svg width="226" height="40" viewBox="0 0 226 40" fill="none" xmlns="http://www.w3.org/2000/svg">
<g clip-path="url(#clip0_1809_1276)">
<path d="M40.5176 40H0.517578V35.9049H1.39509L2.27261 35.8318L2.49198 35.4662L3.51575 34.0768L6.14829 30.6399L6.95268 29.6161H12.8759L13.1684 30.6399L13.4609 31.8099L13.534 31.9561L13.0221 32.5411C12.2245 33.7198 11.3187 34.8214 10.3165 35.8318L11.7059 35.9049H13.0953L13.3147 35.4662C13.6037 34.9037 13.9732 34.3864 14.4115 33.9305C14.6485 34.5445 14.8201 35.1818 14.9234 35.8318L16.386 35.9049H17.7753L17.8485 35.8318C18.0297 35.5208 18.2005 35.2037 18.3604 34.8812L19.1647 34.0037C19.3843 34.6182 19.5315 35.2563 19.6035 35.9049C20.8226 35.9034 22.0416 35.879 23.2598 35.8318L23.0404 35.4662C22.6017 34.6618 22.6748 34.7349 21.7973 32.1024L21.4317 30.8592L21.8704 30.2011L22.3823 29.6161H28.3055L28.7443 31.0055C29.1797 32.6088 29.5941 34.2177 29.9874 35.8318L31.8887 35.9049C32.4991 35.8405 33.1085 35.7673 33.7168 35.6856L32.9125 33.7843C31.4976 29.5458 30.2534 25.2523 29.183 20.9141H26.1849L26.0386 21.1335L25.3805 22.3035L20.7004 28.5192L20.2616 26.9835C21.8718 24.9419 23.505 22.9186 25.1611 20.9141H22.1629L22.0898 20.9872V21.1335C22.0167 21.4991 21.9435 21.7185 21.651 22.0841L19.311 25.0091L19.1647 24.6435C18.8784 23.4476 18.5859 22.2532 18.2872 21.0603V20.9141H14.6309L14.7041 21.1335C15.5108 23.252 16.2425 25.3984 16.8978 27.5686L15.9472 28.8117C15.2037 26.3849 14.4967 23.9471 13.8265 21.4991L13.7534 20.9872V20.9141H10.609L10.3165 21.5722L9.8046 22.5229C8.19865 24.8214 6.51579 27.0652 4.75889 29.2505C3.39866 31.0524 2.00908 32.8321 0.590704 34.5887H0.517578V0H38.1775L25.8924 15.9415C24.9273 17.2228 23.9766 18.5147 23.0404 19.8172H25.3073L28.598 15.5759L30.9381 12.5046L40.5176 0V40ZM16.971 32.0293L16.6785 31.0055L17.6291 29.7623L17.7753 29.9817L18.2872 31.4442L18.3604 31.5905L18.2141 31.8099L17.3366 32.9799L16.971 32.0293ZM8.4152 27.7148C9.14143 26.7846 9.8727 25.8583 10.609 24.936C10.8481 24.6078 11.0678 24.266 11.2671 23.9122V24.2048L11.3402 24.7166C11.577 25.7315 11.87 26.7324 12.2178 27.7148C10.9505 27.7535 9.68243 27.7535 8.4152 27.7148ZM23.8448 27.7148C25.088 26.1792 26.1117 24.8629 26.4774 24.2048L26.6236 23.9122L26.6967 24.2779V24.7898C26.9501 25.7761 27.2428 26.7519 27.5743 27.7148H27.6474H23.7717H23.8448Z" fill="#B5B5B5"/>
<path d="M25.381 20.0366L22.3828 19.9634L38.1049 0H40.5181L25.381 20.0366Z" fill="#575757"/>
<path d="M52.583 34.4424L58.5062 16.819H62.8207L68.6708 34.4424H65.2338L63.8444 30.128H57.0437L55.6543 34.4424H52.583ZM60.4806 19.5247L57.8481 27.7148H63.04L60.4806 19.5247ZM69.3289 34.4424L75.0327 25.3748L69.7677 16.819H73.424L77.2265 23.1079L80.956 16.819H84.3198L79.1278 25.3017L84.7585 34.4424H81.0291L76.8609 27.5686L72.6927 34.4424H69.3289ZM85.4898 34.4424L91.413 16.819H95.7274L101.504 34.4424H98.1406L96.6781 30.128H89.9505L88.5611 34.4424H85.4898ZM93.3143 19.5247L90.7549 27.7148H95.9468L93.3143 19.5247ZM108.671 34.4424V16.819H113.058L117.738 28.8848L122.272 16.819H126.587V34.4424H123.296V21.1335L118.031 34.4424H117.007L111.596 21.1335V34.4424H108.671ZM128.561 34.4424L134.484 16.819H138.799L144.649 34.4424H141.212L139.823 30.128H133.022L131.632 34.4424H128.561ZM136.459 19.5247L133.826 27.7148H139.018L136.459 19.5247ZM146.623 34.4424V16.819H150.499L157.958 29.543V16.819H160.956V34.4424H157.592L149.621 20.9141V34.4424H146.623ZM170.316 34.7349C167.976 34.7349 166.294 34.223 165.124 33.1993C164.541 32.6544 164.072 31.9986 163.746 31.2703C163.419 30.542 163.242 29.7559 163.223 28.958H166.367C166.514 30.0549 166.879 30.8592 167.391 31.3711C167.976 31.9561 168.927 32.2486 170.316 32.2486C171.267 32.2486 172.071 32.0293 172.729 31.5174C173.314 31.0055 173.68 30.3474 173.68 29.543C173.68 28.7386 173.387 28.0804 172.876 27.7148C172.364 27.3492 171.413 27.0567 169.95 26.8373C167.757 26.5448 166.148 25.9598 165.197 25.2285C164.247 24.4973 163.735 23.2541 163.735 21.6453C163.735 20.1828 164.32 19.0128 165.417 18.0622C166.587 17.1115 168.049 16.5996 169.877 16.5996C171.779 16.5996 173.314 17.0384 174.411 17.9159C175.508 18.7934 176.166 20.0366 176.312 21.7185H173.314C173.168 20.7678 172.802 20.1097 172.217 19.7441C171.705 19.3053 170.901 19.0859 169.877 19.0859C168.927 19.0859 168.195 19.3053 167.61 19.7441C167.099 20.1097 166.879 20.6947 166.879 21.3528C166.879 22.1572 167.099 22.7422 167.537 23.1079C168.049 23.4735 169.073 23.766 170.535 23.9854C172.729 24.2779 174.338 24.7898 175.289 25.5942C176.312 26.3254 176.824 27.5686 176.824 29.2505C176.824 30.7861 176.239 32.1024 174.996 33.1261C173.687 34.2187 172.021 34.7913 170.316 34.7349ZM177.263 34.4424L183.186 16.819H187.501L193.351 34.4424H189.914L188.525 30.128H181.724L180.408 34.4424H177.263ZM185.161 19.5247L182.528 27.7148H187.72L185.161 19.5247ZM195.325 34.4424V16.819H201.248C203.296 16.819 204.905 17.2578 206.075 18.1353C207.245 18.9397 207.83 20.2559 207.83 22.011V22.0841C207.83 24.5704 206.514 26.1792 203.881 26.8373L208.927 34.4424H205.344L200.663 27.3492H198.616V34.4424H195.325ZM198.616 25.0091H201.248C203.515 25.0091 204.612 24.0585 204.612 22.1572V22.0841C204.612 21.1335 204.32 20.4022 203.735 20.0366C203.15 19.5978 202.345 19.3784 201.248 19.3784H198.616V25.0091ZM214.046 31.883H216.02C217.921 31.883 219.384 31.3711 220.408 30.2742C221.358 29.2505 221.87 27.7148 221.87 25.6673V25.521C221.87 21.426 219.896 19.3784 215.947 19.3784H214.046V31.883ZM210.755 34.4424V16.819H216.166C219.164 16.819 221.431 17.6234 222.967 19.1591C224.503 20.6947 225.307 22.8154 225.307 25.4479V25.6673C225.307 28.3729 224.503 30.4936 222.967 32.1024C221.358 33.638 219.091 34.4424 216.093 34.4424H210.755Z" fill="#B5B5B5"/>
<path d="M52.8027 34.4424L58.726 16.819H63.0404L68.8174 34.4424H65.4536L63.991 30.128H57.2634L55.874 34.4424H52.8027ZM60.6272 19.5247L58.0678 27.7148H63.2598L60.6272 19.5247ZM69.5486 34.4424L75.2525 25.3748L69.9143 16.819H73.6437L77.4462 23.1079L81.1757 16.819H84.5395L79.3475 25.3017L84.9782 34.4424H81.2488L77.0806 27.5686L72.9124 34.4424H69.5486ZM85.7095 34.4424L91.5596 16.819H95.874L101.724 34.4424H98.3603L96.8978 30.128H90.1702L88.7808 34.4424H85.7095ZM93.534 19.5247L90.9015 27.7148H96.1665L93.534 19.5247ZM108.89 34.4424V16.819H113.278L117.885 28.8848L122.492 16.819H126.806V34.4424H123.516V21.1335L118.251 34.4424H117.227L111.816 21.1335V34.4424H108.89ZM128.781 34.4424L134.704 16.819H139.018L144.869 34.4424H141.432L140.042 30.128H133.241L131.852 34.4424H128.781ZM136.678 19.5247L134.046 27.7148H139.238L136.678 19.5247ZM146.77 34.4424V16.819H150.719L158.178 29.543V16.819H161.176V34.4424H157.739L149.768 20.9141V34.4424H146.77ZM170.536 34.7349C168.196 34.7349 166.441 34.223 165.344 33.1993C164.761 32.6544 164.292 31.9986 163.966 31.2703C163.639 30.542 163.461 29.7559 163.443 28.958H166.587C166.733 30.0549 167.026 30.8592 167.611 31.3711C168.196 31.9561 169.146 32.2486 170.536 32.2486C171.486 32.2486 172.291 32.0293 172.949 31.5174C173.534 31.0055 173.827 30.3474 173.827 29.543C173.827 28.7386 173.607 28.0804 173.095 27.7148C172.583 27.3492 171.633 27.0567 170.17 26.8373C167.976 26.5448 166.368 25.9598 165.417 25.2285C164.393 24.4973 163.954 23.2541 163.954 21.6453C163.954 20.1828 164.539 19.0128 165.636 18.0622C166.806 17.1115 168.269 16.5996 170.097 16.5996C171.998 16.5996 173.534 17.0384 174.631 17.9159C175.728 18.7934 176.386 20.0366 176.532 21.7185H173.534C173.315 20.7678 173.022 20.1097 172.437 19.7441C171.925 19.3053 171.121 19.0859 170.097 19.0859C169.146 19.0859 168.342 19.3053 167.83 19.7441C167.318 20.1097 167.026 20.6947 167.026 21.3528C167.026 22.1572 167.318 22.7422 167.757 23.1079C168.269 23.4735 169.22 23.766 170.682 23.9854C172.876 24.2779 174.485 24.7898 175.508 25.5942C176.532 26.3254 177.044 27.5686 177.044 29.2505C177.044 30.7861 176.459 32.1024 175.216 33.1261C173.906 34.2187 172.24 34.7913 170.536 34.7349ZM177.483 34.4424L183.406 16.819H187.72L193.571 34.4424H190.134L188.744 30.128H181.944L180.554 34.4424H177.483ZM185.38 19.5247L182.748 27.7148H187.94L185.38 19.5247ZM195.545 34.4424V16.819H201.468C203.516 16.819 205.124 17.2578 206.295 18.1353C207.465 18.9397 208.05 20.2559 208.05 22.011V22.0841C208.05 24.5704 206.733 26.1792 204.101 26.8373L209.073 34.4424H205.563L200.883 27.3492H198.836V34.4424H195.545ZM198.836 25.0091H201.468C203.662 25.0091 204.832 24.0585 204.832 22.1572V22.0841C204.832 21.1335 204.539 20.4022 203.954 20.0366C203.369 19.5978 202.565 19.3784 201.468 19.3784H198.836V25.0091ZM214.265 31.883H216.24C218.141 31.883 219.603 31.3711 220.627 30.2742C221.578 29.2505 222.09 27.7148 222.09 25.6673V25.521C222.09 21.426 220.115 19.3784 216.167 19.3784H214.265V31.883ZM210.975 34.4424V16.819H216.386C219.384 16.819 221.651 17.6234 223.187 19.1591C224.722 20.6947 225.527 22.8154 225.527 25.4479V25.6673C225.527 28.3729 224.722 30.4936 223.187 32.1024C221.578 33.638 219.311 34.4424 216.313 34.4424H210.975Z" fill="#B5B5B5"/>
</g>
<defs>
<clipPath id="clip0_1809_1276">
<rect width="225.009" height="40" fill="white" transform="translate(0.517578)"/>
</clipPath>
</defs>
</svg>
