<svg width="219" height="40" viewBox="0 0 219 40" fill="none" xmlns="http://www.w3.org/2000/svg">
<g clip-path="url(#clip0_2511_3480)">
<path d="M31.7969 33.8463H46.1559V19.4873C42.3477 19.4873 38.6954 21.0001 36.0025 23.693C33.3097 26.3858 31.7969 30.038 31.7969 33.8463Z" fill="#B5B5B5"/>
<path d="M15.8984 19.4873V33.8463H30.2573C30.2573 31.9601 29.886 30.0926 29.1643 28.3501C28.4427 26.6078 27.3848 25.0246 26.0515 23.6911C24.718 22.3578 23.135 21.3003 21.393 20.579C19.6508 19.8576 17.7838 19.4866 15.8984 19.4873Z" fill="#B5B5B5"/>
<path d="M0 19.4871C-1.0637e-07 21.3732 0.371453 23.2407 1.09312 24.9832C1.81478 26.7256 2.87248 28.3087 4.2059 29.6421C5.53932 30.9756 7.12228 32.0331 8.86437 32.7544C10.6065 33.4757 12.4735 33.8467 14.359 33.8461V19.4871H0Z" fill="#B5B5B5"/>
<path d="M128.99 6.15405L122.281 24.5668L115.628 6.15405H109.743L119.438 31.7134L116.414 40.0003H122.046L134.871 6.15405H128.99Z" fill="#B5B5B5"/>
<path d="M215.645 6.15382C216.044 6.15442 216.435 6.24587 216.784 6.4194C217.144 6.59247 217.44 6.85487 217.637 7.1749C217.842 7.48714 217.949 7.84179 217.949 8.20285C217.949 8.56394 217.842 8.91859 217.637 9.23082C217.442 9.54957 217.147 9.81174 216.789 9.98634C216.437 10.1633 216.04 10.2564 215.637 10.2564C215.234 10.2564 214.837 10.1633 214.487 9.98634C214.13 9.81052 213.835 9.54865 213.637 9.23082C213.437 8.91835 213.332 8.56475 213.334 8.20515C213.335 7.84377 213.442 7.48884 213.642 7.1749C213.84 6.85359 214.139 6.59089 214.502 6.4194C214.85 6.24414 215.245 6.1526 215.645 6.15382ZM215.645 6.55677C215.327 6.55645 215.012 6.62899 214.734 6.7674C214.444 6.90759 214.204 7.1189 214.044 7.37637C213.882 7.62879 213.795 7.9142 213.792 8.20515C213.792 8.49435 213.877 8.77849 214.039 9.02934C214.199 9.28557 214.435 9.49665 214.724 9.63834C215.005 9.78217 215.324 9.85787 215.649 9.85787C215.972 9.85787 216.29 9.78217 216.572 9.63834C216.859 9.49529 217.095 9.28454 217.257 9.02934C217.419 8.77849 217.504 8.49435 217.504 8.20515C217.502 7.9142 217.414 7.62879 217.252 7.37637C217.1 7.11635 216.867 6.9003 216.582 6.75365C216.294 6.61697 215.972 6.54912 215.645 6.55677ZM214.615 9.30409V7.12912H215.897C216.03 7.13187 216.16 7.16164 216.279 7.21612C216.375 7.26519 216.455 7.33634 216.51 7.42219C216.572 7.51837 216.604 7.62739 216.604 7.73812C216.605 7.88762 216.544 8.03224 216.429 8.14107C216.299 8.25737 216.127 8.33015 215.944 8.34709C216.005 8.36477 216.064 8.39274 216.114 8.4295C216.175 8.47874 216.23 8.53407 216.279 8.59437C216.279 8.61727 216.355 8.70425 216.459 8.85992L216.747 9.31782H216.134L215.929 8.96525C215.847 8.79537 215.732 8.64015 215.589 8.50737C215.487 8.44459 215.367 8.41247 215.244 8.41579H215.115V9.33157L214.615 9.30409ZM215.13 8.06779H215.332C215.504 8.07354 215.675 8.06434 215.845 8.04032C215.912 8.02044 215.969 7.9838 216.01 7.93502C216.049 7.8847 216.067 7.82579 216.067 7.7656C216.07 7.70794 216.05 7.65122 216.01 7.60532C215.969 7.55585 215.909 7.5204 215.84 7.5046C215.672 7.47562 215.499 7.46485 215.325 7.47254H215.125L215.13 8.06779Z" fill="#B5B5B5"/>
<path d="M205.555 6.22975V9.69132C204.425 8.3977 203.015 7.36355 201.425 6.663C199.837 5.96245 198.107 5.61287 196.363 5.63934C188.992 5.63934 183.59 11.5626 183.59 18.9713C183.59 26.3801 188.972 32.3033 196.363 32.3033C198.105 32.3288 199.832 31.9808 201.42 31.2838C203.008 30.5868 204.42 29.5579 205.555 28.2704V31.7081H211.283V6.22975H205.555ZM197.503 27.2848C192.905 27.2848 189.422 23.5994 189.422 18.9571C189.422 14.3146 192.845 10.6293 197.503 10.6293C202.16 10.6293 205.555 14.3384 205.555 18.9571C205.555 23.5756 202.097 27.2848 197.503 27.2848Z" fill="#B5B5B5"/>
<path d="M146.895 5.63931C148.607 5.61312 150.303 5.96341 151.862 6.66496C153.421 7.36652 154.804 8.40194 155.911 9.69679V6.22982H161.538V31.7129H155.911V28.2744C154.798 29.5603 153.413 30.5876 151.855 31.2839C150.297 31.9801 148.604 32.3281 146.895 32.3034C139.66 32.3034 134.359 26.4029 134.359 18.9689C134.359 11.535 139.66 5.63931 146.895 5.63931ZM148.009 27.2888C152.517 27.2888 155.911 23.6026 155.911 18.9594C155.911 14.3162 152.551 10.6302 148.009 10.6302C143.467 10.6302 140.082 14.34 140.082 18.9594C140.082 23.5789 143.5 27.2888 148.009 27.2888Z" fill="#B5B5B5"/>
<path d="M108.72 16.0278V31.7918H103.102V16.5055C103.102 13.0518 100.763 10.6394 97.374 10.6394C93.8752 10.6394 90.7725 13.5486 90.7725 17.7141V31.7918H85.1304V6.23029H90.7725V9.63147C91.6574 8.39894 92.8219 7.39422 94.1702 6.69996C95.5187 6.00569 97.0127 5.64171 98.5292 5.63794C104.663 5.63794 108.72 9.73179 108.72 16.0278Z" fill="#B5B5B5"/>
<path d="M68.6391 27.6856C72.2549 27.6856 74.8184 26.4046 77.3287 23.9474L80.3701 26.8761C77.5556 30.0664 74.0171 32.3046 68.7116 32.3046C60.1136 32.3046 54.3589 26.4046 54.3589 18.9713C54.3589 11.5379 60.2921 5.63794 68.2142 5.63794C76.0109 5.63794 81.5384 11.4141 81.5384 18.4666C81.5359 19.2096 81.4532 19.9503 81.2922 20.6761H60.1426C60.6929 24.7379 64.0817 27.6856 68.6391 27.6856ZM60.3211 16.4284H75.6391C74.9197 12.8665 72.0281 10.2856 68.1901 10.2856C66.3716 10.2966 64.6092 10.9073 63.1832 12.0205C61.7572 13.1336 60.7499 14.6852 60.3211 16.4284Z" fill="#B5B5B5"/>
<path d="M31.7969 3.58716C31.7969 7.39539 33.3097 11.0477 36.0025 13.7405C38.6954 16.4333 42.3477 17.9461 46.1559 17.9461V3.58716H31.7969Z" fill="#B5B5B5"/>
<path d="M15.8984 17.9461C17.7838 17.9468 19.6508 17.5758 21.393 16.8544C23.135 16.1332 24.718 15.0756 26.0515 13.7422C27.3848 12.4088 28.4427 10.8257 29.1643 9.08324C29.886 7.34081 30.2573 5.47321 30.2573 3.58716H15.8984V17.9461Z" fill="#B5B5B5"/>
<path d="M0 17.9461H14.359V3.58716C12.4735 3.58653 10.6065 3.95748 8.86437 4.67879C7.12228 5.40013 5.53932 6.45768 4.2059 7.79109C2.87248 9.12451 1.81478 10.7077 1.09312 12.4501C0.371453 14.1925 -1.0637e-07 16.0601 0 17.9461Z" fill="#B5B5B5"/>
<path d="M182.052 28.0287V27.3873H179.647C176.417 27.3873 175.175 26.028 175.175 23.1897V11.0612H181.73V6.1217H175.195V0H169.54V6.12648H164.616V11.066H169.555V23.4433C169.555 29.4167 172.53 32.3077 177.94 32.3077C178.103 32.3077 178.272 32.3077 178.422 32.3077H182.047V28.0335L182.052 28.0287Z" fill="#B5B5B5"/>
</g>
<defs>
<clipPath id="clip0_2511_3480">
<rect width="218.333" height="40" fill="white"/>
</clipPath>
</defs>
</svg>
