<svg width="254" height="40" viewBox="0 0 254 40" fill="none" xmlns="http://www.w3.org/2000/svg">
<g clip-path="url(#clip0_1809_1260)">
<path d="M82.4529 9.40689H78.0088V32.2731H82.4529V9.40689Z" fill="#B5B5B5"/>
<path d="M99.6521 24.16C99.6521 27.3158 97.6218 28.7338 94.9183 28.7338C92.2149 28.7338 90.408 27.3158 90.408 24.32V16.171H85.9639V25.3517C85.9639 29.9227 88.8301 32.5958 93.597 32.5958C96.5928 32.5958 98.2673 31.4924 99.3901 30.2455H99.6494L100.036 32.2758H104.124V16.171H99.6521V24.16Z" fill="#B5B5B5"/>
<path d="M143.247 29.0869C139.995 29.0869 138.16 27.6055 137.87 25.4483H151.975C152.04 24.9997 152.073 24.547 152.072 24.0938C152.041 18.3007 147.658 15.8483 142.968 15.8483C137.526 15.8483 133.435 19.1034 133.435 24.3531C133.435 29.3434 137.366 32.5959 143.258 32.5959C148.188 32.5959 151.47 30.4083 152.149 27.0565H147.757C147.208 28.3779 145.63 29.0869 143.247 29.0869ZM142.971 19.36C145.807 19.36 147.448 20.6152 147.708 22.3945H137.967C138.384 20.6896 140.028 19.36 142.957 19.36H142.971Z" fill="#B5B5B5"/>
<path d="M159.622 18.4828H159.347L158.927 16.1628H154.889V32.2759H159.333V25.3517C159.333 22.2262 161.134 20.4883 164.486 20.4883C165.095 20.4798 165.703 20.5334 166.301 20.6483V16.171H165.68C162.718 16.171 160.878 16.7834 159.622 18.4828Z" fill="#B5B5B5"/>
<path d="M188.121 27.2496H187.865L184.063 17.1696H179.489L175.754 27.2193H175.465L171.923 16.171H167.509L172.952 32.2758H177.785L181.649 22H181.906L185.707 32.2758H190.571L196.014 16.171H191.6L188.121 27.2496Z" fill="#B5B5B5"/>
<path d="M213.703 27.5862V22.1959C213.703 17.8152 209.998 15.851 205.391 15.851C200.497 15.851 197.438 18.171 197.018 21.6441H201.463C201.785 20.1297 203.074 19.2938 205.391 19.2938C207.708 19.2938 209.253 20.1628 209.253 21.9338V22.3448L202.006 22.8966C198.657 23.1559 196.213 24.6373 196.213 27.7931C196.213 31.0455 199.016 32.5904 203.137 32.5904C206.464 32.5904 208.492 31.6635 209.733 30.2648H209.954C210.652 31.8373 212.067 32.2704 213.606 32.2704H215.474V28.9904H215.054C214.119 28.9904 213.703 28.5407 213.703 27.5862ZM209.256 25.8786C209.256 28.4248 206.221 29.2607 203.62 29.2607C201.849 29.2607 200.69 28.811 200.69 27.5862C200.69 26.4828 201.689 25.9448 203.173 25.8152L209.258 25.3655L209.256 25.8786Z" fill="#B5B5B5"/>
<path d="M230.133 16.171L224.947 27.8317H224.657L219.407 16.171H214.607L222.111 32.2758H227.427L234.897 16.171H230.133Z" fill="#B5B5B5"/>
<path d="M249.103 27.0565C248.551 28.3779 246.976 29.0869 244.593 29.0869C241.34 29.0869 239.506 27.6055 239.216 25.4483H253.321C253.386 24.9997 253.418 24.547 253.418 24.0938C253.387 18.3007 249.004 15.8483 244.314 15.8483C238.871 15.8483 234.783 19.1034 234.783 24.3531C234.783 29.3434 238.711 32.5959 244.604 32.5959C249.534 32.5959 252.816 30.4083 253.495 27.0565H249.103ZM244.303 19.36C247.139 19.36 248.78 20.6152 249.04 22.3945H239.302C239.724 20.6896 241.363 19.36 244.292 19.36H244.303Z" fill="#B5B5B5"/>
<path d="M70.7865 14.9848C70.7865 13.5669 71.7851 12.9572 73.0734 12.9572C73.6726 12.9628 74.2683 13.0491 74.8444 13.2138L75.5865 9.99172C74.5108 9.61134 73.3785 9.41548 72.2375 9.41241C68.952 9.41241 66.312 11.1531 66.312 14.7586V16.171H62.4775V19.6993H66.312V32.2759H70.7865V19.6966H75.7962V16.171H70.7865V14.9848Z" fill="#B5B5B5"/>
<path d="M113.931 11.6303H109.793L109.561 16.171H106.063V19.6993H109.479V27.6386C109.479 30.3421 110.858 32.6041 114.996 32.6041C116.069 32.6041 117.138 32.4857 118.185 32.251V28.8607C117.581 28.996 116.966 29.0717 116.348 29.0869C114.127 29.0869 113.934 27.8317 113.934 26.8634V19.691H118.348V16.171H113.931V11.6303Z" fill="#B5B5B5"/>
<path d="M127.886 11.6303H123.762L123.531 16.171H120.024V19.6993H123.44V27.6386C123.44 30.3421 124.819 32.6041 128.957 32.6041C130.027 32.6008 131.094 32.4796 132.138 32.2428V28.8607C131.534 28.996 130.919 29.0717 130.3 29.0869C128.08 29.0869 127.886 27.8317 127.886 26.8634V19.691H132.314V16.171H127.886V11.6303Z" fill="#B5B5B5"/>
<path d="M0.615234 8.79724C0.615234 6.21241 1.3711 4.00552 2.9573 2.41931L5.71592 5.17793C2.64558 8.23724 5.32696 17.749 14.069 26.4993C22.8111 35.2497 32.3283 37.9283 35.3959 34.8634L38.1545 37.6221C32.9794 42.7972 21.1918 39.1255 11.3242 29.2552C4.48006 22.4083 0.615234 14.64 0.615234 8.79724Z" fill="#B5B5B5"/>
<path d="M18.0115 40C15.4267 40 13.2198 39.2441 11.6309 37.6579L14.3895 34.8993C17.4543 37.9641 26.966 35.2828 35.7164 26.5352C44.4667 17.7876 47.1426 8.27587 44.0778 5.21104L46.8364 2.45242C52.0143 7.6276 48.3398 19.4152 38.4695 29.2828C31.6226 36.1379 23.8543 40 18.0115 40Z" fill="#B5B5B5"/>
<path d="M39.3826 25.3352C37.7081 20.5131 34.2874 15.36 29.7495 10.8248C19.8819 0.954476 8.09433 -2.72001 2.91916 2.45792C2.55227 2.82758 2.86951 3.74068 3.63089 4.50206C4.39227 5.26344 5.30537 5.57793 5.67226 5.21103C8.73985 2.1462 18.2516 4.82758 26.9992 13.5779C31.1371 17.7159 34.2212 22.3365 35.7081 26.6124C37.0102 30.3614 36.8833 33.3848 35.3661 34.9021C34.9964 35.269 35.3164 36.1848 36.075 36.9434C36.8336 37.7021 37.7495 38.0221 38.1192 37.6524C40.7702 35.0014 41.2199 30.6207 39.3826 25.3352Z" fill="#B5B5B5"/>
<path d="M46.8301 2.45795C44.1735 -0.198597 39.7983 -0.648253 34.5073 1.19175C29.688 2.86347 24.5321 6.28692 19.997 10.8221C10.1294 20.6897 6.45488 32.4773 11.6301 37.6552C11.9997 38.0221 12.9128 37.7048 13.6742 36.9462C14.4356 36.1876 14.7528 35.2717 14.3832 34.9021C11.3101 31.8373 13.9997 22.3255 22.7501 13.5752C26.888 9.43726 31.5087 6.35313 35.7845 4.86623C39.5335 3.56692 42.5569 3.69106 44.077 5.2083C44.4438 5.5752 45.3597 5.25796 46.1183 4.49658C46.8769 3.7352 47.1969 2.82485 46.8301 2.45795Z" fill="#B5B5B5"/>
</g>
<defs>
<clipPath id="clip0_1809_1260">
<rect width="252.966" height="40" fill="white" transform="translate(0.551758)"/>
</clipPath>
</defs>
</svg>
