<svg width="146" height="40" viewBox="0 0 146 40" fill="none" xmlns="http://www.w3.org/2000/svg">
<g clip-path="url(#clip0_1809_1281)">
<path d="M28.9009 0.0928571L5.98065 0H5.94994C4.50994 0 3.16161 0.555952 2.1197 1.60619C1.07803 2.62548 0.526367 4.01548 0.526367 5.46714V34.5329C0.526367 35.9845 1.07803 37.3745 2.1197 38.3938C3.13113 39.4131 4.50994 40 5.95018 40H5.98089L28.9011 39.9381V38.5483C28.9011 31.4131 26.174 24.896 21.7002 20.0464C26.3578 14.9807 28.9011 8.46309 28.9011 1.51357V0.092619L28.9009 0.0928571ZM12.0787 13.2817C9.35161 12.1698 6.4097 11.4593 3.31494 11.3048V11.2429C7.60494 10.5948 11.0059 7.13548 11.5883 2.81095L17.349 2.8419C17.0118 6.88833 15.1426 10.5948 12.0785 13.2821L12.0787 13.2817ZM4.08113 3.58286C4.57137 3.08857 5.24542 2.81048 5.95018 2.81048H8.73875C8.2178 5.62143 6.04208 7.84524 3.28446 8.43214V5.46714C3.31494 4.75667 3.59089 4.0769 4.08113 3.58286ZM3.31494 28.7567V22.9495C10.7611 23.629 16.7054 29.6524 17.3492 37.1581L11.5885 37.189C10.9757 32.8338 7.60494 29.4055 3.31494 28.7567ZM5.98089 37.189C5.27613 37.189 4.60208 36.911 4.11184 36.4167C3.62137 35.9226 3.34565 35.2429 3.34565 34.5326V31.5983C6.10351 32.185 8.27899 34.3781 8.79994 37.1888H5.98089V37.189ZM26.0821 37.1271L20.1068 37.1581C19.4328 28.1081 12.2626 20.8493 3.28446 20.1388V14.1157C15.5718 14.8262 25.408 24.7721 26.0821 37.1276V37.1271ZM19.7083 18.0695C18.1948 16.7312 16.5407 15.5609 14.7749 14.579C17.9004 11.4595 19.8002 7.32048 20.1373 2.84167L26.1126 2.87262C25.7754 8.55595 23.5387 13.8688 19.7083 18.0695Z" fill="#B5B5B5"/>
<path d="M63.4455 14.8602C62.235 14.2098 60.8693 13.9 59.3481 13.9C57.7962 13.9 56.3993 14.2407 55.1886 14.9221C53.9781 15.6033 53.0469 16.5324 52.395 17.7093C51.7431 18.8862 51.4326 20.2179 51.4326 21.7043C51.4326 22.7881 51.619 23.8412 52.0226 24.7702C52.395 25.7302 52.9226 26.5355 53.6055 27.2479C54.3183 27.9588 55.1758 28.5079 56.1198 28.8581C57.1619 29.2491 58.2662 29.4485 59.3793 29.4467C60.9002 29.4467 62.2659 29.1369 63.4767 28.4864C64.6871 27.8362 65.6183 26.9071 66.3014 25.7302C66.9843 24.5533 67.3257 23.1907 67.3257 21.7043C67.3257 20.1869 66.9843 18.8243 66.3014 17.6471C65.5562 16.4395 64.6252 15.5105 63.4455 14.8602ZM62.4521 24.9869C61.614 25.854 60.5588 26.2876 59.3171 26.2876C58.0445 26.2876 56.989 25.8543 56.151 24.9559C55.3129 24.0579 54.9093 22.974 54.9093 21.6733C54.9093 20.3417 55.3129 19.2267 56.12 18.3595C56.9271 17.4614 58.0133 17.0279 59.3171 17.0279C60.5898 17.0279 61.614 17.4614 62.4521 18.3286C63.2902 19.1957 63.6938 20.3107 63.6938 21.6733C63.7248 23.005 63.3214 24.1198 62.4521 24.9869Z" fill="#B5B5B5"/>
<path fill-rule="evenodd" clip-rule="evenodd" d="M77.972 13.9H77.5375C76.6063 13.9 75.7682 14.1167 74.9301 14.5505C74.092 14.9838 73.4091 15.6033 72.8194 16.4086H72.7884V14.1479H69.3115V29.2298H72.788V22.0759C72.788 21.2398 72.9432 20.5274 73.2537 19.8771C73.5641 19.2267 74.0608 18.7002 74.6815 18.3286C75.3022 17.9571 76.0472 17.7405 76.9165 17.7405C77.2268 17.7405 77.5684 17.7405 77.9718 17.7714L77.972 13.9Z" fill="#B5B5B5"/>
<path d="M89.9852 15.9131H89.9233C88.7747 14.5505 87.2226 13.869 85.2359 13.869C84.2116 13.869 83.2495 14.0548 82.3493 14.4576C81.449 14.86 80.6731 15.3867 80.0212 16.0679C79.3693 16.7493 78.8726 17.5855 78.5002 18.5455C78.1276 19.5364 77.9414 20.5583 77.9414 21.6733C77.9414 22.6024 78.0655 23.4386 78.2828 24.2748C78.5312 25.08 78.8726 25.7921 79.3071 26.4117C79.7419 27.031 80.2695 27.5574 80.8593 28.0219C81.449 28.4864 82.1319 28.8271 82.8769 29.044C83.6219 29.2607 84.429 29.3845 85.2359 29.3845C87.2847 29.3845 88.8988 28.6414 90.0474 27.1238H90.0783V29.1369H93.3997V14.0548H89.9231V15.9129L89.9852 15.9131ZM88.8678 25.0179C88.0297 25.854 87.0055 26.2876 85.8257 26.2876C84.5531 26.2876 83.4978 25.8543 82.6907 25.0181C81.8835 24.1819 81.48 23.0669 81.48 21.7352C81.48 21.0231 81.6043 20.3726 81.8214 19.7843C82.0388 19.1957 82.3493 18.7002 82.7528 18.2976C83.1519 17.898 83.6267 17.5821 84.1495 17.3686C84.6774 17.1519 85.2359 17.0281 85.8566 17.0281C87.0985 17.0281 88.1228 17.4924 88.93 18.3907C89.7371 19.2888 90.1405 20.4036 90.1405 21.7352C90.1405 23.0669 89.7059 24.1817 88.8678 25.0179ZM110.938 17.6474C110.627 17.059 110.255 16.5633 109.82 16.0988C109.386 15.6345 108.889 15.2317 108.361 14.8912C107.834 14.5505 107.244 14.3026 106.592 14.1479C105.94 13.9931 105.289 13.8693 104.605 13.8693C102.588 13.8693 100.974 14.5502 99.7943 15.9131H99.7321V14.086H96.2554V35.2688H99.7321V27.3095H99.7631C100.912 28.7031 102.495 29.4152 104.544 29.4152C105.382 29.4152 106.158 29.2914 106.903 29.0748C107.648 28.8271 108.33 28.4862 108.92 28.0526C109.51 27.6193 110.038 27.0617 110.472 26.4424C110.907 25.8229 111.248 25.1107 111.497 24.3055C111.745 23.5002 111.838 22.6331 111.838 21.704C111.838 20.9607 111.745 20.2486 111.59 19.5362C111.435 18.824 111.248 18.2355 110.938 17.6471L110.938 17.6474ZM107.151 25.0181C106.344 25.854 105.289 26.2876 104.016 26.2876C102.774 26.2876 101.719 25.8543 100.881 25.0181C100.043 24.1819 99.6081 23.0669 99.6081 21.7352C99.6081 20.3726 100.011 19.2579 100.849 18.3595C101.657 17.4614 102.743 17.0279 104.016 17.0279C105.257 17.0279 106.282 17.4614 107.12 18.3286C107.958 19.1957 108.361 20.3417 108.361 21.7352C108.361 23.0669 107.958 24.1819 107.151 25.0181ZM125 15.9131C123.851 14.5505 122.299 13.869 120.312 13.869C119.288 13.869 118.326 14.0548 117.425 14.4576C116.525 14.86 115.749 15.3867 115.097 16.0679C114.445 16.7493 113.949 17.5855 113.576 18.5455C113.204 19.5364 113.018 20.5583 113.018 21.6733C113.018 22.6024 113.142 23.4386 113.359 24.2748C113.607 25.08 113.949 25.7921 114.383 26.4117C114.818 27.031 115.346 27.5574 115.936 28.0219C116.525 28.4864 117.208 28.8271 117.953 29.044C118.698 29.2607 119.505 29.3845 120.312 29.3845C122.361 29.3845 123.975 28.6414 125.124 27.1238H125.155V29.1369H128.476V14.0548H125V15.9131ZM123.944 25.0179C123.106 25.854 122.082 26.2876 120.902 26.2876C119.629 26.2876 118.574 25.8543 117.767 25.0181C116.96 24.1819 116.556 23.0669 116.556 21.7352C116.556 21.0231 116.68 20.3726 116.898 19.7843C117.115 19.1957 117.425 18.7002 117.829 18.2976C118.228 17.898 118.703 17.5821 119.226 17.3686C119.754 17.1519 120.312 17.0281 120.933 17.0281C122.175 17.0281 123.199 17.4924 124.006 18.3907C124.813 19.2888 125.217 20.4036 125.217 21.7352C125.217 23.0669 124.782 24.1817 123.944 25.0179Z" fill="#B5B5B5"/>
<path fill-rule="evenodd" clip-rule="evenodd" d="M141.451 14.1167L137.54 24.2748H137.509L133.35 14.1169H129.687L135.833 28.3626L133.101 35.2998H136.764L145.083 14.1169L141.451 14.1167ZM51.8981 14.1167H47.8005L41.6238 20.9921H41.5619V7.4588H38.1162V29.199H41.5617V25.6686L44.1069 22.8505H44.1691L48.0803 29.199H51.9914L46.4662 20.2181L51.8981 14.1167Z" fill="#B5B5B5"/>
</g>
<defs>
<clipPath id="clip0_1809_1281">
<rect width="144.762" height="40" fill="white" transform="translate(0.526367)"/>
</clipPath>
</defs>
</svg>
