<svg width="211" height="40" viewBox="0 0 211 40" fill="none" xmlns="http://www.w3.org/2000/svg">
<g clip-path="url(#clip0_1809_1247)">
<path d="M56.3479 32.4384V40H51.6055V15.384H56.3479V16.5617C57.7603 15.6434 59.4058 15.1479 61.0904 15.1337C66.4757 15.1337 70.4357 19.4151 70.4357 24.5159C70.4357 29.6166 66.5126 33.898 61.0904 33.898C59.3985 33.9008 57.7454 33.392 56.3479 32.4384ZM56.3479 22.2711V26.6236C56.722 27.4201 57.3034 28.1014 58.0312 28.5962C58.759 29.0909 59.6064 29.3809 60.4847 29.4358C61.3629 29.4907 62.2398 29.3084 63.0235 28.9081C63.8072 28.5078 64.4689 27.9042 64.9392 27.1604C65.4096 26.4166 65.6713 25.5601 65.6971 24.6804C65.7228 23.8008 65.5116 22.9304 65.0855 22.1604C64.6595 21.3905 64.0342 20.7492 63.2753 20.3037C62.5163 19.8583 61.6516 19.6251 60.7716 19.6285C59.8618 19.6157 58.9663 19.856 58.1851 20.3226C57.4039 20.7893 56.7679 21.4639 56.3479 22.2711Z" fill="#B5B5B5"/>
<path d="M73.0044 10.4229C72.9889 10.0639 73.047 9.70552 73.1751 9.36982C73.3032 9.03412 73.4986 8.72816 73.7494 8.47078C74.0001 8.21339 74.3008 8.01001 74.6331 7.87314C74.9653 7.73627 75.322 7.6688 75.6813 7.67488C76.0455 7.66856 76.4073 7.73507 76.7455 7.8705C77.0836 8.00593 77.3913 8.20756 77.6505 8.46354C77.9097 8.71952 78.1151 9.02471 78.2547 9.36117C78.3943 9.69763 78.4653 10.0586 78.4635 10.4229C78.4559 11.1555 78.1593 11.8555 77.6383 12.3706C77.1172 12.8857 76.4139 13.1742 75.6813 13.1735C75.324 13.1718 74.9706 13.099 74.6417 12.9593C74.3129 12.8195 74.0151 12.6157 73.7659 12.3596C73.5167 12.1035 73.3211 11.8004 73.1903 11.4679C73.0596 11.1353 72.9964 10.7801 73.0044 10.4229ZM73.2916 15.384H78.1078V33.6135H73.2916V15.384Z" fill="#B5B5B5"/>
<path d="M80.9593 24.4474C80.9496 23.2204 81.1854 22.0039 81.6526 20.8694C82.1199 19.7349 82.8092 18.7052 83.6802 17.8409C84.5511 16.9767 85.586 16.2952 86.724 15.8366C87.8621 15.378 89.0804 15.1516 90.3072 15.1706C91.9846 15.1714 93.6357 15.5878 95.1129 16.3826V15.384H99.8237V32.5781C99.8237 37.3205 95.7189 39.892 90.5838 39.892C87.2299 39.892 84.0182 38.8934 81.913 37.2573L83.8759 33.8691C85.8765 35.1507 88.208 35.8201 90.5838 35.795C93.9009 35.795 94.9363 34.4777 95.0786 32.3357C93.6497 33.2496 91.9927 33.7435 90.2966 33.761C84.8375 33.7558 80.9593 29.6904 80.9593 24.4474ZM95.1129 26.4787V22.4134C94.7144 21.5651 94.0841 20.8469 93.2948 20.3415C92.5056 19.8362 91.5895 19.5643 90.6523 19.5574C90.0052 19.5511 89.3632 19.6728 88.7632 19.9155C88.1633 20.1582 87.6172 20.5171 87.1564 20.9715C86.6956 21.4259 86.3292 21.9669 86.0782 22.5635C85.8272 23.16 85.6966 23.8002 85.6938 24.4474C85.6938 27.2639 87.8332 29.2267 90.6181 29.2267C91.5525 29.2511 92.4741 29.0046 93.2716 28.517C94.0691 28.0294 94.7086 27.3215 95.1129 26.4787Z" fill="#B5B5B5"/>
<path d="M102.682 24.4474C102.672 23.2204 102.908 22.0039 103.375 20.8694C103.843 19.7349 104.532 18.7052 105.403 17.8409C106.274 16.9767 107.309 16.2952 108.447 15.8366C109.585 15.378 110.803 15.1516 112.03 15.1706C113.711 15.17 115.366 15.5865 116.846 16.3826V15.384H121.554V32.5781C121.554 37.3205 117.452 39.892 112.317 39.892C108.963 39.892 105.751 38.8934 103.646 37.2573L105.609 33.8691C107.61 35.1512 109.941 35.8206 112.317 35.795C115.634 35.795 116.67 34.4777 116.812 32.3357C115.383 33.2493 113.726 33.7431 112.03 33.761C106.571 33.7558 102.682 29.6904 102.682 24.4474ZM116.846 26.4787V22.4134C116.447 21.5653 115.817 20.8473 115.028 20.3419C114.239 19.8366 113.323 19.5646 112.386 19.5574C111.738 19.5511 111.096 19.6728 110.496 19.9155C109.896 20.1582 109.35 20.5171 108.89 20.9715C108.429 21.4259 108.062 21.9669 107.811 22.5635C107.56 23.16 107.43 23.8002 107.427 24.4474C107.427 27.2639 109.566 29.2267 112.351 29.2267C113.286 29.2507 114.207 29.0041 115.005 28.5166C115.802 28.029 116.442 27.3213 116.846 26.4787Z" fill="#B5B5B5"/>
<path d="M128.474 15.384L133.256 27.5484L138.177 15.384H143.183L132.684 40H128.226L130.861 33.437L123.196 15.384H128.474Z" fill="#B5B5B5"/>
<path d="M142.273 15.384H147.374L152.022 27.6933L156.625 15.384H161.631L154.317 33.6135H149.519L142.273 15.384Z" fill="#B5B5B5"/>
<path d="M161.968 24.3736C161.968 19.2386 165.641 14.9914 171.384 14.9914C176.701 14.9914 180.74 18.9883 180.837 24.2392C180.874 24.6908 180.874 25.1445 180.837 25.5961H166.463C166.605 28.1649 169.066 29.8406 171.706 29.8406C173.882 29.8406 175.165 29.2346 176.664 27.9963L179.27 30.7443C177.162 32.9548 175.054 33.9902 171.706 33.9902C165.535 33.9718 161.968 29.369 161.968 24.3736ZM166.71 22.1973H175.916C175.452 20.4874 173.808 18.9883 171.313 18.9883C168.423 18.9883 167.211 20.4505 166.71 22.1973Z" fill="#B5B5B5"/>
<path d="M181.834 31.6533L184.166 27.8698C186.258 29.2648 188.712 30.0209 191.227 30.0461C193.619 30.0461 194.831 29.4401 194.831 28.4073C194.831 27.7276 194.259 27.2296 193.047 26.9793L188.041 25.9096C184.369 25.1192 182.69 23.3777 182.69 20.5243C182.69 17.4918 185.259 14.9572 190.576 14.9572C193.785 14.9572 196.636 15.8872 198.601 17.0992L196.425 20.7377C194.82 19.8814 192.681 18.954 190.431 18.954C188.4 18.954 187.222 19.4546 187.222 20.3794C187.222 20.988 187.651 21.3806 188.826 21.594L193.042 22.3844C197.608 23.2749 199.365 25.3089 199.365 28.0569C199.365 32.009 195.413 34.0851 191.087 34.0851C187.837 34.1479 184.633 33.306 181.834 31.6533Z" fill="#B5B5B5"/>
<path d="M200.313 15.384H203.024V10.3544L207.767 7.28757V15.384H210.549V19.5231H207.769V33.6161H203.027V19.5231H200.311V15.384H200.313Z" fill="#B5B5B5"/>
<path d="M39.7313 18.3164C39.6521 17.1593 39.4624 16.0123 39.1648 14.8913C37.8079 9.88538 34.9493 5.94651 30.5915 3.13528C27.8466 1.35015 24.6938 0.290447 21.428 0.0553214C20.0559 -0.0448952 18.6773 -0.00782549 17.3126 0.165979C15.8749 0.356271 14.4617 0.699859 13.0971 1.19088C9.46334 2.50163 6.29194 4.8459 3.97299 7.93535C1.65404 11.0248 0.288654 14.7247 0.0447899 18.5799C0 19.2886 0 20.0026 0 20.714V38.0082C0 38.4575 0.178486 38.8884 0.496194 39.2061C0.813901 39.5238 1.24481 39.7023 1.69411 39.7023H8.37571C8.79385 39.6997 9.19651 39.5438 9.50731 39.264C9.81812 38.9843 10.0155 38.6002 10.0619 38.1847C10.1059 38.0223 10.1289 37.8549 10.1304 37.6867V37.2863C10.1265 37.2556 10.1265 37.2246 10.1304 37.194V37.1492C10.176 37.1614 10.2189 37.1819 10.2569 37.2098C12.7561 38.5919 15.524 39.4186 18.3718 39.6338C19.5124 39.7181 20.6581 39.7067 21.7969 39.5995C24.4776 39.3526 27.0793 38.5595 29.4419 37.269C31.8045 35.9786 33.8778 34.218 35.5342 32.0959C37.8952 29.1259 39.3399 25.5325 39.6917 21.7547C39.8109 20.6123 39.8242 19.4613 39.7313 18.3164ZM23.4488 29.3663C23.437 29.4272 23.4042 29.482 23.356 29.5211C23.3078 29.5601 23.2474 29.5809 23.1854 29.5798H16.5986C16.5366 29.5809 16.4762 29.5601 16.428 29.5211C16.3798 29.482 16.3469 29.4272 16.3351 29.3663V29.3242V29.0792C16.3337 28.7768 16.3673 28.4753 16.4353 28.1807C16.4774 28.0806 16.5038 27.9621 16.5459 27.8514C16.5881 27.7407 16.6302 27.638 16.6724 27.53C16.7145 27.4219 16.783 27.3245 16.841 27.2322L16.9358 27.09C16.9978 26.9979 17.0655 26.9099 17.1387 26.8265C17.2151 26.7316 17.2915 26.65 17.3679 26.563C17.7643 26.1732 18.246 25.8809 18.7749 25.7094C18.3193 25.4613 17.9592 25.0687 17.7513 24.5935C17.5434 24.1182 17.4996 23.5873 17.6267 23.0844C17.7538 22.5815 18.0446 22.1351 18.4533 21.8157C18.862 21.4962 19.3653 21.3218 19.8841 21.32C20.5034 21.3247 21.0963 21.5715 21.536 22.0076C21.7906 22.2638 21.9822 22.5756 22.0959 22.9183C22.2095 23.2611 22.2421 23.6256 22.191 23.9831C22.14 24.3406 22.0066 24.6814 21.8015 24.9787C21.5965 25.2759 21.3252 25.5216 21.0091 25.6962C21.7206 25.9307 22.3397 26.3842 22.7779 26.9918C23.2161 27.5994 23.4509 28.33 23.4488 29.0792C23.4488 29.174 23.4488 29.2768 23.4488 29.3663ZM34.8044 15.0178H4.99012C4.93424 15.0174 4.87924 15.0038 4.82966 14.978C4.78007 14.9522 4.73732 14.915 4.70491 14.8695C4.6725 14.824 4.65136 14.7714 4.64323 14.7161C4.6351 14.6608 4.64021 14.6044 4.65815 14.5514C5.77062 11.3988 7.83359 8.66874 10.5627 6.73771C13.2918 4.80667 16.5527 3.76969 19.8959 3.76969C23.2391 3.76969 26.5 4.80667 29.2292 6.73771C31.9583 8.66874 34.0212 11.3988 35.1337 14.5514C35.1516 14.6042 35.1567 14.6604 35.1487 14.7154C35.1407 14.7705 35.1198 14.823 35.0877 14.8684C35.0556 14.9139 35.0132 14.9511 34.964 14.9771C34.9147 15.003 34.86 15.017 34.8044 15.0178Z" fill="#B5B5B5"/>
</g>
<defs>
<clipPath id="clip0_1809_1247">
<rect width="210.552" height="40" fill="white"/>
</clipPath>
</defs>
</svg>
