<svg width="201" height="40" viewBox="0 0 201 40" fill="none" xmlns="http://www.w3.org/2000/svg">
<g clip-path="url(#clip0_2511_3477)">
<path d="M16.1095 0.299067C12.394 1.0363 8.98427 2.79923 6.23769 5.40758C4.4427 7.11643 3.33018 8.59089 2.27108 10.6416C0.637694 13.8076 0.0273438 16.3612 0.0273438 19.9765C0.0273438 23.5919 0.637694 26.1461 2.27108 29.3114C3.33018 31.3622 4.4427 32.8366 6.23769 34.5455C9.98861 38.1248 14.5836 39.9418 19.8604 39.9418C23.3783 39.9418 26.0167 39.3301 28.9242 37.873C30.3779 37.1358 32.3345 35.8764 32.3345 35.6607C32.3345 35.5886 31.2394 34.4373 29.9118 33.1064L27.4884 30.6784L26.4113 31.272C24.4013 32.3872 22.9475 32.7832 20.5602 32.8727C18.7479 32.9448 18.1556 32.9088 16.8808 32.5849C11.0117 31.1098 7.02701 26.0199 7.02701 19.9765C7.02701 12.7458 12.7345 7.02628 19.9499 7.02628C29.4444 7.02628 35.6367 16.7752 31.7061 25.5164L31.2033 26.6497L33.6086 29.0777C34.9188 30.4086 36.0854 31.4877 36.193 31.4877C36.5876 31.4877 38.203 28.466 38.9035 26.3972C39.5853 24.4006 39.8724 22.458 39.8724 19.9759C39.8724 16.3605 39.2621 13.8062 37.6287 10.641C36.5696 8.59022 35.4571 7.11576 33.6621 5.40691C30.8801 2.74514 27.4704 1.00024 23.6647 0.281038C21.9065 -0.060865 17.8143 -0.0428357 16.1095 0.299067ZM87.4337 18.8072V32.0273H92.2798V5.58721H87.4337V18.8072ZM162.35 5.857C155.655 7.31409 150.881 13.879 151.689 20.462C152.101 23.7355 153.268 26.0921 155.619 28.43C157.863 30.6423 159.819 31.7034 162.817 32.3151C166.101 32.9809 170.194 32.1174 172.922 30.1929L173.424 29.833L174.411 30.7144C176.223 32.279 176.009 32.261 177.121 31.0383C178.897 29.0777 178.879 29.258 177.516 28.0166L176.331 26.9555L177.103 25.5886C180.153 20.2283 179.275 13.9331 174.841 9.54448C172.885 7.58387 170.713 6.41459 168.057 5.857C166.569 5.53312 163.804 5.53312 162.35 5.857ZM167.645 10.4253C171.235 11.5405 173.944 15.2814 173.944 19.1131C173.944 20.2103 173.513 21.9371 172.993 22.9622L172.598 23.7174L170.821 22.1709L169.044 20.6243L168.255 21.5057C167.806 22.0093 167.213 22.6931 166.926 23.0704L166.406 23.7181L168.13 25.2113L169.833 26.7037L169.026 27.1178C167.931 27.6754 166.351 28.0714 165.239 28.0714C160.626 28.0714 156.534 23.7542 156.534 18.9161C156.534 17.855 156.946 16.2002 157.521 15.031C158.059 13.9338 159.513 12.243 160.608 11.4877C162.584 10.1375 165.365 9.72411 167.645 10.4253ZM46.1536 8.19489V10.4433H54.41V32.0273H59.4357V10.4433H67.6921V5.94648H46.1536V8.19489ZM182.559 18.9869V32.0273H200.688V27.7108H187.405V5.94715H182.559V18.9869ZM139.842 9.72411V12.4219H136.971V16.3792H139.824L139.878 22.5308L139.933 28.7004L140.417 29.5999C141.458 31.5785 143.02 32.478 145.407 32.478C146.789 32.478 147.058 32.4239 148.153 31.8844C148.835 31.5425 149.427 31.1652 149.481 31.0209C149.535 30.8767 149.392 30.3371 149.176 29.8156C148.943 29.3121 148.656 28.6283 148.53 28.3044L148.297 27.7468L147.615 28.0887C146.825 28.5027 146.107 28.5201 145.425 28.1789C144.491 27.6754 144.438 27.3515 144.366 21.632L144.312 16.3799H148.817V12.4226H144.33V7.02695H139.842V9.72411ZM74.7806 12.0079C73.6681 12.0981 71.9986 12.4039 71.0117 12.7271C70.2397 12.9608 68.1041 13.8243 67.8885 13.9859C67.7983 14.04 69.3242 17.457 69.4317 17.457C69.4677 17.457 69.7903 17.3134 70.1676 17.1151C73.039 15.658 76.5569 15.6226 78.1723 17.061C78.6931 17.5284 79.3569 19.0757 79.3569 19.867C79.3569 20.4967 79.3208 20.5502 78.9622 20.4426C76.3953 19.7234 73.4344 19.5251 71.6394 19.9572C69.4317 20.4967 67.5472 21.9358 66.6677 23.7341C66.237 24.5976 66.1649 24.9575 66.1649 26.2704C66.1649 27.5471 66.2364 27.9612 66.6317 28.7885C67.5652 30.7311 69.3422 31.9906 71.7469 32.4039C74.1162 32.8179 76.4494 32.2957 78.3519 30.9288L79.3569 30.2096V32.0266H84.0233V25.4436C84.0233 18.4466 83.9519 17.6193 83.0905 15.9465C82.5876 14.9575 81.0263 13.4463 79.9672 12.9067C78.6217 12.2416 76.4861 11.8643 74.7806 12.0079ZM76.9342 23.2139C77.634 23.3221 78.4594 23.4837 78.7826 23.5912C79.3569 23.7709 79.3569 23.7889 79.3569 24.9401C79.3569 26.271 79.1051 26.8827 78.2083 27.656C76.1983 29.437 72.3933 29.3648 71.1546 27.5305C70.4367 26.4874 70.6517 24.9582 71.6394 24.1488C72.8961 23.1238 74.3859 22.854 76.9342 23.2139ZM103.677 12.0627C101.47 12.3144 99.4778 13.268 97.9339 14.8326C96.5696 16.1996 95.7803 17.5665 95.3315 19.3648C93.8056 25.3542 97.1445 31.0022 102.996 32.3151C106.101 32.9989 110.318 32.0273 112.58 30.0847L113.316 29.455L111.916 28.052L110.534 26.649L110.067 26.9729C109.332 27.4944 107.878 28.1782 106.962 28.43C105.867 28.7178 103.677 28.5922 102.852 28.1782C101.38 27.477 100.106 25.8757 99.7108 24.239L99.6033 23.7535H114.716L114.644 23.0704C114.59 22.7104 114.501 21.847 114.447 21.1819C114.16 17.7642 112.095 14.275 109.583 12.9976C108.003 12.1882 105.724 11.8283 103.677 12.0627ZM106.657 16.1094C108.183 16.649 109.241 17.8543 109.798 19.7067L110.032 20.5161H104.845C101.973 20.5161 99.64 20.48 99.64 20.444C99.64 20.1201 100.268 18.7351 100.699 18.1234C101.973 16.253 104.575 15.3722 106.657 16.1094ZM126.526 12.08C125.215 12.2777 123.78 12.9435 122.721 13.879L121.895 14.6163V12.4219H117.05V32.0279H121.877L121.931 25.6066C121.985 19.3295 122.003 19.1492 122.38 18.4119C123.134 17.0269 124.713 16.1455 126.472 16.1455C128.087 16.1274 129.272 16.8473 130.026 18.2677C130.403 18.9695 130.421 19.2213 130.475 25.4984L130.529 32.0279H135.178V25.1385C135.178 19.9946 135.106 18.034 134.927 17.3682C133.938 13.5912 130.564 11.4864 126.526 12.08Z" fill="#B5B5B5"/>
<path d="M19.9808 28.1449C24.4448 28.1449 28.0636 24.5261 28.0636 20.0621C28.0636 15.598 24.4448 11.9792 19.9808 11.9792C15.5167 11.9792 11.8979 15.598 11.8979 20.0621C11.8979 24.5261 15.5167 28.1449 19.9808 28.1449Z" fill="#B5B5B5"/>
</g>
<defs>
<clipPath id="clip0_2511_3477">
<rect width="200.735" height="40" fill="white"/>
</clipPath>
</defs>
</svg>
