<svg width="42" height="41" viewBox="0 0 42 41" fill="none" xmlns="http://www.w3.org/2000/svg">
<path d="M1 21C1 9.95431 9.95431 1 21 1C32.0457 1 41 9.95431 41 21C41 32.0457 32.0457 41 21 41C9.95431 41 1 32.0457 1 21Z" fill="url(#paint0_linear_2877_3748)"/>
<path d="M0.5 20.75C0.5 9.56623 9.56623 0.5 20.75 0.5H21.25C32.4338 0.5 41.5 9.56623 41.5 20.75L40.5 21C40.5 10.2304 31.7696 1.5 21 1.5C10.2304 1.5 1.5 10.2304 1.5 21L0.5 20.75ZM41 41H1H41ZM20.75 41C9.56623 41 0.5 31.9338 0.5 20.75C0.5 9.56623 9.56623 0.5 20.75 0.5L21 1.5C10.2304 1.5 1.5 10.2304 1.5 21C1.5 32.0457 10.2304 41 21 41H20.75ZM21.25 0.5C32.4338 0.5 41.5 9.56623 41.5 20.75C41.5 31.9338 32.4338 41 21.25 41H21C31.7696 41 40.5 32.0457 40.5 21C40.5 10.2304 31.7696 1.5 21 1.5L21.25 0.5Z" fill="#666666"/>
<path fill-rule="evenodd" clip-rule="evenodd" d="M22.5264 22.6416C22.7033 22.6097 22.8827 22.5937 23.0625 22.5938C23.4405 22.5938 23.8022 22.6637 24.1354 22.7913L25.461 20.9062L25.5116 20.9349C25.0202 20.3858 24.7489 19.6744 24.75 18.9375C24.75 17.2807 26.0932 15.9375 27.75 15.9375C29.4068 15.9375 30.75 17.2807 30.75 18.9375C30.75 20.5943 29.4068 21.9375 27.75 21.9375C27.4058 21.9375 27.075 21.8795 26.767 21.7728L25.4255 23.7451C25.8392 24.2724 26.0636 24.9235 26.0625 25.5938C26.0625 27.2506 24.7193 28.5938 23.0625 28.5938C21.4057 28.5938 20.0625 27.2506 20.0625 25.5938C20.0625 24.6781 20.4727 23.8582 21.1194 23.3079L19.1728 19.4379C18.972 19.4793 18.7675 19.5001 18.5625 19.5C18.3043 19.5002 18.0472 19.4671 17.7975 19.4016L16.4179 21.8325C16.9884 22.3786 17.3438 23.1478 17.3438 24C17.3438 25.6568 16.0006 27 14.3438 27C12.6869 27 11.3438 25.6568 11.3438 24C11.3438 22.3432 12.6869 21 14.3438 21C14.5927 21 14.8344 21.0303 15.0656 21.0874L16.454 18.6339C15.9036 18.0903 15.5625 17.335 15.5625 16.5C15.5625 14.8432 16.9057 13.5 18.5625 13.5C20.2193 13.5 21.5625 14.8432 21.5625 16.5C21.5625 17.3965 21.1692 18.2012 20.5459 18.7509L22.5264 22.6416ZM27.75 20.4375C28.5785 20.4375 29.25 19.766 29.25 18.9375C29.25 18.109 28.5785 17.4375 27.75 17.4375C26.9215 17.4375 26.25 18.109 26.25 18.9375C26.25 19.766 26.9215 20.4375 27.75 20.4375ZM14.3438 25.5C15.1722 25.5 15.8438 24.8285 15.8438 24C15.8438 23.1715 15.1722 22.5 14.3438 22.5C13.5153 22.5 12.8438 23.1715 12.8438 24C12.8438 24.8285 13.5153 25.5 14.3438 25.5ZM18.5625 18C19.391 18 20.0625 17.3285 20.0625 16.5C20.0625 15.6715 19.391 15 18.5625 15C17.734 15 17.0625 15.6715 17.0625 16.5C17.0625 17.3285 17.734 18 18.5625 18ZM23.0625 27.0938C23.891 27.0938 24.5625 26.4222 24.5625 25.5938C24.5625 24.7653 23.891 24.0938 23.0625 24.0938C22.234 24.0938 21.5625 24.7653 21.5625 25.5938C21.5625 26.4222 22.234 27.0938 23.0625 27.0938Z" fill="#F9F9F9"/>
<defs>
<linearGradient id="paint0_linear_2877_3748" x1="19.4177" y1="-32.2143" x2="19.4177" y2="69.2143" gradientUnits="userSpaceOnUse">
<stop/>
<stop offset="1" stop-color="#444444"/>
</linearGradient>
</defs>
</svg>
