<svg width="461" height="284" viewBox="0 0 461 284" fill="none" xmlns="http://www.w3.org/2000/svg">
<rect x="0.202436" y="0.263819" width="161.374" height="161.374" rx="22.8439" transform="matrix(0.965926 0.258819 0 1 304.726 -0.0195573)" fill="white"/>
<rect x="0.202436" y="0.263819" width="161.374" height="161.374" rx="22.8439" transform="matrix(0.965926 0.258819 0 1 304.726 -0.0195573)" stroke="#AAAAAA" stroke-width="0.419154"/>
<g clip-path="url(#clip0_2877_3592)">
<path d="M399.694 66.6508V74.0285C399.694 76.8887 398.618 79.2878 396.665 80.786L386.995 88.2066C386.767 88.3811 386.57 88.585 386.391 88.8048C385.93 86.8297 385.046 84.8845 383.789 83.0988L393.012 76.0213C393.988 75.2727 394.526 74.0723 394.526 72.6436V65.2658L399.694 66.6508ZM385.48 95.4073V91.584C385.48 88.7239 384.404 85.7479 382.451 83.2047L372.781 70.5989C371.804 69.3285 371.266 67.84 371.266 66.4113V59.0335L366.098 57.6486V65.0263C366.098 67.8865 367.174 70.8625 369.127 73.4056L378.797 86.0114C379.774 87.2818 380.312 88.7703 380.312 90.199V94.0224L376.957 89.6507L373.303 92.4547L382.896 104.958L392.49 97.596L388.836 92.8337L385.48 95.4073Z" fill="#2B2B2B"/>
</g>
<path d="M361.152 131.185L365.261 120.728L366.998 121.193L363.136 131.717L361.152 131.185ZM369.572 133.441L365.726 120.853L367.556 121.343L371.649 133.998L369.572 133.441ZM363.276 127.211L369.385 128.848V130.518L363.276 128.881V127.211ZM378.039 135.71V133.864L378.194 133.938C378.059 134.501 377.734 134.895 377.217 135.121C376.7 135.335 376.085 135.347 375.372 135.156C374.648 134.962 374.018 134.622 373.48 134.135C372.953 133.641 372.544 133.039 372.255 132.33C371.966 131.621 371.821 130.839 371.821 129.983C371.821 129.116 371.971 128.401 372.27 127.84C372.57 127.278 372.989 126.892 373.526 126.683C374.074 126.477 374.71 126.471 375.434 126.664C376.178 126.864 376.793 127.216 377.279 127.721C377.765 128.215 378.065 128.803 378.178 129.487L377.977 129.449V124.135L379.946 124.663V136.221L378.039 135.71ZM375.945 133.656C376.576 133.825 377.077 133.735 377.45 133.385C377.832 133.027 378.023 132.436 378.023 131.612C378.023 130.788 377.832 130.1 377.45 129.548C377.067 128.996 376.561 128.636 375.93 128.467C375.31 128.301 374.808 128.397 374.426 128.754C374.043 129.101 373.852 129.687 373.852 130.511C373.852 131.335 374.043 132.023 374.426 132.575C374.808 133.127 375.315 133.487 375.945 133.656ZM385.313 137.82C384.475 137.595 383.736 137.215 383.095 136.68C382.465 136.147 381.974 135.512 381.622 134.776C381.271 134.029 381.095 133.238 381.095 132.403C381.095 131.569 381.271 130.883 381.622 130.345C381.974 129.808 382.465 129.447 383.095 129.263C383.736 129.071 384.475 129.087 385.313 129.312C386.16 129.539 386.899 129.919 387.53 130.451C388.161 130.974 388.652 131.597 389.003 132.323C389.355 133.049 389.53 133.829 389.53 134.664C389.53 135.498 389.349 136.194 388.988 136.75C388.636 137.298 388.145 137.669 387.514 137.864C386.884 138.059 386.15 138.044 385.313 137.82ZM385.313 136.198C385.726 136.309 386.098 136.302 386.429 136.176C386.76 136.04 387.018 135.799 387.204 135.453C387.39 135.096 387.483 134.645 387.483 134.099C387.483 133.296 387.277 132.61 386.863 132.039C386.46 131.47 385.943 131.102 385.313 130.933C384.682 130.764 384.16 130.854 383.746 131.204C383.333 131.553 383.126 132.129 383.126 132.932C383.126 133.477 383.219 133.979 383.405 134.435C383.602 134.884 383.86 135.263 384.181 135.574C384.511 135.877 384.889 136.085 385.313 136.198ZM395.17 140.461C394.415 140.259 393.8 139.912 393.324 139.421C392.859 138.921 392.57 138.33 392.456 137.647L392.611 137.672V142.906L390.657 142.382V130.904L392.565 131.415V133.261L392.409 133.188C392.554 132.616 392.885 132.223 393.402 132.009C393.919 131.794 394.549 131.786 395.294 131.986C395.997 132.174 396.606 132.514 397.123 133.006C397.651 133.49 398.059 134.086 398.348 134.795C398.638 135.504 398.783 136.287 398.783 137.143C398.783 138.01 398.633 138.724 398.333 139.286C398.033 139.848 397.614 140.233 397.077 140.442C396.539 140.651 395.904 140.658 395.17 140.461ZM394.673 138.658C395.304 138.827 395.805 138.737 396.177 138.387C396.55 138.027 396.736 137.434 396.736 136.61C396.736 135.786 396.544 135.098 396.162 134.546C395.79 133.997 395.288 133.638 394.658 133.469C394.038 133.303 393.536 133.399 393.154 133.756C392.771 134.103 392.58 134.689 392.58 135.513C392.58 136.337 392.771 137.025 393.154 137.577C393.536 138.129 394.043 138.489 394.673 138.658ZM403.362 142.656C402.391 142.396 401.672 141.968 401.207 141.372C400.752 140.769 400.525 139.991 400.525 139.038V131.686L402.494 131.459V139.614C402.494 140.01 402.597 140.332 402.804 140.58C403.011 140.828 403.336 141.012 403.781 141.131C403.957 141.178 404.112 141.209 404.246 141.223C404.391 141.23 404.525 141.229 404.649 141.219V142.792C404.525 142.823 404.35 142.824 404.122 142.795C403.895 142.777 403.641 142.731 403.362 142.656ZM399.005 134.73V133.141L404.649 134.653V136.243L399.005 134.73Z" fill="#2B2B2B"/>
<rect x="0.202436" y="0.263819" width="161.374" height="161.374" rx="22.8439" transform="matrix(0.965926 0.258819 0 1 203.294 26.7357)" fill="white"/>
<rect x="0.202436" y="0.263819" width="161.374" height="161.374" rx="22.8439" transform="matrix(0.965926 0.258819 0 1 203.294 26.7357)" stroke="#AAAAAA" stroke-width="0.419154"/>
<g clip-path="url(#clip1_2877_3592)">
<path d="M263.373 89.4088V121.515L299.554 131.21V99.1035L263.373 89.4088ZM295.678 110.105L293.093 109.412V105.953L280.171 115.868L277.587 112.5L272.418 116.466V119.926L267.25 118.541V113.19L270.591 114.085L277.587 108.717L280.171 112.085L291.266 103.572L287.924 102.676V100.001L295.678 102.078V110.105Z" fill="#2B2B2B"/>
</g>
<path d="M253.784 156.35L257.893 145.893L259.63 146.358L255.769 156.882L253.784 156.35ZM262.204 158.606L258.358 146.017L260.188 146.508L264.281 159.163L262.204 158.606ZM255.908 152.376L262.018 154.013V155.683L255.908 154.046V152.376ZM265.451 159.476V151.289L267.358 151.8V153.726L267.404 153.739V160L265.451 159.476ZM271.002 160.963V155.794C271.002 155.291 270.878 154.878 270.63 154.555C270.382 154.232 270.02 154.006 269.544 153.879C269.131 153.768 268.759 153.765 268.428 153.869C268.107 153.975 267.854 154.175 267.668 154.468C267.492 154.763 267.404 155.135 267.404 155.585L267.203 153.572C267.472 153.045 267.864 152.674 268.381 152.459C268.898 152.234 269.518 152.218 270.242 152.412C271.1 152.642 271.767 153.072 272.242 153.703C272.728 154.336 272.971 155.07 272.971 155.905V161.491L271.002 160.963ZM279.415 163.218C279.363 162.99 279.321 162.743 279.29 162.478C279.27 162.216 279.259 161.903 279.259 161.539L279.197 161.522V157.637C279.197 157.209 279.079 156.856 278.841 156.578C278.613 156.293 278.262 156.086 277.786 155.959C277.321 155.834 276.949 155.825 276.67 155.933C276.401 156.032 276.236 156.239 276.174 156.554L274.298 156.051C274.38 155.314 274.732 154.792 275.352 154.488C275.972 154.183 276.804 154.171 277.848 154.45C278.934 154.741 279.756 155.218 280.314 155.882C280.872 156.534 281.151 157.353 281.151 158.337V162.046C281.151 162.302 281.167 162.569 281.198 162.845C281.239 163.123 281.296 163.422 281.368 163.741L279.415 163.218ZM276.67 162.643C275.874 162.429 275.238 162.056 274.763 161.522C274.298 160.98 274.065 160.361 274.065 159.665C274.065 158.916 274.329 158.393 274.856 158.095C275.383 157.798 276.127 157.703 277.089 157.811L279.554 158.086V159.37L277.414 159.134C276.949 159.084 276.598 159.124 276.36 159.253C276.132 159.384 276.019 159.621 276.019 159.964C276.019 160.274 276.127 160.544 276.344 160.774C276.561 160.992 276.861 161.153 277.244 161.255C277.802 161.405 278.267 161.385 278.639 161.196C279.011 161.007 279.197 160.703 279.197 160.286L279.415 161.58C279.208 162.113 278.867 162.472 278.391 162.654C277.926 162.829 277.352 162.826 276.67 162.643ZM282.82 164.13V152.572L284.774 153.095V164.654L282.82 164.13ZM287.034 168.55L289.081 164.347L289.437 163.832L291.67 158.314L293.748 158.871L289.019 169.082L287.034 168.55ZM288.786 165.648L285.576 156.682L287.701 157.251L290.383 165.322L288.786 165.648ZM294.14 167.163V165.735L298.683 161.012L299.149 161.907L294.28 160.603V159.014L300.622 160.713V162.142L296.156 166.804L295.706 165.994L300.715 167.336V168.925L294.14 167.163ZM305.308 170.316C304.47 170.092 303.736 169.713 303.106 169.18C302.486 168.65 302 168.017 301.648 167.281C301.307 166.547 301.137 165.763 301.137 164.928C301.137 164.094 301.307 163.406 301.648 162.866C302 162.318 302.486 161.951 303.106 161.764C303.726 161.566 304.45 161.578 305.277 161.8C306.062 162.01 306.745 162.364 307.324 162.862C307.902 163.349 308.352 163.94 308.673 164.636C308.993 165.332 309.153 166.087 309.153 166.9C309.153 167.05 309.148 167.187 309.138 167.313C309.127 167.439 309.112 167.563 309.091 167.686L302.346 165.879V164.466L307.587 165.87L307.184 166.148C307.184 165.377 307.013 164.753 306.672 164.277C306.331 163.8 305.856 163.48 305.246 163.316C304.584 163.139 304.057 163.233 303.664 163.599C303.282 163.967 303.09 164.596 303.09 165.484C303.09 166.362 303.282 167.087 303.664 167.66C304.057 168.226 304.61 168.604 305.323 168.795C305.737 168.906 306.099 168.923 306.409 168.845C306.719 168.768 306.946 168.583 307.091 168.29L308.936 168.784C308.678 169.485 308.238 169.978 307.618 170.261C307.008 170.547 306.238 170.566 305.308 170.316Z" fill="#2B2B2B"/>
<rect x="0.202436" y="0.263819" width="161.374" height="161.374" rx="22.8439" transform="matrix(0.965926 0.258819 0 1 101.862 53.4909)" fill="white"/>
<rect x="0.202436" y="0.263819" width="161.374" height="161.374" rx="22.8439" transform="matrix(0.965926 0.258819 0 1 101.862 53.4909)" stroke="#AAAAAA" stroke-width="0.419154"/>
<g clip-path="url(#clip2_2877_3592)">
<path d="M185.202 154.503L187.786 155.195V156.533L172.28 152.378V151.04L174.864 151.733L176.157 148.066L183.91 150.143L185.202 154.503ZM199.416 124.867V152.96L160.65 142.573V114.48L199.416 124.867ZM196.831 126.85L163.235 117.848V140.59L196.831 149.592V126.85ZM195.539 147.908L164.527 139.599V119.532L195.539 127.842V147.908ZM168.403 125.922L178.741 128.692V127.354L168.403 124.584V125.922ZM173.572 136.671L168.403 135.286V136.624L173.572 138.009V136.671ZM183.91 136.766L172.28 133.649V134.987L183.91 138.103V136.766ZM183.91 134.09L172.28 130.974V132.312L183.91 135.428V134.09ZM185.202 131.761L172.28 128.298V129.636L185.202 133.099V131.761Z" fill="#2B2B2B"/>
</g>
<path d="M168.949 187.552V177.648L165.243 176.655V175.001L174.671 177.527V179.181L170.965 178.188V188.092L168.949 187.552ZM177.614 190.035C176.777 189.81 176.043 189.432 175.412 188.899C174.792 188.369 174.306 187.736 173.954 186.999C173.613 186.266 173.443 185.482 173.443 184.647C173.443 183.812 173.613 183.125 173.954 182.585C174.306 182.037 174.792 181.669 175.412 181.482C176.032 181.285 176.756 181.297 177.583 181.518C178.369 181.729 179.051 182.083 179.63 182.58C180.209 183.067 180.658 183.659 180.979 184.354C181.299 185.05 181.459 185.805 181.459 186.618C181.459 186.768 181.454 186.906 181.444 187.032C181.434 187.157 181.418 187.281 181.397 187.404L174.652 185.597V184.184L179.893 185.589L179.49 185.866C179.49 185.095 179.32 184.472 178.978 183.995C178.637 183.518 178.162 183.198 177.552 183.035C176.89 182.858 176.363 182.952 175.97 183.317C175.588 183.686 175.396 184.314 175.396 185.202C175.396 186.08 175.588 186.806 175.97 187.379C176.363 187.944 176.916 188.323 177.629 188.514C178.043 188.625 178.405 188.641 178.715 188.564C179.025 188.486 179.252 188.301 179.397 188.008L181.242 188.503C180.984 189.204 180.545 189.696 179.924 189.979C179.314 190.266 178.544 190.284 177.614 190.035ZM185.68 192.196C184.585 191.902 183.711 191.433 183.06 190.788C182.409 190.131 182.052 189.372 181.99 188.51L183.773 188.988C183.825 189.419 184.016 189.786 184.347 190.089C184.678 190.392 185.122 190.618 185.68 190.767C186.187 190.903 186.564 190.924 186.812 190.83C187.071 190.728 187.2 190.522 187.2 190.211C187.2 189.987 187.128 189.785 186.983 189.607C186.838 189.419 186.564 189.222 186.161 189.018L184.89 188.372C184.021 187.947 183.375 187.474 182.951 186.954C182.538 186.426 182.331 185.851 182.331 185.231C182.331 184.471 182.61 183.952 183.168 183.673C183.737 183.387 184.518 183.376 185.51 183.642C186.492 183.905 187.278 184.335 187.867 184.932C188.466 185.521 188.797 186.203 188.859 186.98L187.076 186.502C187.024 186.156 186.859 185.86 186.58 185.614C186.311 185.371 185.939 185.186 185.463 185.058C185.019 184.939 184.683 184.924 184.455 185.013C184.228 185.091 184.114 185.27 184.114 185.548C184.114 185.762 184.202 185.967 184.378 186.164C184.554 186.35 184.848 186.552 185.262 186.77L186.626 187.457C187.402 187.847 187.986 188.319 188.379 188.874C188.782 189.431 188.983 190.015 188.983 190.625C188.983 191.406 188.694 191.933 188.115 192.206C187.536 192.479 186.725 192.476 185.68 192.196ZM193.545 194.303C192.573 194.043 191.854 193.615 191.389 193.019C190.934 192.416 190.707 191.638 190.707 190.685V183.333L192.676 183.106V191.261C192.676 191.657 192.78 191.979 192.986 192.227C193.193 192.475 193.519 192.659 193.963 192.778C194.139 192.825 194.294 192.856 194.429 192.871C194.573 192.877 194.708 192.876 194.832 192.866V194.439C194.708 194.47 194.532 194.471 194.304 194.443C194.077 194.425 193.824 194.378 193.545 194.303ZM189.187 186.377V184.788L194.832 186.3V187.89L189.187 186.377Z" fill="#2B2B2B"/>
<rect x="0.202436" y="0.263819" width="161.374" height="161.374" rx="22.8439" transform="matrix(0.965926 0.258819 0 1 0.430726 80.2463)" fill="white"/>
<rect x="0.202436" y="0.263819" width="161.374" height="161.374" rx="22.8439" transform="matrix(0.965926 0.258819 0 1 0.430726 80.2463)" stroke="#AAAAAA" stroke-width="0.419154"/>
<g clip-path="url(#clip3_2877_3592)">
<path d="M86.353 145.831L69.5547 141.33V144.005L86.353 148.506V145.831Z" fill="#2B2B2B"/>
<path d="M89.7101 162.781C86.7639 159.45 85.0608 155.229 85.0608 151.258V149.498L70.8468 145.689V147.45C70.8468 151.42 69.1437 154.728 66.1976 156.481L63.0938 158.327L77.3077 183.54V168.758C75.8334 168.052 74.7234 166.406 74.7234 164.788C74.7234 162.94 76.1693 161.831 77.9538 162.309C79.7383 162.787 81.1843 164.671 81.1843 166.519C81.1843 168.136 80.0743 169.189 78.5999 169.104V183.886L92.8139 166.291L89.7101 162.781Z" fill="#2B2B2B"/>
<path d="M86.353 145.831L69.5547 141.33V144.005L86.353 148.506V145.831Z" fill="#2B2B2B"/>
<path d="M89.7101 162.781C86.7639 159.45 85.0608 155.229 85.0608 151.258V149.498L70.8468 145.689V147.45C70.8468 151.42 69.1437 154.728 66.1976 156.481L63.0938 158.327L77.3077 183.54V168.758C75.8334 168.052 74.7234 166.406 74.7234 164.788C74.7234 162.94 76.1693 161.831 77.9538 162.309C79.7383 162.787 81.1843 164.671 81.1843 166.519C81.1843 168.136 80.0743 169.189 78.5999 169.104V183.886L92.8139 166.291L89.7101 162.781Z" fill="#2B2B2B"/>
</g>
<path d="M55.5887 211.111V209.442L58.4729 210.215C59.3205 210.442 60.0442 210.459 60.6437 210.267C61.2433 210.074 61.6981 209.704 62.0083 209.155C62.3287 208.61 62.489 207.93 62.489 207.117C62.489 206.314 62.3287 205.565 62.0083 204.869C61.6981 204.176 61.2433 203.583 60.6437 203.091C60.0545 202.59 59.3309 202.225 58.4729 201.995L55.6197 201.231V199.561L58.4729 200.326C59.6927 200.653 60.7574 201.173 61.6671 201.888C62.5768 202.603 63.2798 203.46 63.776 204.46C64.2825 205.452 64.5358 206.531 64.5358 207.697C64.5358 208.864 64.2825 209.818 63.776 210.56C63.2694 211.291 62.5613 211.776 61.6516 212.014C60.7523 212.254 59.6978 212.212 58.4884 211.888L55.5887 211.111ZM54.3637 210.783V199.225L56.3795 199.765V211.323L54.3637 210.783ZM69.342 214.957C68.5046 214.733 67.7707 214.354 67.1401 213.821C66.5198 213.291 66.034 212.658 65.6825 211.922C65.3414 211.188 65.1708 210.404 65.1708 209.569C65.1708 208.734 65.3414 208.047 65.6825 207.507C66.034 206.959 66.5198 206.592 67.1401 206.405C67.7603 206.207 68.484 206.219 69.3109 206.441C70.0966 206.651 70.7789 207.005 71.3578 207.503C71.9367 207.99 72.3863 208.581 72.7068 209.277C73.0273 209.973 73.1875 210.727 73.1875 211.541C73.1875 211.691 73.1823 211.828 73.172 211.954C73.1616 212.08 73.1461 212.204 73.1255 212.327L66.3803 210.519V209.107L71.6214 210.511L71.2182 210.788C71.2182 210.018 71.0476 209.394 70.7065 208.917C70.3654 208.441 69.8898 208.121 69.2799 207.957C68.6183 207.78 68.0911 207.874 67.6983 208.24C67.3158 208.608 67.1246 209.237 67.1246 210.125C67.1246 211.002 67.3158 211.728 67.6983 212.301C68.0911 212.867 68.6442 213.245 69.3575 213.436C69.771 213.547 70.1328 213.564 70.4429 213.486C70.753 213.409 70.9804 213.224 71.1252 212.931L72.9704 213.425C72.712 214.126 72.2726 214.619 71.6524 214.902C71.0425 215.188 70.2723 215.206 69.342 214.957ZM77.4086 217.118C76.3128 216.825 75.4393 216.355 74.788 215.71C74.1368 215.054 73.7801 214.295 73.7181 213.433L75.5013 213.911C75.553 214.342 75.7442 214.709 76.075 215.011C76.4058 215.314 76.8503 215.54 77.4086 215.69C77.9151 215.825 78.2924 215.846 78.5405 215.752C78.7989 215.65 78.9282 215.444 78.9282 215.134C78.9282 214.909 78.8558 214.708 78.7111 214.53C78.5664 214.341 78.2924 214.145 77.8892 213.94L76.6177 213.295C75.7494 212.869 75.1033 212.397 74.6795 211.876C74.266 211.348 74.0592 210.774 74.0592 210.153C74.0592 209.393 74.3383 208.874 74.8966 208.595C75.4651 208.309 76.2456 208.299 77.238 208.565C78.22 208.828 79.0057 209.258 79.5949 209.854C80.1945 210.443 80.5253 211.126 80.5873 211.902L78.8041 211.424C78.7524 211.079 78.587 210.783 78.3079 210.537C78.0391 210.294 77.667 210.108 77.1915 209.981C76.747 209.862 76.411 209.847 76.1836 209.936C75.9561 210.014 75.8424 210.192 75.8424 210.47C75.8424 210.684 75.9303 210.89 76.106 211.087C76.2818 211.273 76.5764 211.475 76.9899 211.693L78.3544 212.379C79.1297 212.769 79.7138 213.241 80.1066 213.796C80.5098 214.354 80.7114 214.937 80.7114 215.547C80.7114 216.329 80.4219 216.856 79.843 217.129C79.2641 217.402 78.4526 217.398 77.4086 217.118ZM81.7824 218.13V209.943L83.7362 210.466V218.653L81.7824 218.13ZM81.6894 208.569V206.338L83.8137 206.907V209.139L81.6894 208.569ZM88.913 223.492C87.869 223.212 87.011 222.747 86.339 222.096C85.6774 221.448 85.2846 220.706 85.1606 219.87L87.0213 220.368C87.1143 220.672 87.3159 220.94 87.626 221.173C87.9465 221.419 88.36 221.61 88.8665 221.746C89.6005 221.942 90.1432 221.917 90.4947 221.668C90.8461 221.431 91.0219 220.97 91.0219 220.285V218.519L91.1614 218.588C91.0374 219.154 90.7221 219.551 90.2156 219.78C89.709 219.997 89.0888 220.007 88.3548 219.811C87.6519 219.622 87.0368 219.286 86.5096 218.803C85.9927 218.322 85.5896 217.737 85.3001 217.05C85.0107 216.352 84.8659 215.59 84.8659 214.766C84.8659 213.932 85.0158 213.244 85.3156 212.704C85.6154 212.163 86.0341 211.794 86.5716 211.595C87.1195 211.389 87.7553 211.383 88.4789 211.577C89.2232 211.776 89.8331 212.127 90.3086 212.629C90.7945 213.123 91.0942 213.711 91.208 214.395L91.0839 214.378V212.435L92.9912 212.946V220.796C92.9912 221.963 92.6242 222.785 91.8902 223.262C91.1666 223.753 90.1742 223.83 88.913 223.492ZM88.9906 218.376C89.6212 218.545 90.1225 218.46 90.4947 218.121C90.8772 217.774 91.0684 217.199 91.0684 216.396C91.0684 215.593 90.8772 214.921 90.4947 214.38C90.1122 213.839 89.6057 213.484 88.9751 213.315C88.3548 213.149 87.8535 213.239 87.471 213.586C87.0885 213.922 86.8972 214.492 86.8972 215.295C86.8972 216.097 87.0885 216.769 87.471 217.31C87.8535 217.852 88.36 218.207 88.9906 218.376ZM94.7603 221.607V213.42L96.6676 213.931V215.858L96.7141 215.87V222.131L94.7603 221.607ZM100.312 223.095V217.926C100.312 217.423 100.187 217.01 99.9394 216.686C99.6913 216.363 99.3295 216.137 98.854 216.01C98.4405 215.899 98.0683 215.896 97.7375 216C97.417 216.107 97.1638 216.306 96.9777 216.599C96.802 216.894 96.7141 217.267 96.7141 217.716L96.5125 215.704C96.7813 215.176 97.1741 214.805 97.691 214.591C98.2079 214.365 98.8281 214.35 99.5517 214.544C100.41 214.773 101.077 215.204 101.552 215.834C102.038 216.467 102.281 217.201 102.281 218.036V223.622L100.312 223.095Z" fill="#2B2B2B"/>
<defs>
<clipPath id="clip0_2877_3592">
<rect width="42.8084" height="42.8084" fill="white" transform="matrix(0.965926 0.258819 0 1 362.221 56.6099)"/>
</clipPath>
<clipPath id="clip1_2877_3592">
<rect width="42.8084" height="42.8084" fill="white" transform="matrix(0.965926 0.258819 0 1 260.789 83.3651)"/>
</clipPath>
<clipPath id="clip2_2877_3592">
<rect width="42.8084" height="42.8084" fill="white" transform="matrix(0.965926 0.258819 0 1 159.357 110.121)"/>
</clipPath>
<clipPath id="clip3_2877_3592">
<rect width="42.8084" height="42.8084" fill="white" transform="matrix(0.965926 0.258819 0 1 57.9258 136.876)"/>
</clipPath>
</defs>
</svg>
