<svg width="378" height="483" viewBox="0 0 378 483" fill="none" xmlns="http://www.w3.org/2000/svg">
<rect x="149" y="0.488037" width="80" height="80" rx="40" fill="white"/>
<rect x="149" y="0.488037" width="80" height="80" rx="40" stroke="#AAAAAA" stroke-width="0.5"/>
<path d="M164.699 49V31H170.481V49H164.699Z" fill="#2B2B2B"/>
<path d="M186.955 49L179.394 40.2616V49H174.083V31H179.132L186.694 39.8692V31H192.005V49H186.955Z" fill="#2B2B2B"/>
<path d="M200.246 49L193.862 31H200.037L203.647 43.0349H203.752L207.389 31H213.301L206.944 49H200.246Z" fill="#2B2B2B"/>
<path d="M178.061 91.4274C177.475 90.8416 176.525 90.8416 175.939 91.4274L166.393 100.973C165.808 101.559 165.808 102.509 166.393 103.095C166.979 103.68 167.929 103.68 168.515 103.095L177 94.6094L185.485 103.095C186.071 103.68 187.021 103.68 187.607 103.095C188.192 102.509 188.192 101.559 187.607 100.973L178.061 91.4274ZM175.5 172.488C175.5 173.316 176.172 173.988 177 173.988C177.828 173.988 178.5 173.316 178.5 172.488L175.5 172.488ZM177 92.488L175.5 92.488L175.5 172.488L177 172.488L178.5 172.488L178.5 92.488L177 92.488Z" fill="url(#paint0_linear_2877_3625)"/>
<path d="M202.061 173.549C201.475 174.134 200.525 174.134 199.939 173.549L190.393 164.003C189.808 163.417 189.808 162.467 190.393 161.881C190.979 161.296 191.929 161.296 192.515 161.881L201 170.367L209.485 161.881C210.071 161.296 211.021 161.296 211.607 161.881C212.192 162.467 212.192 163.417 211.607 164.003L202.061 173.549ZM199.5 92.488C199.5 91.6596 200.172 90.988 201 90.988C201.828 90.988 202.5 91.6596 202.5 92.488L199.5 92.488ZM201 172.488L199.5 172.488L199.5 92.488L201 92.488L202.5 92.488L202.5 172.488L201 172.488Z" fill="url(#paint1_linear_2877_3625)"/>
<rect x="149" y="184.488" width="80" height="80" rx="18" fill="black"/>
<path d="M151 202.488C151 193.651 158.163 186.488 167 186.488H211C219.837 186.488 227 193.651 227 202.488V246.488C227 255.325 219.837 262.488 211 262.488H167C158.163 262.488 151 255.325 151 246.488V202.488Z" fill="url(#paint2_linear_2877_3625)"/>
<path d="M150.5 202.488C150.5 193.375 157.887 185.988 167 185.988H211C220.113 185.988 227.5 193.375 227.5 202.488H226.5C226.5 193.928 219.56 186.988 211 186.988H167C158.44 186.988 151.5 193.928 151.5 202.488H150.5ZM227 262.488H151H227ZM167 262.488C157.887 262.488 150.5 255.101 150.5 245.988V202.488C150.5 193.375 157.887 185.988 167 185.988V186.988C158.44 186.988 151.5 193.928 151.5 202.488V246.488C151.5 255.325 158.44 262.488 167 262.488ZM211 185.988C220.113 185.988 227.5 193.375 227.5 202.488V245.988C227.5 255.101 220.113 262.488 211 262.488C219.56 262.488 226.5 255.325 226.5 246.488V202.488C226.5 193.928 219.56 186.988 211 186.988V185.988Z" fill="#666666"/>
<path d="M211.75 222.738C212.8 222.738 213.5 222.038 213.5 220.988C213.5 219.938 212.8 219.238 211.75 219.238H206.5V215.738H211.75C212.8 215.738 213.5 215.038 213.5 213.988C213.5 212.938 212.8 212.238 211.75 212.238H206.5C206.5 209.263 204.225 206.988 201.25 206.988V201.738C201.25 200.688 200.55 199.988 199.5 199.988C198.45 199.988 197.75 200.688 197.75 201.738V206.988H194.25V201.738C194.25 200.688 193.55 199.988 192.5 199.988C191.45 199.988 190.75 200.688 190.75 201.738V206.988H187.25V201.738C187.25 200.688 186.55 199.988 185.5 199.988C184.45 199.988 183.75 200.688 183.75 201.738V206.988H180.25V201.738C180.25 200.688 179.55 199.988 178.5 199.988C177.45 199.988 176.75 200.688 176.75 201.738V206.988C173.775 206.988 171.5 209.263 171.5 212.238H166.25C165.2 212.238 164.5 212.938 164.5 213.988C164.5 215.038 165.2 215.738 166.25 215.738H171.5V219.238H166.25C165.2 219.238 164.5 219.938 164.5 220.988C164.5 222.038 165.2 222.738 166.25 222.738H171.5V226.238H166.25C165.2 226.238 164.5 226.938 164.5 227.988C164.5 229.038 165.2 229.738 166.25 229.738H171.5V233.238H166.25C165.2 233.238 164.5 233.938 164.5 234.988C164.5 236.038 165.2 236.738 166.25 236.738H171.5C171.5 239.713 173.775 241.988 176.75 241.988V247.238C176.75 248.288 177.45 248.988 178.5 248.988C179.55 248.988 180.25 248.288 180.25 247.238V241.988H183.75V247.238C183.75 248.288 184.45 248.988 185.5 248.988C186.55 248.988 187.25 248.288 187.25 247.238V241.988H190.75V247.238C190.75 248.288 191.45 248.988 192.5 248.988C193.55 248.988 194.25 248.288 194.25 247.238V241.988H197.75V247.238C197.75 248.288 198.45 248.988 199.5 248.988C200.55 248.988 201.25 248.288 201.25 247.238V241.988C204.225 241.988 206.5 239.713 206.5 236.738H211.75C212.8 236.738 213.5 236.038 213.5 234.988C213.5 233.938 212.8 233.238 211.75 233.238H206.5V229.738H211.75C212.8 229.738 213.5 229.038 213.5 227.988C213.5 226.938 212.8 226.238 211.75 226.238H206.5V222.738H211.75ZM199.5 229.738C199.5 232.713 197.225 234.988 194.25 234.988H183.75C180.775 234.988 178.5 232.713 178.5 229.738V219.238C178.5 216.263 180.775 213.988 183.75 213.988H194.25C197.225 213.988 199.5 216.263 199.5 219.238V229.738Z" fill="#F9F9F9"/>
<path d="M25.25 401.988C25.25 406.406 28.8317 409.988 33.25 409.988C37.6683 409.988 41.25 406.406 41.25 401.988C41.25 397.57 37.6683 393.988 33.25 393.988C28.8317 393.988 25.25 397.57 25.25 401.988ZM46.3542 339.604L47.0352 340.94L46.3542 339.604ZM35.8658 350.092L34.5293 349.411L35.8658 350.092ZM186.134 323.884L184.798 323.203L186.134 323.884ZM175.646 334.372L176.327 335.709L175.646 334.372ZM188.75 276.488H187.25V298.588H188.75H190.25V276.488H188.75ZM150.35 336.988V335.488H71.65V336.988V338.488H150.35V336.988ZM33.25 375.388H31.75V401.988H33.25H34.75V375.388H33.25ZM71.65 336.988V335.488C64.9541 335.488 59.842 335.487 55.7647 335.82C51.6699 336.155 48.4869 336.834 45.6732 338.267L46.3542 339.604L47.0352 340.94C49.3555 339.758 52.0997 339.129 56.009 338.81C59.9358 338.489 64.9046 338.488 71.65 338.488V336.988ZM33.25 375.388H34.75C34.75 368.643 34.7512 363.674 35.072 359.747C35.3914 355.838 36.0201 353.093 37.2024 350.773L35.8658 350.092L34.5293 349.411C33.0957 352.225 32.4165 355.408 32.082 359.503C31.7488 363.58 31.75 368.692 31.75 375.388H33.25ZM46.3542 339.604L45.6732 338.267C40.8751 340.712 36.9741 344.613 34.5293 349.411L35.8658 350.092L37.2024 350.773C39.3595 346.54 42.8016 343.098 47.0352 340.94L46.3542 339.604ZM188.75 298.588H187.25C187.25 305.333 187.249 310.302 186.928 314.229C186.609 318.138 185.98 320.883 184.798 323.203L186.134 323.884L187.471 324.565C188.904 321.751 189.583 318.568 189.918 314.473C190.251 310.396 190.25 305.284 190.25 298.588H188.75ZM150.35 336.988V338.488C157.046 338.488 162.158 338.489 166.235 338.156C170.33 337.822 173.513 337.142 176.327 335.709L175.646 334.372L174.965 333.036C172.645 334.218 169.9 334.847 165.991 335.166C162.064 335.487 157.095 335.488 150.35 335.488V336.988ZM186.134 323.884L184.798 323.203C182.641 327.436 179.198 330.879 174.965 333.036L175.646 334.372L176.327 335.709C181.125 333.264 185.026 329.363 187.471 324.565L186.134 323.884Z" fill="url(#paint3_linear_2877_3625)"/>
<path d="M352.75 401.988C352.75 406.406 349.168 409.988 344.75 409.988C340.332 409.988 336.75 406.406 336.75 401.988C336.75 397.57 340.332 393.988 344.75 393.988C349.168 393.988 352.75 397.57 352.75 401.988ZM331.646 339.604L330.965 340.94L331.646 339.604ZM342.134 350.092L343.471 349.411L342.134 350.092ZM191.866 323.884L193.202 323.203L191.866 323.884ZM202.354 334.372L201.673 335.709L202.354 334.372ZM189.25 276.488H190.75V298.588H189.25H187.75V276.488H189.25ZM227.65 336.988V335.488H306.35V336.988V338.488H227.65V336.988ZM344.75 375.388H346.25V401.988H344.75H343.25V375.388H344.75ZM306.35 336.988V335.488C313.046 335.488 318.158 335.487 322.235 335.82C326.33 336.155 329.513 336.834 332.327 338.267L331.646 339.604L330.965 340.94C328.645 339.758 325.9 339.129 321.991 338.81C318.064 338.489 313.095 338.488 306.35 338.488V336.988ZM344.75 375.388H343.25C343.25 368.643 343.249 363.674 342.928 359.747C342.609 355.838 341.98 353.093 340.798 350.773L342.134 350.092L343.471 349.411C344.904 352.225 345.583 355.408 345.918 359.503C346.251 363.58 346.25 368.692 346.25 375.388H344.75ZM331.646 339.604L332.327 338.267C337.125 340.712 341.026 344.613 343.471 349.411L342.134 350.092L340.798 350.773C338.64 346.54 335.198 343.098 330.965 340.94L331.646 339.604ZM189.25 298.588H190.75C190.75 305.333 190.751 310.302 191.072 314.229C191.391 318.138 192.02 320.883 193.202 323.203L191.866 323.884L190.529 324.565C189.096 321.751 188.417 318.568 188.082 314.473C187.749 310.396 187.75 305.284 187.75 298.588H189.25ZM227.65 336.988V338.488C220.954 338.488 215.842 338.489 211.765 338.156C207.67 337.822 204.487 337.142 201.673 335.709L202.354 334.372L203.035 333.036C205.355 334.218 208.1 334.847 212.009 335.166C215.936 335.487 220.905 335.488 227.65 335.488V336.988ZM191.866 323.884L193.202 323.203C195.359 327.436 198.802 330.879 203.035 333.036L202.354 334.372L201.673 335.709C196.875 333.264 192.974 329.363 190.529 324.565L191.866 323.884Z" fill="url(#paint4_linear_2877_3625)"/>
<path d="M127.25 401.988C127.25 406.406 130.832 409.988 135.25 409.988C139.668 409.988 143.25 406.406 143.25 401.988C143.25 397.57 139.668 393.988 135.25 393.988C130.832 393.988 127.25 397.57 127.25 401.988ZM157.093 337.085L156.958 335.591L157.093 337.085ZM188.653 315.145L187.159 315.01L188.653 315.145ZM166.907 336.891L166.772 335.397L166.907 336.891ZM188.75 276.488H187.25V310.238H188.75H190.25V276.488H188.75ZM135.25 363.738H133.75V401.988H135.25H136.75V363.738H135.25ZM162 336.988V335.488C159.479 335.488 158.119 335.487 156.958 335.591L157.093 337.085L157.228 338.579C158.22 338.49 159.414 338.488 162 338.488V336.988ZM135.25 363.738H136.75C136.75 361.152 136.752 359.958 136.841 358.966L135.347 358.831L133.853 358.696C133.748 359.857 133.75 361.217 133.75 363.738H135.25ZM157.093 337.085L156.958 335.591C144.686 336.699 134.961 346.424 133.853 358.696L135.347 358.831L136.841 358.966C137.818 348.137 146.399 339.556 157.228 338.579L157.093 337.085ZM188.75 310.238H187.25C187.25 312.825 187.248 314.018 187.159 315.01L188.653 315.145L190.147 315.28C190.252 314.119 190.25 312.759 190.25 310.238H188.75ZM162 336.988V338.488C164.521 338.488 165.881 338.49 167.042 338.385L166.907 336.891L166.772 335.397C165.78 335.487 164.586 335.488 162 335.488V336.988ZM188.653 315.145L187.159 315.01C186.182 325.839 177.601 334.42 166.772 335.397L166.907 336.891L167.042 338.385C179.314 337.277 189.039 327.552 190.147 315.28L188.653 315.145Z" fill="url(#paint5_linear_2877_3625)"/>
<path d="M250.75 401.988C250.75 406.406 247.168 409.988 242.75 409.988C238.332 409.988 234.75 406.406 234.75 401.988C234.75 397.57 238.332 393.988 242.75 393.988C247.168 393.988 250.75 397.57 250.75 401.988ZM220.907 337.085L221.042 335.591L220.907 337.085ZM189.347 315.145L190.841 315.01L189.347 315.145ZM211.093 336.891L211.228 335.397L211.093 336.891ZM189.25 276.488H190.75V310.238H189.25H187.75V276.488H189.25ZM242.75 363.738H244.25V401.988H242.75H241.25V363.738H242.75ZM216 336.988V335.488C218.521 335.488 219.881 335.487 221.042 335.591L220.907 337.085L220.772 338.579C219.78 338.49 218.586 338.488 216 338.488V336.988ZM242.75 363.738H241.25C241.25 361.152 241.248 359.958 241.159 358.966L242.653 358.831L244.147 358.696C244.252 359.857 244.25 361.217 244.25 363.738H242.75ZM220.907 337.085L221.042 335.591C233.314 336.699 243.039 346.424 244.147 358.696L242.653 358.831L241.159 358.966C240.182 348.137 231.601 339.556 220.772 338.579L220.907 337.085ZM189.25 310.238H190.75C190.75 312.825 190.752 314.018 190.841 315.01L189.347 315.145L187.853 315.28C187.748 314.119 187.75 312.759 187.75 310.238H189.25ZM216 336.988V338.488C213.479 338.488 212.119 338.49 210.958 338.385L211.093 336.891L211.228 335.397C212.22 335.487 213.414 335.488 216 335.488V336.988ZM189.347 315.145L190.841 315.01C191.818 325.839 200.399 334.42 211.228 335.397L211.093 336.891L210.958 338.385C198.686 337.277 188.961 327.552 187.853 315.28L189.347 315.145Z" fill="url(#paint6_linear_2877_3625)"/>
<rect x="1" y="417.988" width="64" height="64" rx="12" fill="white"/>
<rect x="1" y="417.988" width="64" height="64" rx="12" stroke="#AAAAAA" stroke-width="0.5"/>
<g clip-path="url(#clip0_2877_3625)">
<path d="M53.7959 440.179H49.1747V426.135L34.1559 438.843V426.315H31.8451V438.708L17.9813 426V440.179H12.2051V460.974H17.9815V474L31.8455 461.282V473.683H34.1563V461.589L48.0199 473.95V460.974H53.7963L53.7959 440.179ZM46.8645 431.117V440.179H36.1545L46.8645 431.117ZM20.2921 431.252L30.0303 440.179H20.2921V431.252ZM14.5157 458.664V442.49H30.2109L17.9811 454.719V458.664H14.5157ZM20.2921 468.745V460.974L20.2923 455.677L31.8449 444.124V458.146L20.2921 468.745ZM45.7093 468.794L34.1561 458.492V444.123L45.7093 455.677V468.794ZM51.4857 458.664H48.0197V454.719L35.7901 442.49H51.4857V458.664Z" fill="black"/>
</g>
<rect x="105" y="417.988" width="64" height="64" rx="12" fill="white"/>
<rect x="105" y="417.988" width="64" height="64" rx="12" stroke="#AAAAAA" stroke-width="0.5"/>
<g clip-path="url(#clip1_2877_3625)">
<path d="M163.44 433.418C162.857 433.131 162.606 433.678 162.265 433.957C162.149 434.046 162.05 434.163 161.951 434.27C161.1 435.185 160.105 435.787 158.804 435.715C156.904 435.607 155.281 436.208 153.846 437.671C153.541 435.867 152.528 434.791 150.986 434.1C150.179 433.741 149.363 433.382 148.799 432.602C148.404 432.045 148.296 431.426 148.099 430.816C147.974 430.448 147.848 430.072 147.427 430.009C146.969 429.937 146.79 430.323 146.611 430.646C145.894 431.965 145.616 433.418 145.642 434.89C145.705 438.2 147.095 440.838 149.856 442.713C150.17 442.928 150.251 443.143 150.152 443.458C149.964 444.104 149.74 444.732 149.543 445.378C149.417 445.79 149.229 445.88 148.789 445.7C147.274 445.064 145.965 444.122 144.809 442.982C142.845 441.071 141.07 438.963 138.855 437.312C138.335 436.926 137.815 436.567 137.277 436.226C135.018 434.019 137.573 432.207 138.165 431.992C138.783 431.767 138.38 430.996 136.381 431.005C134.381 431.014 132.552 431.687 130.221 432.584C129.88 432.718 129.522 432.817 129.154 432.898C127.038 432.494 124.842 432.404 122.546 432.665C118.225 433.149 114.773 435.204 112.236 438.712C109.187 442.928 108.47 447.719 109.349 452.717C110.272 457.983 112.944 462.343 117.05 465.753C121.309 469.287 126.214 471.019 131.808 470.687C135.206 470.49 138.99 470.032 143.258 466.399C144.333 466.937 145.463 467.152 147.337 467.314C148.781 467.448 150.17 467.242 151.246 467.018C152.932 466.659 152.815 465.089 152.206 464.802C147.265 462.487 148.35 463.429 147.364 462.666C149.874 459.679 153.658 456.574 155.137 446.517C155.254 445.719 155.155 445.216 155.137 444.57C155.128 444.175 155.218 444.023 155.666 443.978C156.904 443.834 158.105 443.494 159.208 442.883C162.409 441.125 163.7 438.236 164.005 434.773C164.05 434.244 163.996 433.696 163.44 433.418ZM135.547 464.586C130.759 460.8 128.437 459.553 127.478 459.607C126.581 459.661 126.743 460.693 126.94 461.366C127.146 462.029 127.415 462.487 127.791 463.07C128.051 463.456 128.231 464.03 127.532 464.461C125.989 465.421 123.309 464.138 123.183 464.075C120.063 462.227 117.454 459.786 115.616 456.449C113.841 453.237 112.81 449.792 112.639 446.113C112.594 445.225 112.854 444.911 113.733 444.75C114.89 444.534 116.082 444.489 117.239 444.66C122.125 445.378 126.285 447.576 129.773 451.057C131.763 453.039 133.27 455.408 134.821 457.723C136.47 460.181 138.246 462.523 140.505 464.443C141.303 465.116 141.94 465.627 142.549 466.004C140.711 466.21 137.645 466.255 135.547 464.586ZM137.842 449.738C137.842 449.343 138.156 449.029 138.551 449.029C138.64 449.029 138.721 449.047 138.793 449.074C138.891 449.11 138.981 449.164 139.053 449.244C139.178 449.37 139.25 449.549 139.25 449.738C139.25 450.133 138.936 450.447 138.542 450.447C138.147 450.447 137.842 450.133 137.842 449.738ZM144.97 453.416C144.513 453.605 144.056 453.766 143.616 453.784C142.935 453.82 142.191 453.542 141.787 453.201C141.16 452.672 140.711 452.376 140.523 451.452C140.442 451.057 140.487 450.447 140.559 450.097C140.72 449.343 140.541 448.859 140.012 448.419C139.582 448.06 139.035 447.961 138.434 447.961C138.21 447.961 138.004 447.863 137.851 447.782C137.6 447.656 137.394 447.342 137.591 446.957C137.654 446.831 137.959 446.526 138.031 446.472C138.847 446.006 139.788 446.158 140.658 446.508C141.465 446.84 142.074 447.45 142.953 448.311C143.85 449.352 144.011 449.639 144.522 450.42C144.926 451.03 145.293 451.658 145.544 452.376C145.697 452.824 145.499 453.192 144.97 453.416Z" fill="#4D6BFE"/>
</g>
<rect x="209" y="417.988" width="64" height="64" rx="12" fill="white"/>
<rect x="209" y="417.988" width="64" height="64" rx="12" stroke="#AAAAAA" stroke-width="0.5"/>
<g clip-path="url(#clip2_2877_3625)">
<path d="M226.569 458.064L235.782 452.911L235.936 452.462L235.782 452.214H235.331L233.79 452.119L228.525 451.978L223.96 451.789L219.537 451.552L218.422 451.316L217.379 449.945L217.486 449.259L218.422 448.633L219.762 448.751L222.727 448.952L227.173 449.259L230.399 449.449L235.177 449.945H235.936L236.043 449.638L235.782 449.449L235.58 449.259L230.98 446.151L225.999 442.866L223.391 440.975L221.98 440.018L221.268 439.119L220.96 437.158L222.241 435.751L223.96 435.869L224.399 435.988L226.142 437.323L229.865 440.195L234.727 443.764L235.438 444.355L235.723 444.154L235.758 444.012L235.438 443.48L232.794 438.718L229.972 433.872L228.715 431.863L228.383 430.658C228.264 430.161 228.181 429.748 228.181 429.239L229.64 427.266L230.446 427.006L232.391 427.266L233.209 427.975L234.418 430.729L236.375 435.066L239.411 440.963L240.3 442.712L240.774 444.331L240.952 444.828H241.26V444.544L241.509 441.223L241.972 437.146L242.422 431.899L242.577 430.421L243.312 428.649L244.77 427.691L245.909 428.235L246.845 429.57L246.715 430.433L246.158 434.038L245.067 439.687L244.355 443.469H244.77L245.245 442.996L247.165 440.455L250.391 436.437L251.814 434.841L253.474 433.08L254.541 432.241H256.557L258.039 434.439L257.375 436.709L255.3 439.332L253.58 441.554L251.114 444.863L249.573 447.51L249.715 447.723L250.082 447.688L255.656 446.506L258.667 445.962L262.26 445.348L263.885 446.104L264.063 446.872L263.422 448.444L259.58 449.389L255.075 450.288L248.363 451.871L248.28 451.93L248.375 452.049L251.399 452.332L252.691 452.403H255.857L261.75 452.84L263.292 453.857L264.217 455.098L264.063 456.043L261.691 457.249L258.49 456.492L251.019 454.719L248.458 454.081H248.102V454.294L250.237 456.374L254.15 459.896L259.047 464.434L259.296 465.557L258.667 466.443L258.003 466.349L253.699 463.122L252.039 461.669L248.28 458.513H248.031V458.844L248.897 460.109L253.474 466.963L253.711 469.067L253.379 469.752L252.193 470.166L250.889 469.929L248.209 466.183L245.446 461.964L243.217 458.182L242.944 458.336L241.628 472.459L241.011 473.179L239.588 473.723L238.403 472.825L237.774 471.371L238.403 468.499L239.162 464.753L239.778 461.775L240.335 458.076L240.667 456.847L240.644 456.764L240.371 456.799L237.573 460.629L233.316 466.36L229.948 469.953L229.142 470.272L227.743 469.551L227.873 468.263L228.656 467.117L233.316 461.208L236.126 457.544L237.94 455.429L237.928 455.121H237.822L225.442 463.134L223.237 463.418L222.288 462.531L222.407 461.078L222.857 460.605L226.58 458.052L226.569 458.064Z" fill="#D97757"/>
</g>
<rect x="313" y="417.988" width="64" height="64" rx="12" fill="white"/>
<rect x="313" y="417.988" width="64" height="64" rx="12" stroke="#AAAAAA" stroke-width="0.5"/>
<mask id="mask0_2877_3625" style="mask-type:luminance" maskUnits="userSpaceOnUse" x="321" y="425" width="49" height="49">
<path d="M369.432 426H321V474H369.432V426Z" fill="white"/>
</mask>
<g mask="url(#mask0_2877_3625)">
<path d="M339.576 443.472V438.912C339.576 438.528 339.72 438.239 340.056 438.048L349.224 432.768C350.472 432.048 351.96 431.712 353.496 431.712C359.256 431.712 362.904 436.176 362.904 440.928C362.904 441.264 362.904 441.648 362.856 442.032L353.352 436.464C352.776 436.128 352.2 436.128 351.624 436.464L339.576 443.472ZM360.984 461.232V450.336C360.984 449.663 360.696 449.183 360.12 448.848L348.072 441.84L352.008 439.583C352.344 439.392 352.632 439.392 352.968 439.583L362.136 444.863C364.776 446.4 366.552 449.663 366.552 452.831C366.552 456.479 364.392 459.839 360.984 461.231V461.232ZM336.744 451.632L332.808 449.328C332.472 449.136 332.328 448.848 332.328 448.464V437.904C332.328 432.768 336.264 428.88 341.592 428.88C343.608 428.88 345.48 429.552 347.064 430.752L337.608 436.224C337.033 436.56 336.744 437.04 336.744 437.712V451.632L336.744 451.632ZM345.216 456.528L339.576 453.36V446.64L345.216 443.472L350.856 446.64V453.36L345.216 456.528ZM348.84 471.12C346.824 471.12 344.952 470.448 343.368 469.248L352.824 463.776C353.4 463.44 353.688 462.96 353.688 462.288V448.368L357.672 450.672C358.008 450.863 358.152 451.151 358.152 451.536V462.095C358.152 467.231 354.168 471.12 348.84 471.12V471.12ZM337.464 460.416L328.296 455.136C325.655 453.6 323.88 450.336 323.88 447.168C323.88 443.472 326.088 440.16 329.496 438.768V449.712C329.496 450.384 329.784 450.864 330.36 451.2L342.36 458.16L338.424 460.416C338.088 460.608 337.8 460.608 337.464 460.416ZM336.936 468.288C331.512 468.288 327.528 464.208 327.528 459.168C327.528 458.784 327.576 458.4 327.624 458.016L337.08 463.488C337.656 463.824 338.232 463.824 338.808 463.488L350.856 456.528V461.088C350.856 461.472 350.712 461.76 350.376 461.952L341.208 467.232C339.96 467.952 338.472 468.288 336.936 468.288H336.936ZM348.84 474C354.648 474 359.496 469.872 360.6 464.4C365.976 463.008 369.432 457.968 369.432 452.832C369.432 449.472 367.992 446.208 365.4 443.856C365.64 442.848 365.784 441.84 365.784 440.832C365.784 433.968 360.216 428.832 353.784 428.832C352.488 428.832 351.24 429.024 349.992 429.456C347.832 427.344 344.856 426 341.592 426C335.784 426 330.936 430.128 329.832 435.6C324.456 436.992 321 442.032 321 447.168C321 450.528 322.44 453.792 325.032 456.144C324.792 457.152 324.648 458.16 324.648 459.168C324.648 466.031 330.216 471.168 336.648 471.168C337.944 471.168 339.192 470.976 340.44 470.544C342.6 472.656 345.576 474 348.84 474Z" fill="black"/>
</g>
<defs>
<linearGradient id="paint0_linear_2877_3625" x1="176" y1="164.476" x2="176" y2="88.4763" gradientUnits="userSpaceOnUse">
<stop stop-color="#666666" stop-opacity="0"/>
<stop offset="1" stop-color="#666666"/>
</linearGradient>
<linearGradient id="paint1_linear_2877_3625" x1="200" y1="100.5" x2="200" y2="176.5" gradientUnits="userSpaceOnUse">
<stop stop-color="#666666" stop-opacity="0"/>
<stop offset="1" stop-color="#666666"/>
</linearGradient>
<linearGradient id="paint2_linear_2877_3625" x1="189" y1="186.488" x2="189" y2="262.488" gradientUnits="userSpaceOnUse">
<stop/>
<stop offset="1" stop-color="#444444"/>
</linearGradient>
<linearGradient id="paint3_linear_2877_3625" x1="111" y1="276.488" x2="111" y2="401.988" gradientUnits="userSpaceOnUse">
<stop offset="0.0817308" stop-color="#666666" stop-opacity="0"/>
<stop offset="1" stop-color="#666666"/>
</linearGradient>
<linearGradient id="paint4_linear_2877_3625" x1="267" y1="276.488" x2="267" y2="401.988" gradientUnits="userSpaceOnUse">
<stop offset="0.0817308" stop-color="#666666" stop-opacity="0"/>
<stop offset="1" stop-color="#666666"/>
</linearGradient>
<linearGradient id="paint5_linear_2877_3625" x1="162" y1="276.488" x2="162" y2="401.988" gradientUnits="userSpaceOnUse">
<stop offset="0.0817308" stop-color="#666666" stop-opacity="0"/>
<stop offset="1" stop-color="#666666"/>
</linearGradient>
<linearGradient id="paint6_linear_2877_3625" x1="216" y1="276.488" x2="216" y2="401.988" gradientUnits="userSpaceOnUse">
<stop offset="0.0817308" stop-color="#666666" stop-opacity="0"/>
<stop offset="1" stop-color="#666666"/>
</linearGradient>
<clipPath id="clip0_2877_3625">
<rect width="48" height="48" fill="white" transform="translate(9 426)"/>
</clipPath>
<clipPath id="clip1_2877_3625">
<rect width="56" height="40.7273" fill="white" transform="translate(109 430)"/>
</clipPath>
<clipPath id="clip2_2877_3625">
<rect width="48" height="48" fill="white" transform="translate(217 426)"/>
</clipPath>
</defs>
</svg>
