<svg width="502" height="262" viewBox="0 0 502 262" fill="none" xmlns="http://www.w3.org/2000/svg">
<g clip-path="url(#clip0_2877_3665)">
<g filter="url(#filter0_f_2877_3665)">
<path d="M-96.498 287.919L-112.45 399.148C-112.483 399.382 -112.489 399.619 -112.467 399.854L-94.2548 594.28C-94.1104 595.821 -92.8164 597 -91.2679 597H519C520.657 597 522 595.657 522 594V125.963C522 125.656 521.953 125.351 521.86 125.059L497.933 49.3612C497.004 46.4216 492.777 46.6273 492.138 49.6432L473.965 135.373C473.318 138.421 469.029 138.586 468.151 135.597L456.624 96.3424C455.73 93.2965 451.336 93.545 450.79 96.6723L438.194 168.916C437.65 172.038 433.265 172.293 432.363 169.255L394.323 41.1879C393.44 38.2144 389.176 38.3728 388.516 41.4036L360.725 168.991C360.05 172.089 355.656 172.158 354.884 169.083L328.601 64.3574C327.83 61.2851 323.442 61.3493 322.762 64.4428L298.93 172.729C298.311 175.543 294.467 175.951 293.271 173.33L256.539 92.8491C255.313 90.1633 251.353 90.6771 250.853 93.5867L234.79 187.082C234.278 190.061 230.18 190.498 229.051 187.694L208.31 136.201C207.155 133.332 202.94 133.877 202.551 136.945L195.723 190.885C195.319 194.079 190.851 194.479 189.885 191.408L153.585 75.9066C152.649 72.9298 148.356 73.182 147.775 76.2478L123.665 203.569C123.088 206.614 118.835 206.892 117.867 203.948L89.1497 116.582C88.2181 113.748 84.1698 113.863 83.401 116.746L50.6525 239.553C49.8793 242.453 45.7991 242.546 44.8936 239.686L17.0359 151.671C16.0989 148.711 11.8333 148.95 11.2324 151.996L-5.31193 235.872C-5.93667 239.039 -10.4377 239.12 -11.1758 235.977L-34.1272 138.249C-34.922 134.865 -39.8738 135.316 -40.0441 138.788L-47.1288 283.238C-47.2945 286.616 -52.0524 287.18 -53.004 283.935L-62.7542 250.684C-63.6972 247.468 -68.4025 247.984 -68.6263 251.328L-74.4801 338.791C-74.7143 342.29 -79.7358 342.613 -80.4164 339.173L-90.5854 287.762C-91.2405 284.451 -96.0188 284.577 -96.498 287.919Z" fill="url(#paint0_linear_2877_3665)"/>
<path d="M-96.498 287.919L-112.45 399.148C-112.483 399.382 -112.489 399.619 -112.467 399.854L-94.2548 594.28C-94.1104 595.821 -92.8164 597 -91.2679 597H519C520.657 597 522 595.657 522 594V125.963C522 125.656 521.953 125.351 521.86 125.059L497.933 49.3612C497.004 46.4216 492.777 46.6273 492.138 49.6432L473.965 135.373C473.318 138.421 469.029 138.586 468.151 135.597L456.624 96.3424C455.73 93.2965 451.336 93.545 450.79 96.6723L438.194 168.916C437.65 172.038 433.265 172.293 432.363 169.255L394.323 41.1879C393.44 38.2144 389.176 38.3728 388.516 41.4036L360.725 168.991C360.05 172.089 355.656 172.158 354.884 169.083L328.601 64.3574C327.83 61.2851 323.442 61.3493 322.762 64.4428L298.93 172.729C298.311 175.543 294.467 175.951 293.271 173.33L256.539 92.8491C255.313 90.1633 251.353 90.6771 250.853 93.5867L234.79 187.082C234.278 190.061 230.18 190.498 229.051 187.694L208.31 136.201C207.155 133.332 202.94 133.877 202.551 136.945L195.723 190.885C195.319 194.079 190.851 194.479 189.885 191.408L153.585 75.9066C152.649 72.9298 148.356 73.182 147.775 76.2478L123.665 203.569C123.088 206.614 118.835 206.892 117.867 203.948L89.1497 116.582C88.2181 113.748 84.1698 113.863 83.401 116.746L50.6525 239.553C49.8793 242.453 45.7991 242.546 44.8936 239.686L17.0359 151.671C16.0989 148.711 11.8333 148.95 11.2324 151.996L-5.31193 235.872C-5.93667 239.039 -10.4377 239.12 -11.1758 235.977L-34.1272 138.249C-34.922 134.865 -39.8738 135.316 -40.0441 138.788L-47.1288 283.238C-47.2945 286.616 -52.0524 287.18 -53.004 283.935L-62.7542 250.684C-63.6972 247.468 -68.4025 247.984 -68.6263 251.328L-74.4801 338.791C-74.7143 342.29 -79.7358 342.613 -80.4164 339.173L-90.5854 287.762C-91.2405 284.451 -96.0188 284.577 -96.498 287.919Z" stroke="#666666"/>
</g>
<path d="M325.604 40.9634C315.895 40.9634 306.404 43.8425 298.331 49.2366C290.258 54.6308 283.966 62.2977 280.25 71.2678C276.535 80.238 275.563 90.1085 277.457 99.6311C279.351 109.154 284.027 117.901 290.892 124.766C297.757 131.632 306.505 136.307 316.027 138.201C325.55 140.096 335.42 139.123 344.39 135.408C353.361 131.692 361.028 125.4 366.422 117.327C371.816 109.254 374.695 99.7632 374.695 90.054C374.694 77.0346 369.522 64.5487 360.316 55.3426C351.11 46.1365 338.624 40.9642 325.604 40.9634Z" stroke="black" stroke-width="16" stroke-miterlimit="10"/>
<path d="M362.229 126.679L396.513 160.964" stroke="black" stroke-width="16" stroke-miterlimit="10" stroke-linecap="round"/>
</g>
<defs>
<filter id="filter0_f_2877_3665" x="-114.98" y="36.542" width="639.48" height="562.958" filterUnits="userSpaceOnUse" color-interpolation-filters="sRGB">
<feFlood flood-opacity="0" result="BackgroundImageFix"/>
<feBlend mode="normal" in="SourceGraphic" in2="BackgroundImageFix" result="shape"/>
<feGaussianBlur stdDeviation="1" result="effect1_foregroundBlur_2877_3665"/>
</filter>
<linearGradient id="paint0_linear_2877_3665" x1="204.75" y1="30" x2="204.75" y2="597" gradientUnits="userSpaceOnUse">
<stop stop-color="#666666" stop-opacity="0.4"/>
<stop offset="0.326923" stop-color="#666666" stop-opacity="0"/>
</linearGradient>
<clipPath id="clip0_2877_3665">
<rect width="502" height="268" fill="white"/>
</clipPath>
</defs>
</svg>
