<svg width="44" height="44" viewBox="0 0 44 44" fill="none" xmlns="http://www.w3.org/2000/svg">
<rect width="44" height="44" rx="22" fill="black"/>
<path d="M2 22C2 10.9543 10.9543 2 22 2C33.0457 2 42 10.9543 42 22C42 33.0457 33.0457 42 22 42C10.9543 42 2 33.0457 2 22Z" fill="url(#paint0_linear_2877_3729)"/>
<path d="M1.5 21.75C1.5 10.5662 10.5662 1.5 21.75 1.5H22.25C33.4338 1.5 42.5 10.5662 42.5 21.75L41.5 22C41.5 11.2304 32.7696 2.5 22 2.5C11.2304 2.5 2.5 11.2304 2.5 22L1.5 21.75ZM42 42H2H42ZM21.75 42C10.5662 42 1.5 32.9338 1.5 21.75C1.5 10.5662 10.5662 1.5 21.75 1.5L22 2.5C11.2304 2.5 2.5 11.2304 2.5 22C2.5 33.0457 11.2304 42 22 42H21.75ZM22.25 1.5C33.4338 1.5 42.5 10.5662 42.5 21.75C42.5 32.9338 33.4338 42 22.25 42H22C32.7696 42 41.5 33.0457 41.5 22C41.5 11.2304 32.7696 2.5 22 2.5L22.25 1.5Z" fill="#666666"/>
<g clip-path="url(#clip0_2877_3729)">
<path d="M25.7949 15.5221C24.9176 15.5361 24.0598 15.7836 23.3099 16.2391C23.2392 16.2833 23.1573 16.3062 23.0739 16.3051C20.3569 16.3031 17.6399 16.3031 14.9229 16.3031C14.7874 16.2991 14.6546 16.3415 14.5466 16.4234C14.4385 16.5052 14.3617 16.6216 14.3289 16.7531C14.2939 16.879 14.303 17.0131 14.3546 17.1331C14.4063 17.2532 14.4974 17.352 14.6129 17.4131C14.7249 17.4691 14.8629 17.4951 14.9899 17.4951C17.2399 17.5001 19.4889 17.4981 21.7389 17.4991C21.7829 17.4991 21.8289 17.5021 21.8909 17.5051L21.8009 17.6351C21.5128 18.0332 21.2856 18.472 21.1269 18.9371C21.0969 19.0271 21.0519 19.0501 20.9609 19.0501C18.4159 19.0471 16.1169 19.0471 13.7679 19.0481C13.6342 19.0488 13.5045 19.094 13.3993 19.1765C13.2941 19.2591 13.2193 19.3743 13.1869 19.5041C13.1542 19.6343 13.1673 19.7719 13.2242 19.8936C13.281 20.0152 13.378 20.1136 13.4989 20.1721C13.6096 20.2189 13.7287 20.2424 13.8489 20.2411C15.7729 20.2451 17.6969 20.2441 19.6199 20.2441H19.7429C19.726 20.2784 19.7005 20.3077 19.6689 20.3291C19.1689 20.6961 18.7609 21.1481 18.4509 21.6851C18.4049 21.7651 18.3559 21.7941 18.2629 21.7941C15.7006 21.7915 13.1382 21.7908 10.5759 21.7921C10.4901 21.7953 10.406 21.8169 10.3293 21.8554C10.2526 21.894 10.1851 21.9487 10.1314 22.0156C10.0777 22.0826 10.0391 22.1604 10.0181 22.2436C9.99714 22.3269 9.99435 22.4137 10.0099 22.4981C10.0699 22.7981 10.3099 22.9881 10.6339 22.9881H17.9379C17.8324 23.5035 17.8075 24.0321 17.8639 24.5551H17.2699C17.0369 24.5551 16.9129 24.6721 16.9059 24.9041C16.901 25.0621 16.901 25.2201 16.9059 25.3781C16.9119 25.6141 17.0379 25.7321 17.2759 25.7331C17.5449 25.7341 17.8139 25.7361 18.0829 25.7321C18.1579 25.7301 18.1949 25.7551 18.2249 25.8241C18.4109 26.2521 18.6639 26.6401 18.9749 26.9891C19.0569 27.0811 19.1429 27.1691 19.2489 27.2811H14.2389C14.1031 27.2846 13.9725 27.3339 13.8683 27.4211C13.7641 27.5082 13.6924 27.6281 13.6649 27.7611C13.6361 27.8952 13.6554 28.0353 13.7194 28.1566C13.7834 28.278 13.888 28.373 14.0149 28.4251C14.1125 28.4608 14.216 28.4781 14.3199 28.4761C19.7779 28.4801 24.6649 28.4861 29.6909 28.4581C30.0708 28.4539 30.4482 28.396 30.8119 28.2861C33.1449 27.5981 34.5159 25.1271 33.8179 22.7201C33.3839 21.2241 32.4049 20.2161 30.9299 19.7001C30.8629 19.6761 30.8349 19.6461 30.8219 19.5761C30.7957 19.4446 30.763 19.3144 30.7239 19.1861C30.0789 17.0021 28.0709 15.4741 25.7949 15.5221ZM10.7579 24.5561C10.7157 24.5543 10.6736 24.5612 10.6341 24.5763C10.5946 24.5914 10.5587 24.6144 10.5284 24.6439C10.4982 24.6734 10.4743 24.7088 10.4582 24.7478C10.4421 24.7869 10.4342 24.8288 10.4349 24.8711C10.4309 25.0291 10.4329 25.1871 10.4329 25.3451C10.4339 25.6191 10.5519 25.7331 10.8289 25.7331H14.9919C15.1949 25.7331 15.3429 25.6081 15.3489 25.4271C15.3543 25.2458 15.3543 25.0644 15.3489 24.8831C15.3429 24.6911 15.2089 24.5561 15.0219 24.5561H10.7579Z" fill="#F9F9F9"/>
</g>
<defs>
<linearGradient id="paint0_linear_2877_3729" x1="20.4177" y1="-31.2143" x2="20.4177" y2="70.2143" gradientUnits="userSpaceOnUse">
<stop/>
<stop offset="1" stop-color="#444444"/>
</linearGradient>
<clipPath id="clip0_2877_3729">
<rect width="24" height="24" fill="white" transform="translate(10 10)"/>
</clipPath>
</defs>
</svg>
