<svg width="412" height="183" viewBox="0 0 412 183" fill="none" xmlns="http://www.w3.org/2000/svg">
<g clip-path="url(#clip0_2877_3675)">
<path d="M318.39 201.746L347.728 222.702L377.067 201.746C393.966 189.675 403.995 170.186 403.995 149.419V118.206L347.728 94.0913L291.461 118.206V149.419C291.461 170.186 301.49 189.675 318.39 201.746Z" fill="#666666"/>
</g>
<path d="M247.2 3.89647L247.466 2.93256L247.2 3.89647ZM333.174 85.8789C333.174 88.8244 335.562 91.2122 338.508 91.2122C341.453 91.2122 343.841 88.8244 343.841 85.8789C343.841 82.9334 341.453 80.5455 338.508 80.5455C335.562 80.5455 333.174 82.9334 333.174 85.8789ZM104.67 37.441C105.142 38.3227 105.142 38.3227 105.142 38.3227C105.142 38.3227 105.142 38.3228 105.142 38.3228C105.142 38.3228 105.142 38.3228 105.142 38.3227C105.142 38.3227 105.142 38.3227 105.142 38.3227C105.142 38.3226 105.142 38.3225 105.142 38.3224C105.143 38.3221 105.144 38.3216 105.145 38.3209C105.148 38.3196 105.151 38.3176 105.156 38.3149C105.167 38.3095 105.182 38.3013 105.203 38.2903C105.244 38.2683 105.306 38.2354 105.389 38.1918C105.554 38.1047 105.8 37.9753 106.125 37.8067L105.663 36.9194L105.202 36.0321C104.874 36.2026 104.624 36.334 104.455 36.4229C104.371 36.4674 104.307 36.5013 104.264 36.5241C104.243 36.5356 104.226 36.5443 104.215 36.5501C104.21 36.5531 104.206 36.5553 104.203 36.5568C104.201 36.5576 104.2 36.5582 104.199 36.5586C104.199 36.5588 104.199 36.559 104.199 36.5591C104.198 36.5592 104.198 36.5592 104.198 36.5592C104.198 36.5593 104.198 36.5593 104.198 36.5593C104.198 36.5593 104.198 36.5593 104.198 36.5593C104.198 36.5593 104.198 36.5593 104.67 37.441ZM107.627 35.912L108.079 36.8038C108.669 36.5047 109.342 36.1658 110.094 35.7912L109.648 34.8961L109.202 34.0009C108.446 34.3778 107.768 34.7189 107.174 35.0203L107.627 35.912ZM111.68 33.8926L112.12 34.7907C112.764 34.4756 113.447 34.1432 114.169 33.7951L113.735 32.8943L113.301 31.9936C112.575 32.3435 111.887 32.6777 111.24 32.9946L111.68 33.8926ZM115.774 31.9185L116.203 32.8217C116.851 32.5135 117.525 32.1956 118.222 31.8689L117.798 30.9633L117.374 30.0578C116.673 30.386 115.996 30.7055 115.344 31.0153L115.774 31.9185ZM119.875 29.9972L120.295 30.905C120.953 30.601 121.629 30.2907 122.323 29.9748L121.908 29.0647L121.494 28.1547C120.797 28.4721 120.118 28.7838 119.456 29.0893L119.875 29.9972ZM123.978 28.1286L124.388 29.0408C125.059 28.7394 125.744 28.4336 126.443 28.1241L126.038 27.2098L125.633 26.2954C124.931 26.6064 124.242 26.9136 123.568 27.2164L123.978 28.1286ZM128.11 26.2982L128.51 27.2146C129.188 26.9186 129.877 26.6197 130.577 26.3183L130.181 25.3998L129.786 24.4814C129.083 24.7842 128.391 25.0845 127.71 25.3818L128.11 26.2982ZM132.266 24.5087L132.656 25.4292C133.337 25.1402 134.028 24.8492 134.727 24.5566L134.341 23.6341L133.955 22.7116C133.252 23.0055 132.559 23.2978 131.875 23.5882L132.266 24.5087ZM136.443 22.7613L136.824 23.6859C137.507 23.4044 138.197 23.1218 138.896 22.8384L138.519 21.9118L138.143 20.9853C137.442 21.2701 136.748 21.554 136.062 21.8368L136.443 22.7613ZM140.641 21.0571L141.013 21.9857C141.697 21.7122 142.388 21.4381 143.085 21.1638L142.719 20.2332L142.353 19.3027C141.652 19.5783 140.958 19.8537 140.27 20.1285L140.641 21.0571ZM144.835 19.4077L145.196 20.3403C145.891 20.0715 146.591 19.8027 147.297 19.5341L146.941 18.5995L146.586 17.6648C145.876 17.9348 145.172 18.205 144.474 18.4751L144.835 19.4077ZM149.053 17.8028L149.403 18.7394C150.107 18.4761 150.816 18.2133 151.53 17.9511L151.185 17.0125L150.841 16.0738C150.123 16.3373 149.41 16.6015 148.703 16.8661L149.053 17.8028ZM153.296 16.2442L153.635 17.1849C154.342 16.9303 155.052 16.6765 155.767 16.4237L155.433 15.4809L155.1 14.5382C154.381 14.7923 153.667 15.0475 152.957 15.3035L153.296 16.2442ZM157.563 14.735L157.891 15.6798C158.597 15.4349 159.307 15.1913 160.02 14.949L159.698 14.0021L159.377 13.0553C158.659 13.2989 157.946 13.5439 157.235 13.7901L157.563 14.735ZM161.852 13.2785L162.167 14.2274C162.874 13.9924 163.585 13.7588 164.298 13.527L163.989 12.576L163.68 11.625C162.962 11.8582 162.248 12.0931 161.536 12.3295L161.852 13.2785ZM166.144 11.8838L166.446 12.8369C167.161 12.61 167.879 12.385 168.598 12.1621L168.303 11.2068L168.007 10.2516C167.282 10.4759 166.56 10.7024 165.841 10.9306L166.144 11.8838ZM170.46 10.5471L170.749 11.5044C171.468 11.2873 172.19 11.0725 172.913 10.86L172.631 9.90057L172.35 8.94109C171.621 9.15497 170.895 9.37124 170.171 9.58971L170.46 10.5471ZM174.8 9.27259L175.074 10.2342C175.795 10.0284 176.518 9.82524 177.242 9.62473L176.975 8.66099L176.708 7.69725C175.979 7.89919 175.251 8.10382 174.526 8.31098L174.8 9.27259ZM179.159 8.06582L179.418 9.03171C180.142 8.83763 180.867 8.64641 181.593 8.45821L181.343 7.49018L181.092 6.52215C180.36 6.71178 179.629 6.90444 178.9 7.09994L179.159 8.06582ZM183.533 6.93266L183.776 7.90283C184.504 7.72087 185.233 7.54211 185.963 7.3667L185.729 6.39438L185.496 5.42206C184.76 5.59889 184.025 5.77909 183.291 5.96248L183.533 6.93266ZM187.93 5.87643L188.154 6.85089C188.885 6.68242 189.617 6.51749 190.349 6.35626L190.133 5.37967L189.918 4.40309C189.18 4.56573 188.442 4.73209 187.705 4.90197L187.93 5.87643ZM192.345 4.90407L192.55 5.88277C193.285 5.72861 194.02 5.57836 194.755 5.43217L194.56 4.45139L194.364 3.47061C193.623 3.61817 192.881 3.76982 192.139 3.92538L192.345 4.90407ZM196.774 4.02316L196.959 5.006C197.699 4.86716 198.438 4.73262 199.177 4.60257L199.004 3.61771L198.83 2.63285C198.084 2.76423 197.337 2.90012 196.59 3.04032L196.774 4.02316ZM201.23 3.23918L201.392 4.22602C202.132 4.10467 202.872 3.98801 203.611 3.87622L203.461 2.88748L203.312 1.89873C202.565 2.01178 201.817 2.12971 201.069 2.25235L201.23 3.23918ZM205.703 2.56288L205.84 3.55346C206.581 3.45093 207.322 3.35351 208.062 3.26138L207.938 2.26906L207.814 1.27673C207.066 1.36998 206.316 1.46857 205.566 1.5723L205.703 2.56288ZM210.187 2.00476L210.297 2.99873C211.043 2.91635 211.788 2.83959 212.532 2.76865L212.437 1.77317L212.341 0.777696C211.588 0.849593 210.833 0.927359 210.077 1.0108L210.187 2.00476ZM214.679 1.57637L214.759 2.57319C215.51 2.51308 216.26 2.45917 217.007 2.41165L216.944 1.41367L216.88 0.415684C216.122 0.463901 215.362 0.518594 214.599 0.579556L214.679 1.57637ZM219.196 1.28959L219.242 2.28851C219.992 2.25364 220.739 2.22549 221.484 2.20428L221.455 1.20469L221.427 0.205091C220.67 0.226655 219.911 0.255252 219.149 0.290667L219.196 1.28959ZM223.719 1.16146L223.729 2.16142C224.474 2.15432 225.216 2.15449 225.954 2.16213L225.965 1.16218L225.975 0.162238C225.223 0.15446 224.468 0.15429 223.71 0.161507L223.719 1.16146ZM228.239 1.20965L228.208 2.20915C228.955 2.23277 229.698 2.26439 230.438 2.30425L230.491 1.3057L230.545 0.307148C229.791 0.266475 229.033 0.234221 228.271 0.210149L228.239 1.20965ZM232.748 1.45389L232.671 2.45088C233.419 2.50896 234.162 2.57589 234.9 2.65189L235.002 1.65714L235.105 0.662398C234.349 0.584647 233.59 0.51623 232.826 0.456889L232.748 1.45389ZM237.236 1.91659L237.107 2.90829C237.853 3.00503 238.594 3.11152 239.329 3.22802L239.485 2.24036L239.642 1.25269C238.888 1.13317 238.129 1.024 237.365 0.924899L237.236 1.91659ZM241.701 2.62517L241.515 3.60775C242.252 3.74709 242.982 3.89706 243.706 4.05791L243.923 3.08173L244.14 2.10554C243.395 1.93998 242.644 1.78577 241.887 1.64259L241.701 2.62517ZM246.117 3.60769L245.868 4.57607C246.225 4.66802 246.58 4.76278 246.933 4.86038L247.2 3.89647L247.466 2.93256C247.101 2.83185 246.735 2.73411 246.367 2.63931L246.117 3.60769ZM247.2 3.89647L246.933 4.86038C247.282 4.95658 247.63 5.05622 247.979 5.15926L248.262 4.20029L248.546 3.24132C248.186 3.13493 247.826 3.03199 247.466 2.93256L247.2 3.89647ZM250.387 4.86914L250.071 5.81775C250.761 6.04798 251.452 6.29105 252.142 6.5465L252.489 5.60863L252.836 4.67076C252.126 4.40802 251.415 4.15777 250.704 3.92053L250.387 4.86914ZM254.566 6.41349L254.191 7.3404C254.867 7.61415 255.543 7.89935 256.219 8.19559L256.62 7.27974L257.022 6.36389C256.329 6.06023 255.636 5.76764 254.941 5.48658L254.566 6.41349ZM258.647 8.20098L258.221 9.10579C258.883 9.41732 259.544 9.73906 260.205 10.0706L260.654 9.17679L261.102 8.28296C260.427 7.9441 259.75 7.61502 259.073 7.29617L258.647 8.20098ZM262.629 10.1976L262.16 11.0807C262.808 11.4251 263.455 11.7786 264.102 12.1408L264.591 11.2685L265.079 10.3961C264.421 10.0268 263.76 9.6662 263.099 9.31462L262.629 10.1976ZM266.517 12.375L266.01 13.2369C266.645 13.6101 267.278 13.9913 267.91 14.3802L268.434 13.5285L268.958 12.6768C268.315 12.2811 267.67 11.8931 267.024 11.513L266.517 12.375ZM270.314 14.7092L269.774 15.5511C270.394 15.9486 271.013 16.3532 271.63 16.7645L272.184 15.9324L272.739 15.1002C272.112 14.6825 271.484 14.2714 270.853 13.8674L270.314 14.7092ZM274.023 17.1805L273.455 18.0033C274.061 18.4217 274.665 18.8463 275.267 19.2769L275.849 18.4633L276.43 17.6497C275.819 17.2131 275.206 16.7823 274.592 16.3577L274.023 17.1805ZM277.651 19.772L277.057 20.5767C277.65 21.0137 278.24 21.4561 278.829 21.9036L279.434 21.1075L280.039 20.3114C279.443 19.8582 278.845 19.4101 278.245 18.9672L277.651 19.772ZM281.201 22.4695L280.585 23.2572C281.165 23.7109 281.743 24.1693 282.319 24.632L282.945 23.8524L283.572 23.0727C282.989 22.6047 282.404 22.1409 281.817 21.6817L281.201 22.4695ZM284.676 25.2607L284.04 26.0324C284.609 26.5013 285.176 26.9743 285.74 27.4509L286.386 26.6868L287.031 25.9227C286.46 25.4411 285.887 24.9631 285.312 24.489L284.676 25.2607ZM288.08 28.1347L287.427 28.8913C287.986 29.3745 288.542 29.8611 289.096 30.3506L289.759 29.6012L290.421 28.8519C289.861 28.3575 289.299 27.8662 288.734 27.3781L288.08 28.1347ZM291.42 31.0853L290.75 31.8277C291.3 32.3235 291.846 32.822 292.39 33.3228L293.067 32.5873L293.745 31.8519C293.196 31.3465 292.645 30.8434 292.09 30.343L291.42 31.0853ZM294.699 34.1055L294.015 34.8343C294.554 35.3409 295.09 35.8496 295.623 36.3601L296.315 35.6378L297.006 34.9155C296.469 34.4007 295.928 33.8877 295.384 33.3767L294.699 34.1055ZM297.92 37.1884L297.221 37.9044C297.751 38.4207 298.277 38.9385 298.8 39.4574L299.505 38.7475L300.209 38.0377C299.682 37.5148 299.152 36.9929 298.618 36.4725L297.92 37.1884ZM301.084 40.3284L300.373 41.0321C300.895 41.5584 301.412 42.0855 301.926 42.613L302.643 41.9151L303.359 41.2172C302.841 40.6858 302.32 40.1549 301.794 39.6246L301.084 40.3284ZM304.194 43.5203L303.472 44.2124C303.986 44.7483 304.496 45.2844 305.002 45.8203L305.729 45.1338L306.456 44.4473C305.947 43.9078 305.434 43.368 304.916 42.8282L304.194 43.5203ZM307.253 46.76L306.52 47.4409C307.028 47.9864 307.53 48.5312 308.029 49.075L308.766 48.3995L309.503 47.724C309.002 47.1766 308.496 46.6282 307.985 46.079L307.253 46.76ZM310.262 50.0441L309.519 50.7143C310.02 51.2691 310.517 51.8224 311.008 52.3739L311.754 51.7089L312.501 51.044C312.007 50.4891 311.508 49.9322 311.004 49.3739L310.262 50.0441ZM313.223 53.3702L312.472 54.0301C312.967 54.5939 313.457 55.1554 313.94 55.714L314.696 55.0593L315.452 54.4045C314.965 53.8426 314.473 53.2777 313.975 52.7104L313.223 53.3702ZM316.14 56.7368L315.38 57.3866C315.869 57.9591 316.352 58.5281 316.829 59.0931L317.593 58.4483L318.358 57.8035C317.878 57.2353 317.392 56.663 316.9 56.0871L316.14 56.7368ZM319.014 60.1432L318.245 60.7831C318.729 61.3635 319.205 61.939 319.673 62.5091L320.446 61.874L321.218 61.239C320.747 60.6657 320.268 60.0869 319.782 59.5032L319.014 60.1432ZM321.847 63.589L321.071 64.2192C321.547 64.8061 322.015 65.3864 322.474 65.9593L323.255 65.3339L324.035 64.7084C323.573 64.1323 323.102 63.5488 322.623 62.9587L321.847 63.589ZM324.64 67.0734L323.856 67.6941C324.324 68.2848 324.781 68.8666 325.229 69.4387L326.016 68.8228L326.804 68.207C326.355 67.6317 325.894 67.0467 325.424 66.4527L324.64 67.0734ZM327.391 70.5926L326.6 71.2036C327.058 71.7971 327.503 72.3783 327.936 72.9464L328.732 72.3402L329.527 71.734C329.092 71.1627 328.643 70.5783 328.183 69.9816L327.391 70.5926ZM330.09 74.1337L329.291 74.7349C329.753 75.3495 330.198 75.9457 330.626 76.5219L331.429 75.9259L332.232 75.3298C331.802 74.7502 331.354 74.1506 330.889 73.5325L330.09 74.1337ZM332.745 77.7105L331.938 78.3013C332.395 78.9254 332.827 79.5199 333.233 80.0827L334.044 79.4974L334.855 78.9121C334.446 78.3458 334.012 77.7476 333.552 77.1197L332.745 77.7105ZM335.338 81.3036L334.523 81.8829C335.008 82.5652 335.44 83.1799 335.817 83.7206L336.637 83.1484L337.457 82.5761C337.077 82.0309 336.641 81.4115 336.153 80.7244L335.338 81.3036ZM337.9 84.9781L337.074 85.5411C337.272 85.8331 337.423 86.0564 337.524 86.2064C337.574 86.2813 337.612 86.3379 337.637 86.3756C337.65 86.3944 337.659 86.4085 337.665 86.4177C337.668 86.4224 337.671 86.4258 337.672 86.428C337.673 86.4291 337.673 86.4299 337.674 86.4304C337.674 86.4307 337.674 86.4309 337.674 86.431C337.674 86.431 337.674 86.431 337.674 86.4311V86.431C337.674 86.431 337.674 86.431 338.508 85.8789C339.341 85.3267 339.341 85.3267 339.341 85.3267C339.341 85.3267 339.341 85.3267 339.341 85.3267C339.341 85.3266 339.341 85.3266 339.341 85.3266C339.341 85.3265 339.341 85.3264 339.341 85.3263C339.341 85.3261 339.341 85.3258 339.341 85.3255C339.34 85.3248 339.34 85.3237 339.339 85.3224C339.337 85.3198 339.334 85.3159 339.331 85.3108C339.324 85.3007 339.314 85.2857 339.301 85.266C339.275 85.2266 339.236 85.1682 339.184 85.0914C339.081 84.9379 338.928 84.7108 338.726 84.415L337.9 84.9781Z" fill="#666666"/>
<g clip-path="url(#clip1_2877_3675)">
<path fill-rule="evenodd" clip-rule="evenodd" d="M125.27 214.072V241.91H208.784V269.748H13.9189V241.91H97.4324V214.072H0V47.0452H222.703V214.072H125.27ZM27.8378 74.883V186.234H194.865V74.883H27.8378Z" fill="black"/>
</g>
<defs>
<clipPath id="clip0_2877_3675">
<rect width="128.611" height="128.611" fill="white" transform="translate(283.389 94.0911)"/>
</clipPath>
<clipPath id="clip1_2877_3675">
<rect width="222.703" height="222.703" fill="white" transform="translate(0 47.0452)"/>
</clipPath>
</defs>
</svg>
