<svg width="44" height="44" viewBox="0 0 44 44" fill="none" xmlns="http://www.w3.org/2000/svg">
<rect width="44" height="44" rx="22" fill="black"/>
<path d="M2 22C2 10.9543 10.9543 2 22 2C33.0457 2 42 10.9543 42 22C42 33.0457 33.0457 42 22 42C10.9543 42 2 33.0457 2 22Z" fill="url(#paint0_linear_2913_7315)"/>
<path d="M1.5 21.75C1.5 10.5662 10.5662 1.5 21.75 1.5H22.25C33.4338 1.5 42.5 10.5662 42.5 21.75L41.5 22C41.5 11.2304 32.7696 2.5 22 2.5C11.2304 2.5 2.5 11.2304 2.5 22L1.5 21.75ZM42 42H2H42ZM21.75 42C10.5662 42 1.5 32.9338 1.5 21.75C1.5 10.5662 10.5662 1.5 21.75 1.5L22 2.5C11.2304 2.5 2.5 11.2304 2.5 22C2.5 33.0457 11.2304 42 22 42H21.75ZM22.25 1.5C33.4338 1.5 42.5 10.5662 42.5 21.75C42.5 32.9338 33.4338 42 22.25 42H22C32.7696 42 41.5 33.0457 41.5 22C41.5 11.2304 32.7696 2.5 22 2.5L22.25 1.5Z" fill="#666666"/>
<path fill-rule="evenodd" clip-rule="evenodd" d="M13 14H16V27H13V14ZM18 20H21V27H18V20ZM28 18H31V27H28V18ZM23 16H26V27H23V16ZM12 28H32V30H12V28Z" fill="#F9F9F9"/>
<defs>
<linearGradient id="paint0_linear_2913_7315" x1="20.4177" y1="-31.2143" x2="20.4177" y2="70.2143" gradientUnits="userSpaceOnUse">
<stop/>
<stop offset="1" stop-color="#444444"/>
</linearGradient>
</defs>
</svg>
