<svg width="1046" height="40" viewBox="0 0 1046 40" fill="none" xmlns="http://www.w3.org/2000/svg">
<g clip-path="url(#clip0_1809_1246)">
<path d="M56.3479 32.4384V40H51.6055V15.384H56.3479V16.5617C57.7603 15.6434 59.4058 15.1479 61.0904 15.1337C66.4757 15.1337 70.4357 19.4151 70.4357 24.5159C70.4357 29.6166 66.5126 33.898 61.0904 33.898C59.3985 33.9008 57.7454 33.392 56.3479 32.4384ZM56.3479 22.2711V26.6236C56.722 27.4201 57.3034 28.1014 58.0312 28.5962C58.759 29.0909 59.6064 29.3809 60.4847 29.4358C61.3629 29.4907 62.2398 29.3084 63.0235 28.9081C63.8072 28.5078 64.4689 27.9042 64.9392 27.1604C65.4096 26.4166 65.6713 25.5601 65.6971 24.6804C65.7228 23.8008 65.5116 22.9304 65.0855 22.1604C64.6595 21.3905 64.0342 20.7492 63.2753 20.3037C62.5163 19.8583 61.6516 19.6251 60.7716 19.6285C59.8618 19.6157 58.9663 19.856 58.1851 20.3226C57.4039 20.7893 56.7679 21.4639 56.3479 22.2711Z" fill="#B5B5B5"/>
<path d="M73.0044 10.4229C72.9889 10.0639 73.047 9.70552 73.1751 9.36982C73.3032 9.03412 73.4986 8.72816 73.7494 8.47078C74.0001 8.21339 74.3008 8.01001 74.6331 7.87314C74.9653 7.73627 75.322 7.6688 75.6813 7.67488C76.0455 7.66856 76.4073 7.73507 76.7455 7.8705C77.0836 8.00593 77.3913 8.20756 77.6505 8.46354C77.9097 8.71952 78.1151 9.02471 78.2547 9.36117C78.3943 9.69763 78.4653 10.0586 78.4635 10.4229C78.4559 11.1555 78.1593 11.8555 77.6383 12.3706C77.1172 12.8857 76.4139 13.1742 75.6813 13.1735C75.324 13.1718 74.9706 13.099 74.6417 12.9593C74.3129 12.8195 74.0151 12.6157 73.7659 12.3596C73.5167 12.1035 73.3211 11.8004 73.1903 11.4679C73.0596 11.1353 72.9964 10.7801 73.0044 10.4229ZM73.2916 15.384H78.1078V33.6135H73.2916V15.384Z" fill="#B5B5B5"/>
<path d="M80.9593 24.4474C80.9496 23.2204 81.1854 22.0039 81.6526 20.8694C82.1199 19.7349 82.8092 18.7052 83.6802 17.8409C84.5511 16.9767 85.586 16.2952 86.724 15.8366C87.8621 15.378 89.0804 15.1516 90.3072 15.1706C91.9846 15.1714 93.6357 15.5878 95.1129 16.3826V15.384H99.8237V32.5781C99.8237 37.3205 95.7189 39.892 90.5838 39.892C87.2299 39.892 84.0182 38.8934 81.913 37.2573L83.8759 33.8691C85.8765 35.1507 88.208 35.8201 90.5838 35.795C93.9009 35.795 94.9363 34.4777 95.0786 32.3357C93.6497 33.2496 91.9927 33.7435 90.2966 33.761C84.8375 33.7558 80.9593 29.6904 80.9593 24.4474ZM95.1129 26.4787V22.4134C94.7144 21.5651 94.0841 20.8469 93.2948 20.3415C92.5056 19.8362 91.5895 19.5643 90.6523 19.5574C90.0052 19.5511 89.3632 19.6728 88.7632 19.9155C88.1633 20.1582 87.6172 20.5171 87.1564 20.9715C86.6956 21.4259 86.3292 21.9669 86.0782 22.5635C85.8272 23.16 85.6966 23.8002 85.6938 24.4474C85.6938 27.2639 87.8332 29.2267 90.6181 29.2267C91.5525 29.2511 92.4741 29.0046 93.2716 28.517C94.0691 28.0294 94.7086 27.3215 95.1129 26.4787Z" fill="#B5B5B5"/>
<path d="M102.682 24.4474C102.672 23.2204 102.908 22.0039 103.375 20.8694C103.843 19.7349 104.532 18.7052 105.403 17.8409C106.274 16.9767 107.309 16.2952 108.447 15.8366C109.585 15.378 110.803 15.1516 112.03 15.1706C113.711 15.17 115.366 15.5865 116.846 16.3826V15.384H121.554V32.5781C121.554 37.3205 117.452 39.892 112.317 39.892C108.963 39.892 105.751 38.8934 103.646 37.2573L105.609 33.8691C107.61 35.1512 109.941 35.8206 112.317 35.795C115.634 35.795 116.67 34.4777 116.812 32.3357C115.383 33.2493 113.726 33.7431 112.03 33.761C106.571 33.7558 102.682 29.6904 102.682 24.4474ZM116.846 26.4787V22.4134C116.447 21.5653 115.817 20.8473 115.028 20.3419C114.239 19.8366 113.323 19.5646 112.386 19.5574C111.738 19.5511 111.096 19.6728 110.496 19.9155C109.896 20.1582 109.35 20.5171 108.89 20.9715C108.429 21.4259 108.062 21.9669 107.811 22.5635C107.56 23.16 107.43 23.8002 107.427 24.4474C107.427 27.2639 109.566 29.2267 112.351 29.2267C113.286 29.2507 114.207 29.0041 115.005 28.5166C115.802 28.029 116.442 27.3213 116.846 26.4787Z" fill="#B5B5B5"/>
<path d="M128.474 15.384L133.256 27.5484L138.177 15.384H143.183L132.684 40H128.226L130.861 33.437L123.196 15.384H128.474Z" fill="#B5B5B5"/>
<path d="M142.273 15.384H147.374L152.022 27.6933L156.625 15.384H161.631L154.317 33.6135H149.519L142.273 15.384Z" fill="#B5B5B5"/>
<path d="M161.968 24.3736C161.968 19.2386 165.641 14.9914 171.384 14.9914C176.701 14.9914 180.74 18.9883 180.837 24.2392C180.874 24.6908 180.874 25.1445 180.837 25.5961H166.463C166.605 28.1649 169.066 29.8406 171.706 29.8406C173.882 29.8406 175.165 29.2346 176.664 27.9963L179.27 30.7443C177.162 32.9548 175.054 33.9902 171.706 33.9902C165.535 33.9718 161.968 29.369 161.968 24.3736ZM166.71 22.1973H175.916C175.452 20.4874 173.808 18.9883 171.313 18.9883C168.423 18.9883 167.211 20.4505 166.71 22.1973Z" fill="#B5B5B5"/>
<path d="M181.834 31.6533L184.166 27.8698C186.258 29.2648 188.712 30.0209 191.227 30.0461C193.619 30.0461 194.831 29.4401 194.831 28.4073C194.831 27.7276 194.259 27.2296 193.047 26.9793L188.041 25.9096C184.369 25.1192 182.69 23.3777 182.69 20.5243C182.69 17.4918 185.259 14.9572 190.576 14.9572C193.785 14.9572 196.636 15.8872 198.601 17.0992L196.425 20.7377C194.82 19.8814 192.681 18.954 190.431 18.954C188.4 18.954 187.222 19.4546 187.222 20.3794C187.222 20.988 187.651 21.3806 188.826 21.594L193.042 22.3844C197.608 23.2749 199.365 25.3089 199.365 28.0569C199.365 32.009 195.413 34.0851 191.087 34.0851C187.837 34.1479 184.633 33.306 181.834 31.6533Z" fill="#B5B5B5"/>
<path d="M200.313 15.384H203.024V10.3544L207.767 7.28757V15.384H210.549V19.5231H207.769V33.6161H203.027V19.5231H200.311V15.384H200.313Z" fill="#B5B5B5"/>
<path d="M39.7313 18.3164C39.6521 17.1593 39.4624 16.0123 39.1648 14.8913C37.8079 9.88538 34.9493 5.94651 30.5915 3.13528C27.8466 1.35015 24.6938 0.290447 21.428 0.0553214C20.0559 -0.0448952 18.6773 -0.00782549 17.3126 0.165979C15.8749 0.356271 14.4617 0.699859 13.0971 1.19088C9.46334 2.50163 6.29194 4.8459 3.97299 7.93535C1.65404 11.0248 0.288654 14.7247 0.0447899 18.5799C0 19.2886 0 20.0026 0 20.714V38.0082C0 38.4575 0.178486 38.8884 0.496194 39.2061C0.813901 39.5238 1.24481 39.7023 1.69411 39.7023H8.37571C8.79385 39.6997 9.19651 39.5438 9.50731 39.264C9.81812 38.9843 10.0155 38.6002 10.0619 38.1847C10.1059 38.0223 10.1289 37.8549 10.1304 37.6867V37.2863C10.1265 37.2556 10.1265 37.2246 10.1304 37.194V37.1492C10.176 37.1614 10.2189 37.1819 10.2569 37.2098C12.7561 38.5919 15.524 39.4186 18.3718 39.6338C19.5124 39.7181 20.6581 39.7067 21.7969 39.5995C24.4776 39.3526 27.0793 38.5595 29.4419 37.269C31.8045 35.9786 33.8778 34.218 35.5342 32.0959C37.8952 29.1259 39.3399 25.5325 39.6917 21.7547C39.8109 20.6123 39.8242 19.4613 39.7313 18.3164ZM23.4488 29.3663C23.437 29.4272 23.4042 29.482 23.356 29.5211C23.3078 29.5601 23.2474 29.5809 23.1854 29.5798H16.5986C16.5366 29.5809 16.4762 29.5601 16.428 29.5211C16.3798 29.482 16.3469 29.4272 16.3351 29.3663V29.3242V29.0792C16.3337 28.7768 16.3673 28.4753 16.4353 28.1807C16.4774 28.0806 16.5038 27.9621 16.5459 27.8514C16.5881 27.7407 16.6302 27.638 16.6724 27.53C16.7145 27.4219 16.783 27.3245 16.841 27.2322L16.9358 27.09C16.9978 26.9979 17.0655 26.9099 17.1387 26.8265C17.2151 26.7316 17.2915 26.65 17.3679 26.563C17.7643 26.1732 18.246 25.8809 18.7749 25.7094C18.3193 25.4613 17.9592 25.0687 17.7513 24.5935C17.5434 24.1182 17.4996 23.5873 17.6267 23.0844C17.7538 22.5815 18.0446 22.1351 18.4533 21.8157C18.862 21.4962 19.3653 21.3218 19.8841 21.32C20.5034 21.3247 21.0963 21.5715 21.536 22.0076C21.7906 22.2638 21.9822 22.5756 22.0959 22.9183C22.2095 23.2611 22.2421 23.6256 22.191 23.9831C22.14 24.3406 22.0066 24.6814 21.8015 24.9787C21.5965 25.2759 21.3252 25.5216 21.0091 25.6962C21.7206 25.9307 22.3397 26.3842 22.7779 26.9918C23.2161 27.5994 23.4509 28.33 23.4488 29.0792C23.4488 29.174 23.4488 29.2768 23.4488 29.3663ZM34.8044 15.0178H4.99012C4.93424 15.0174 4.87924 15.0038 4.82966 14.978C4.78007 14.9522 4.73732 14.915 4.70491 14.8695C4.6725 14.824 4.65136 14.7714 4.64323 14.7161C4.6351 14.6608 4.64021 14.6044 4.65815 14.5514C5.77062 11.3988 7.83359 8.66874 10.5627 6.73771C13.2918 4.80667 16.5527 3.76969 19.8959 3.76969C23.2391 3.76969 26.5 4.80667 29.2292 6.73771C31.9583 8.66874 34.0212 11.3988 35.1337 14.5514C35.1516 14.6042 35.1567 14.6604 35.1487 14.7154C35.1407 14.7705 35.1198 14.823 35.0877 14.8684C35.0556 14.9139 35.0132 14.9511 34.964 14.9771C34.9147 15.003 34.86 15.017 34.8044 15.0178Z" fill="#B5B5B5"/>
</g>
<g clip-path="url(#clip1_1809_1246)">
<path d="M332.453 9.40689H328.009V32.2731H332.453V9.40689Z" fill="#B5B5B5"/>
<path d="M349.652 24.16C349.652 27.3158 347.622 28.7338 344.918 28.7338C342.215 28.7338 340.408 27.3158 340.408 24.32V16.171H335.964V25.3517C335.964 29.9227 338.83 32.5958 343.597 32.5958C346.593 32.5958 348.267 31.4924 349.39 30.2455H349.649L350.036 32.2758H354.124V16.171H349.652V24.16Z" fill="#B5B5B5"/>
<path d="M393.247 29.0869C389.995 29.0869 388.16 27.6055 387.87 25.4483H401.975C402.04 24.9997 402.073 24.547 402.072 24.0938C402.041 18.3007 397.658 15.8483 392.968 15.8483C387.526 15.8483 383.435 19.1034 383.435 24.3531C383.435 29.3434 387.366 32.5959 393.258 32.5959C398.188 32.5959 401.47 30.4083 402.149 27.0565H397.757C397.208 28.3779 395.63 29.0869 393.247 29.0869ZM392.971 19.36C395.807 19.36 397.448 20.6152 397.708 22.3945H387.967C388.384 20.6896 390.028 19.36 392.957 19.36H392.971Z" fill="#B5B5B5"/>
<path d="M409.622 18.4828H409.347L408.927 16.1628H404.889V32.2759H409.333V25.3517C409.333 22.2262 411.134 20.4883 414.486 20.4883C415.095 20.4798 415.703 20.5334 416.301 20.6483V16.171H415.68C412.718 16.171 410.878 16.7834 409.622 18.4828Z" fill="#B5B5B5"/>
<path d="M438.121 27.2496H437.865L434.063 17.1696H429.489L425.754 27.2193H425.465L421.923 16.171H417.509L422.952 32.2758H427.785L431.649 22H431.906L435.707 32.2758H440.571L446.014 16.171H441.6L438.121 27.2496Z" fill="#B5B5B5"/>
<path d="M463.703 27.5862V22.1959C463.703 17.8152 459.998 15.851 455.391 15.851C450.497 15.851 447.438 18.171 447.018 21.6441H451.463C451.785 20.1297 453.074 19.2938 455.391 19.2938C457.708 19.2938 459.253 20.1628 459.253 21.9338V22.3448L452.006 22.8966C448.657 23.1559 446.213 24.6373 446.213 27.7931C446.213 31.0455 449.016 32.5904 453.137 32.5904C456.464 32.5904 458.492 31.6635 459.733 30.2648H459.954C460.652 31.8373 462.067 32.2704 463.606 32.2704H465.474V28.9904H465.054C464.119 28.9904 463.703 28.5407 463.703 27.5862ZM459.256 25.8786C459.256 28.4248 456.221 29.2607 453.62 29.2607C451.849 29.2607 450.69 28.811 450.69 27.5862C450.69 26.4828 451.689 25.9448 453.173 25.8152L459.258 25.3655L459.256 25.8786Z" fill="#B5B5B5"/>
<path d="M480.133 16.171L474.947 27.8317H474.657L469.407 16.171H464.607L472.111 32.2758H477.427L484.897 16.171H480.133Z" fill="#B5B5B5"/>
<path d="M499.103 27.0565C498.551 28.3779 496.976 29.0869 494.593 29.0869C491.34 29.0869 489.506 27.6055 489.216 25.4483H503.321C503.386 24.9997 503.418 24.547 503.418 24.0938C503.387 18.3007 499.004 15.8483 494.314 15.8483C488.871 15.8483 484.783 19.1034 484.783 24.3531C484.783 29.3434 488.711 32.5959 494.604 32.5959C499.534 32.5959 502.816 30.4083 503.495 27.0565H499.103ZM494.303 19.36C497.139 19.36 498.78 20.6152 499.04 22.3945H489.302C489.724 20.6896 491.363 19.36 494.292 19.36H494.303Z" fill="#B5B5B5"/>
<path d="M320.787 14.9848C320.787 13.5669 321.785 12.9572 323.073 12.9572C323.673 12.9628 324.268 13.0491 324.844 13.2138L325.587 9.99172C324.511 9.61134 323.379 9.41548 322.238 9.41241C318.952 9.41241 316.312 11.1531 316.312 14.7586V16.171H312.478V19.6993H316.312V32.2759H320.787V19.6966H325.796V16.171H320.787V14.9848Z" fill="#B5B5B5"/>
<path d="M363.931 11.6303H359.793L359.561 16.171H356.063V19.6993H359.479V27.6386C359.479 30.3421 360.858 32.6041 364.996 32.6041C366.069 32.6041 367.138 32.4857 368.185 32.251V28.8607C367.581 28.996 366.966 29.0717 366.348 29.0869C364.127 29.0869 363.934 27.8317 363.934 26.8634V19.691H368.348V16.171H363.931V11.6303Z" fill="#B5B5B5"/>
<path d="M377.886 11.6303H373.762L373.531 16.171H370.024V19.6993H373.44V27.6386C373.44 30.3421 374.819 32.6041 378.957 32.6041C380.027 32.6008 381.094 32.4796 382.138 32.2428V28.8607C381.534 28.996 380.919 29.0717 380.3 29.0869C378.08 29.0869 377.886 27.8317 377.886 26.8634V19.691H382.314V16.171H377.886V11.6303Z" fill="#B5B5B5"/>
<path d="M250.615 8.79724C250.615 6.21241 251.371 4.00552 252.957 2.41931L255.716 5.17793C252.646 8.23724 255.327 17.749 264.069 26.4993C272.811 35.2497 282.328 37.9283 285.396 34.8634L288.155 37.6221C282.979 42.7972 271.192 39.1255 261.324 29.2552C254.48 22.4083 250.615 14.64 250.615 8.79724Z" fill="#B5B5B5"/>
<path d="M268.012 40C265.427 40 263.22 39.2441 261.631 37.6579L264.389 34.8993C267.454 37.9641 276.966 35.2828 285.716 26.5352C294.467 17.7876 297.143 8.27587 294.078 5.21104L296.836 2.45242C302.014 7.6276 298.34 19.4152 288.469 29.2828C281.623 36.1379 273.854 40 268.012 40Z" fill="#B5B5B5"/>
<path d="M289.383 25.3352C287.708 20.5131 284.287 15.36 279.75 10.8248C269.882 0.954476 258.094 -2.72001 252.919 2.45792C252.552 2.82758 252.87 3.74068 253.631 4.50206C254.392 5.26344 255.305 5.57793 255.672 5.21103C258.74 2.1462 268.252 4.82758 276.999 13.5779C281.137 17.7159 284.221 22.3365 285.708 26.6124C287.01 30.3614 286.883 33.3848 285.366 34.9021C284.996 35.269 285.316 36.1848 286.075 36.9434C286.834 37.7021 287.75 38.0221 288.119 37.6524C290.77 35.0014 291.22 30.6207 289.383 25.3352Z" fill="#B5B5B5"/>
<path d="M296.83 2.45795C294.174 -0.198597 289.798 -0.648253 284.507 1.19175C279.688 2.86347 274.532 6.28692 269.997 10.8221C260.129 20.6897 256.455 32.4773 261.63 37.6552C262 38.0221 262.913 37.7048 263.674 36.9462C264.436 36.1876 264.753 35.2717 264.383 34.9021C261.31 31.8373 264 22.3255 272.75 13.5752C276.888 9.43726 281.509 6.35313 285.785 4.86623C289.534 3.56692 292.557 3.69106 294.077 5.2083C294.444 5.5752 295.36 5.25796 296.118 4.49658C296.877 3.7352 297.197 2.82485 296.83 2.45795Z" fill="#B5B5B5"/>
</g>
<g clip-path="url(#clip2_1809_1246)">
<path d="M583.518 40H543.518V35.9049H544.395L545.273 35.8318L545.492 35.4662L546.516 34.0768L549.148 30.6399L549.953 29.6161H555.876L556.168 30.6399L556.461 31.8099L556.534 31.9561L556.022 32.5411C555.225 33.7198 554.319 34.8214 553.316 35.8318L554.706 35.9049H556.095L556.315 35.4662C556.604 34.9037 556.973 34.3864 557.412 33.9305C557.649 34.5445 557.82 35.1818 557.923 35.8318L559.386 35.9049H560.775L560.848 35.8318C561.03 35.5208 561.2 35.2037 561.36 34.8812L562.165 34.0037C562.384 34.6182 562.532 35.2563 562.604 35.9049C563.823 35.9034 565.042 35.879 566.26 35.8318L566.04 35.4662C565.602 34.6618 565.675 34.7349 564.797 32.1024L564.432 30.8592L564.87 30.2011L565.382 29.6161H571.306L571.744 31.0055C572.18 32.6088 572.594 34.2177 572.987 35.8318L574.889 35.9049C575.499 35.8405 576.109 35.7673 576.717 35.6856L575.912 33.7843C574.498 29.5458 573.253 25.2523 572.183 20.9141H569.185L569.039 21.1335L568.38 22.3035L563.7 28.5192L563.262 26.9835C564.872 24.9419 566.505 22.9186 568.161 20.9141H565.163L565.09 20.9872V21.1335C565.017 21.4991 564.944 21.7185 564.651 22.0841L562.311 25.0091L562.165 24.6435C561.878 23.4476 561.586 22.2532 561.287 21.0603V20.9141H557.631L557.704 21.1335C558.511 23.252 559.243 25.3984 559.898 27.5686L558.947 28.8117C558.204 26.3849 557.497 23.9471 556.827 21.4991L556.753 20.9872V20.9141H553.609L553.316 21.5722L552.805 22.5229C551.199 24.8214 549.516 27.0652 547.759 29.2505C546.399 31.0524 545.009 32.8321 543.591 34.5887H543.518V0H581.178L568.892 15.9415C567.927 17.2228 566.977 18.5147 566.04 19.8172H568.307L571.598 15.5759L573.938 12.5046L583.518 0V40ZM559.971 32.0293L559.678 31.0055L560.629 29.7623L560.775 29.9817L561.287 31.4442L561.36 31.5905L561.214 31.8099L560.337 32.9799L559.971 32.0293ZM551.415 27.7148C552.141 26.7846 552.873 25.8583 553.609 24.936C553.848 24.6078 554.068 24.266 554.267 23.9122V24.2048L554.34 24.7166C554.577 25.7315 554.87 26.7324 555.218 27.7148C553.951 27.7535 552.682 27.7535 551.415 27.7148ZM566.845 27.7148C568.088 26.1792 569.112 24.8629 569.477 24.2048L569.624 23.9122L569.697 24.2779V24.7898C569.95 25.7761 570.243 26.7519 570.574 27.7148H570.647H566.772H566.845Z" fill="#B5B5B5"/>
<path d="M568.381 20.0366L565.383 19.9634L581.105 0H583.518L568.381 20.0366Z" fill="#575757"/>
<path d="M595.583 34.4424L601.506 16.819H605.821L611.671 34.4424H608.234L606.844 30.128H600.044L598.654 34.4424H595.583ZM603.481 19.5247L600.848 27.7148H606.04L603.481 19.5247ZM612.329 34.4424L618.033 25.3748L612.768 16.819H616.424L620.227 23.1079L623.956 16.819H627.32L622.128 25.3017L627.759 34.4424H624.029L619.861 27.5686L615.693 34.4424H612.329ZM628.49 34.4424L634.413 16.819H638.727L644.504 34.4424H641.141L639.678 30.128H632.95L631.561 34.4424H628.49ZM636.314 19.5247L633.755 27.7148H638.947L636.314 19.5247ZM651.671 34.4424V16.819H656.058L660.738 28.8848L665.272 16.819H669.587V34.4424H666.296V21.1335L661.031 34.4424H660.007L654.596 21.1335V34.4424H651.671ZM671.561 34.4424L677.484 16.819H681.799L687.649 34.4424H684.212L682.823 30.128H676.022L674.632 34.4424H671.561ZM679.459 19.5247L676.826 27.7148H682.018L679.459 19.5247ZM689.623 34.4424V16.819H693.499L700.958 29.543V16.819H703.956V34.4424H700.592L692.621 20.9141V34.4424H689.623ZM713.316 34.7349C710.976 34.7349 709.294 34.223 708.124 33.1993C707.541 32.6544 707.072 31.9986 706.746 31.2703C706.419 30.542 706.242 29.7559 706.223 28.958H709.367C709.514 30.0549 709.879 30.8592 710.391 31.3711C710.976 31.9561 711.927 32.2486 713.316 32.2486C714.267 32.2486 715.071 32.0293 715.729 31.5174C716.314 31.0055 716.68 30.3474 716.68 29.543C716.68 28.7386 716.387 28.0804 715.876 27.7148C715.364 27.3492 714.413 27.0567 712.95 26.8373C710.757 26.5448 709.148 25.9598 708.197 25.2285C707.247 24.4973 706.735 23.2541 706.735 21.6453C706.735 20.1828 707.32 19.0128 708.417 18.0622C709.587 17.1115 711.049 16.5996 712.877 16.5996C714.779 16.5996 716.314 17.0384 717.411 17.9159C718.508 18.7934 719.166 20.0366 719.312 21.7185H716.314C716.168 20.7678 715.802 20.1097 715.217 19.7441C714.705 19.3053 713.901 19.0859 712.877 19.0859C711.927 19.0859 711.195 19.3053 710.61 19.7441C710.099 20.1097 709.879 20.6947 709.879 21.3528C709.879 22.1572 710.099 22.7422 710.537 23.1079C711.049 23.4735 712.073 23.766 713.535 23.9854C715.729 24.2779 717.338 24.7898 718.289 25.5942C719.312 26.3254 719.824 27.5686 719.824 29.2505C719.824 30.7861 719.239 32.1024 717.996 33.1261C716.687 34.2187 715.021 34.7913 713.316 34.7349ZM720.263 34.4424L726.186 16.819H730.501L736.351 34.4424H732.914L731.525 30.128H724.724L723.408 34.4424H720.263ZM728.161 19.5247L725.528 27.7148H730.72L728.161 19.5247ZM738.325 34.4424V16.819H744.248C746.296 16.819 747.905 17.2578 749.075 18.1353C750.245 18.9397 750.83 20.2559 750.83 22.011V22.0841C750.83 24.5704 749.514 26.1792 746.881 26.8373L751.927 34.4424H748.344L743.663 27.3492H741.616V34.4424H738.325ZM741.616 25.0091H744.248C746.515 25.0091 747.612 24.0585 747.612 22.1572V22.0841C747.612 21.1335 747.32 20.4022 746.735 20.0366C746.15 19.5978 745.345 19.3784 744.248 19.3784H741.616V25.0091ZM757.046 31.883H759.02C760.921 31.883 762.384 31.3711 763.408 30.2742C764.358 29.2505 764.87 27.7148 764.87 25.6673V25.521C764.87 21.426 762.896 19.3784 758.947 19.3784H757.046V31.883ZM753.755 34.4424V16.819H759.166C762.164 16.819 764.431 17.6234 765.967 19.1591C767.503 20.6947 768.307 22.8154 768.307 25.4479V25.6673C768.307 28.3729 767.503 30.4936 765.967 32.1024C764.358 33.638 762.091 34.4424 759.093 34.4424H753.755Z" fill="#B5B5B5"/>
<path d="M595.803 34.4424L601.726 16.819H606.04L611.817 34.4424H608.454L606.991 30.128H600.263L598.874 34.4424H595.803ZM603.627 19.5247L601.068 27.7148H606.26L603.627 19.5247ZM612.549 34.4424L618.252 25.3748L612.914 16.819H616.644L620.446 23.1079L624.176 16.819H627.539L622.348 25.3017L627.978 34.4424H624.249L620.081 27.5686L615.912 34.4424H612.549ZM628.709 34.4424L634.56 16.819H638.874L644.724 34.4424H641.36L639.898 30.128H633.17L631.781 34.4424H628.709ZM636.534 19.5247L633.901 27.7148H639.167L636.534 19.5247ZM651.89 34.4424V16.819H656.278L660.885 28.8848L665.492 16.819H669.806V34.4424H666.516V21.1335L661.251 34.4424H660.227L654.816 21.1335V34.4424H651.89ZM671.781 34.4424L677.704 16.819H682.018L687.869 34.4424H684.432L683.042 30.128H676.241L674.852 34.4424H671.781ZM679.678 19.5247L677.046 27.7148H682.238L679.678 19.5247ZM689.77 34.4424V16.819H693.719L701.178 29.543V16.819H704.176V34.4424H700.739L692.768 20.9141V34.4424H689.77ZM713.536 34.7349C711.196 34.7349 709.441 34.223 708.344 33.1993C707.761 32.6544 707.292 31.9986 706.966 31.2703C706.639 30.542 706.461 29.7559 706.443 28.958H709.587C709.733 30.0549 710.026 30.8592 710.611 31.3711C711.196 31.9561 712.146 32.2486 713.536 32.2486C714.486 32.2486 715.291 32.0293 715.949 31.5174C716.534 31.0055 716.827 30.3474 716.827 29.543C716.827 28.7386 716.607 28.0804 716.095 27.7148C715.583 27.3492 714.633 27.0567 713.17 26.8373C710.976 26.5448 709.368 25.9598 708.417 25.2285C707.393 24.4973 706.954 23.2541 706.954 21.6453C706.954 20.1828 707.539 19.0128 708.636 18.0622C709.806 17.1115 711.269 16.5996 713.097 16.5996C714.998 16.5996 716.534 17.0384 717.631 17.9159C718.728 18.7934 719.386 20.0366 719.532 21.7185H716.534C716.315 20.7678 716.022 20.1097 715.437 19.7441C714.925 19.3053 714.121 19.0859 713.097 19.0859C712.146 19.0859 711.342 19.3053 710.83 19.7441C710.318 20.1097 710.026 20.6947 710.026 21.3528C710.026 22.1572 710.318 22.7422 710.757 23.1079C711.269 23.4735 712.22 23.766 713.682 23.9854C715.876 24.2779 717.485 24.7898 718.508 25.5942C719.532 26.3254 720.044 27.5686 720.044 29.2505C720.044 30.7861 719.459 32.1024 718.216 33.1261C716.906 34.2187 715.24 34.7913 713.536 34.7349ZM720.483 34.4424L726.406 16.819H730.72L736.571 34.4424H733.134L731.744 30.128H724.944L723.554 34.4424H720.483ZM728.38 19.5247L725.748 27.7148H730.94L728.38 19.5247ZM738.545 34.4424V16.819H744.468C746.516 16.819 748.124 17.2578 749.295 18.1353C750.465 18.9397 751.05 20.2559 751.05 22.011V22.0841C751.05 24.5704 749.733 26.1792 747.101 26.8373L752.073 34.4424H748.563L743.883 27.3492H741.836V34.4424H738.545ZM741.836 25.0091H744.468C746.662 25.0091 747.832 24.0585 747.832 22.1572V22.0841C747.832 21.1335 747.539 20.4022 746.954 20.0366C746.369 19.5978 745.565 19.3784 744.468 19.3784H741.836V25.0091ZM757.265 31.883H759.24C761.141 31.883 762.603 31.3711 763.627 30.2742C764.578 29.2505 765.09 27.7148 765.09 25.6673V25.521C765.09 21.426 763.115 19.3784 759.167 19.3784H757.265V31.883ZM753.975 34.4424V16.819H759.386C762.384 16.819 764.651 17.6234 766.187 19.1591C767.722 20.6947 768.527 22.8154 768.527 25.4479V25.6673C768.527 28.3729 767.722 30.4936 766.187 32.1024C764.578 33.638 762.311 34.4424 759.313 34.4424H753.975Z" fill="#B5B5B5"/>
</g>
<g clip-path="url(#clip3_1809_1246)">
<path d="M836.901 0.0928571L813.981 0H813.95C812.51 0 811.162 0.555952 810.12 1.60619C809.078 2.62548 808.526 4.01548 808.526 5.46714V34.5329C808.526 35.9845 809.078 37.3745 810.12 38.3938C811.131 39.4131 812.51 40 813.95 40H813.981L836.901 39.9381V38.5483C836.901 31.4131 834.174 24.896 829.7 20.0464C834.358 14.9807 836.901 8.46309 836.901 1.51357V0.092619L836.901 0.0928571ZM820.079 13.2817C817.352 12.1698 814.41 11.4593 811.315 11.3048V11.2429C815.605 10.5948 819.006 7.13548 819.588 2.81095L825.349 2.8419C825.012 6.88833 823.143 10.5948 820.079 13.2821L820.079 13.2817ZM812.081 3.58286C812.571 3.08857 813.245 2.81048 813.95 2.81048H816.739C816.218 5.62143 814.042 7.84524 811.284 8.43214V5.46714C811.315 4.75667 811.591 4.0769 812.081 3.58286ZM811.315 28.7567V22.9495C818.761 23.629 824.705 29.6524 825.349 37.1581L819.589 37.189C818.976 32.8338 815.605 29.4055 811.315 28.7567ZM813.981 37.189C813.276 37.189 812.602 36.911 812.112 36.4167C811.621 35.9226 811.346 35.2429 811.346 34.5326V31.5983C814.104 32.185 816.279 34.3781 816.8 37.1888H813.981V37.189ZM834.082 37.1271L828.107 37.1581C827.433 28.1081 820.263 20.8493 811.284 20.1388V14.1157C823.572 14.8262 833.408 24.7721 834.082 37.1276V37.1271ZM827.708 18.0695C826.195 16.7312 824.541 15.5609 822.775 14.579C825.9 11.4595 827.8 7.32048 828.137 2.84167L834.113 2.87262C833.775 8.55595 831.539 13.8688 827.708 18.0695Z" fill="#B5B5B5"/>
<path d="M871.445 14.8602C870.235 14.2098 868.869 13.9 867.348 13.9C865.796 13.9 864.399 14.2407 863.189 14.9221C861.978 15.6033 861.047 16.5324 860.395 17.7093C859.743 18.8862 859.433 20.2179 859.433 21.7043C859.433 22.7881 859.619 23.8412 860.023 24.7702C860.395 25.7302 860.923 26.5355 861.605 27.2479C862.318 27.9588 863.176 28.5079 864.12 28.8581C865.162 29.2491 866.266 29.4485 867.379 29.4467C868.9 29.4467 870.266 29.1369 871.477 28.4864C872.687 27.8362 873.618 26.9071 874.301 25.7302C874.984 24.5533 875.326 23.1907 875.326 21.7043C875.326 20.1869 874.984 18.8243 874.301 17.6471C873.556 16.4395 872.625 15.5105 871.445 14.8602ZM870.452 24.9869C869.614 25.854 868.559 26.2876 867.317 26.2876C866.045 26.2876 864.989 25.8543 864.151 24.9559C863.313 24.0579 862.909 22.974 862.909 21.6733C862.909 20.3417 863.313 19.2267 864.12 18.3595C864.927 17.4614 866.013 17.0279 867.317 17.0279C868.59 17.0279 869.614 17.4614 870.452 18.3286C871.29 19.1957 871.694 20.3107 871.694 21.6733C871.725 23.005 871.321 24.1198 870.452 24.9869Z" fill="#B5B5B5"/>
<path fill-rule="evenodd" clip-rule="evenodd" d="M885.972 13.9H885.537C884.606 13.9 883.768 14.1167 882.93 14.5505C882.092 14.9838 881.409 15.6033 880.819 16.4086H880.788V14.1479H877.312V29.2298H880.788V22.0759C880.788 21.2398 880.943 20.5274 881.254 19.8771C881.564 19.2267 882.061 18.7002 882.682 18.3286C883.302 17.9571 884.047 17.7405 884.917 17.7405C885.227 17.7405 885.568 17.7405 885.972 17.7714L885.972 13.9Z" fill="#B5B5B5"/>
<path d="M897.985 15.9131H897.923C896.775 14.5505 895.223 13.869 893.236 13.869C892.212 13.869 891.25 14.0548 890.349 14.4576C889.449 14.86 888.673 15.3867 888.021 16.0679C887.369 16.7493 886.873 17.5855 886.5 18.5455C886.128 19.5364 885.941 20.5583 885.941 21.6733C885.941 22.6024 886.065 23.4386 886.283 24.2748C886.531 25.08 886.873 25.7921 887.307 26.4117C887.742 27.031 888.269 27.5574 888.859 28.0219C889.449 28.4864 890.132 28.8271 890.877 29.044C891.622 29.2607 892.429 29.3845 893.236 29.3845C895.285 29.3845 896.899 28.6414 898.047 27.1238H898.078V29.1369H901.4V14.0548H897.923V15.9129L897.985 15.9131ZM896.868 25.0179C896.03 25.854 895.005 26.2876 893.826 26.2876C892.553 26.2876 891.498 25.8543 890.691 25.0181C889.884 24.1819 889.48 23.0669 889.48 21.7352C889.48 21.0231 889.604 20.3726 889.821 19.7843C890.039 19.1957 890.349 18.7002 890.753 18.2976C891.152 17.898 891.627 17.5821 892.149 17.3686C892.677 17.1519 893.236 17.0281 893.857 17.0281C895.099 17.0281 896.123 17.4924 896.93 18.3907C897.737 19.2888 898.14 20.4036 898.14 21.7352C898.14 23.0669 897.706 24.1817 896.868 25.0179ZM918.938 17.6474C918.627 17.059 918.255 16.5633 917.82 16.0988C917.386 15.6345 916.889 15.2317 916.361 14.8912C915.834 14.5505 915.244 14.3026 914.592 14.1479C913.94 13.9931 913.289 13.8693 912.605 13.8693C910.588 13.8693 908.974 14.5502 907.794 15.9131H907.732V14.086H904.255V35.2688H907.732V27.3095H907.763C908.912 28.7031 910.495 29.4152 912.544 29.4152C913.382 29.4152 914.158 29.2914 914.903 29.0748C915.648 28.8271 916.33 28.4862 916.92 28.0526C917.51 27.6193 918.038 27.0617 918.472 26.4424C918.907 25.8229 919.248 25.1107 919.497 24.3055C919.745 23.5002 919.838 22.6331 919.838 21.704C919.838 20.9607 919.745 20.2486 919.59 19.5362C919.435 18.824 919.248 18.2355 918.938 17.6471L918.938 17.6474ZM915.151 25.0181C914.344 25.854 913.289 26.2876 912.016 26.2876C910.774 26.2876 909.719 25.8543 908.881 25.0181C908.043 24.1819 907.608 23.0669 907.608 21.7352C907.608 20.3726 908.011 19.2579 908.849 18.3595C909.657 17.4614 910.743 17.0279 912.016 17.0279C913.257 17.0279 914.282 17.4614 915.12 18.3286C915.958 19.1957 916.361 20.3417 916.361 21.7352C916.361 23.0669 915.958 24.1819 915.151 25.0181ZM933 15.9131C931.851 14.5505 930.299 13.869 928.312 13.869C927.288 13.869 926.326 14.0548 925.425 14.4576C924.525 14.86 923.749 15.3867 923.097 16.0679C922.445 16.7493 921.949 17.5855 921.576 18.5455C921.204 19.5364 921.018 20.5583 921.018 21.6733C921.018 22.6024 921.142 23.4386 921.359 24.2748C921.607 25.08 921.949 25.7921 922.383 26.4117C922.818 27.031 923.346 27.5574 923.936 28.0219C924.525 28.4864 925.208 28.8271 925.953 29.044C926.698 29.2607 927.505 29.3845 928.312 29.3845C930.361 29.3845 931.975 28.6414 933.124 27.1238H933.155V29.1369H936.476V14.0548H933V15.9131ZM931.944 25.0179C931.106 25.854 930.082 26.2876 928.902 26.2876C927.629 26.2876 926.574 25.8543 925.767 25.0181C924.96 24.1819 924.556 23.0669 924.556 21.7352C924.556 21.0231 924.68 20.3726 924.898 19.7843C925.115 19.1957 925.425 18.7002 925.829 18.2976C926.228 17.898 926.703 17.5821 927.226 17.3686C927.754 17.1519 928.312 17.0281 928.933 17.0281C930.175 17.0281 931.199 17.4924 932.006 18.3907C932.813 19.2888 933.217 20.4036 933.217 21.7352C933.217 23.0669 932.782 24.1817 931.944 25.0179Z" fill="#B5B5B5"/>
<path fill-rule="evenodd" clip-rule="evenodd" d="M949.451 14.1167L945.54 24.2748H945.509L941.35 14.1169H937.687L943.833 28.3626L941.101 35.2998H944.764L953.083 14.1169L949.451 14.1167ZM859.898 14.1167H855.8L849.624 20.9921H849.562V7.4588H846.116V29.199H849.562V25.6686L852.107 22.8505H852.169L856.08 29.199H859.991L854.466 20.2181L859.898 14.1167Z" fill="#B5B5B5"/>
</g>
<g clip-path="url(#clip4_1809_1246)">
<path d="M1009.4 0.299159C1005.68 1.03639 1002.27 2.79933 999.526 5.40767C997.731 7.11652 996.618 8.59098 995.559 10.6417C993.926 13.8077 993.315 16.3613 993.315 19.9766C993.315 23.592 993.926 26.1462 995.559 29.3115C996.618 31.3623 997.731 32.8367 999.526 34.5456C1003.28 38.1249 1007.87 39.9419 1013.15 39.9419C1016.67 39.9419 1019.3 39.3302 1022.21 37.8731C1023.67 37.1359 1025.62 35.8765 1025.62 35.6608C1025.62 35.5886 1024.53 34.4374 1023.2 33.1065L1020.78 30.6785L1019.7 31.2721C1017.69 32.3873 1016.24 32.7833 1013.85 32.8728C1012.04 32.9449 1011.44 32.9088 1010.17 32.585C1004.3 31.1098 1000.32 26.02 1000.32 19.9766C1000.32 12.7459 1006.02 7.02637 1013.24 7.02637C1022.73 7.02637 1028.92 16.7753 1024.99 25.5165L1024.49 26.6497L1026.9 29.0778C1028.21 30.4087 1029.37 31.4878 1029.48 31.4878C1029.88 31.4878 1031.49 28.4661 1032.19 26.3973C1032.87 24.4007 1033.16 22.4581 1033.16 19.976C1033.16 16.3606 1032.55 13.8063 1030.92 10.6411C1029.86 8.59031 1028.75 7.11585 1026.95 5.40701C1024.17 2.74524 1020.76 1.00033 1016.95 0.28113C1015.19 -0.0607735 1011.1 -0.0427441 1009.4 0.299159ZM1080.72 18.8073V32.0274H1085.57V5.58731H1080.72V18.8073ZM1155.64 5.85709C1148.94 7.31418 1144.17 13.8791 1144.98 20.4621C1145.39 23.7356 1146.56 26.0921 1148.91 28.43C1151.15 30.6424 1153.11 31.7035 1156.1 32.3152C1159.39 32.981 1163.48 32.1175 1166.21 30.193L1166.71 29.833L1167.7 30.7145C1169.51 32.2791 1169.3 32.2611 1170.41 31.0384C1172.19 29.0778 1172.17 29.2581 1170.8 28.0167L1169.62 26.9556L1170.39 25.5886C1173.44 20.2284 1172.56 13.9332 1168.13 9.54457C1166.17 7.58397 1164 6.41469 1161.34 5.85709C1159.86 5.53322 1157.09 5.53322 1155.64 5.85709ZM1160.93 10.4254C1164.52 11.5406 1167.23 15.2815 1167.23 19.1132C1167.23 20.2103 1166.8 21.9372 1166.28 22.9623L1165.89 23.7175L1164.11 22.1709L1162.33 20.6244L1161.54 21.5058C1161.09 22.0093 1160.5 22.6931 1160.21 23.0704L1159.69 23.7182L1161.42 25.2113L1163.12 26.7038L1162.31 27.1179C1161.22 27.6755 1159.64 28.0714 1158.53 28.0714C1153.91 28.0714 1149.82 23.7542 1149.82 18.9162C1149.82 17.8551 1150.23 16.2003 1150.81 15.031C1151.35 13.9339 1152.8 12.2431 1153.9 11.4878C1155.87 10.1376 1158.65 9.7242 1160.93 10.4254ZM1039.44 8.19499V10.4434H1047.7V32.0274H1052.72V10.4434H1060.98V5.94657H1039.44V8.19499ZM1175.85 18.987V32.0274H1193.98V27.7108H1180.69V5.94724H1175.85V18.987ZM1133.13 9.7242V12.422H1130.26V16.3793H1133.11L1133.17 22.5309L1133.22 28.7005L1133.71 29.6C1134.75 31.5786 1136.31 32.4781 1138.7 32.4781C1140.08 32.4781 1140.35 32.424 1141.44 31.8845C1142.12 31.5426 1142.72 31.1653 1142.77 31.021C1142.82 30.8768 1142.68 30.3372 1142.46 29.8157C1142.23 29.3122 1141.94 28.6284 1141.82 28.3045L1141.59 27.7469L1140.9 28.0888C1140.11 28.5028 1139.39 28.5202 1138.71 28.179C1137.78 27.6755 1137.73 27.3516 1137.65 21.632L1137.6 16.38H1142.11V12.4227H1137.62V7.02704H1133.13V9.7242ZM1068.07 12.008C1066.96 12.0982 1065.29 12.404 1064.3 12.7272C1063.53 12.9609 1061.39 13.8244 1061.18 13.986C1061.09 14.0401 1062.61 17.4571 1062.72 17.4571C1062.76 17.4571 1063.08 17.3135 1063.46 17.1152C1066.33 15.6581 1069.84 15.6227 1071.46 17.0611C1071.98 17.5285 1072.64 19.0758 1072.64 19.8671C1072.64 20.4968 1072.61 20.5502 1072.25 20.4427C1069.68 19.7235 1066.72 19.5252 1064.93 19.9573C1062.72 20.4968 1060.84 21.9359 1059.96 23.7342C1059.53 24.5977 1059.45 24.9576 1059.45 26.2704C1059.45 27.5472 1059.52 27.9613 1059.92 28.7886C1060.85 30.7312 1062.63 31.9906 1065.03 32.404C1067.4 32.818 1069.74 32.2958 1071.64 30.9289L1072.64 30.2097V32.0267H1077.31V25.4437C1077.31 18.4467 1077.24 17.6194 1076.38 15.9466C1075.88 14.9576 1074.31 13.4464 1073.26 12.9068C1071.91 12.2417 1069.77 11.8644 1068.07 12.008ZM1070.22 23.214C1070.92 23.3222 1071.75 23.4838 1072.07 23.5913C1072.64 23.7709 1072.64 23.789 1072.64 24.9402C1072.64 26.2711 1072.39 26.8828 1071.5 27.6561C1069.49 29.4371 1065.68 29.3649 1064.44 27.5305C1063.72 26.4875 1063.94 24.9583 1064.93 24.1489C1066.18 23.1239 1067.67 22.8541 1070.22 23.214ZM1096.97 12.0628C1094.76 12.3145 1092.77 13.2681 1091.22 14.8327C1089.86 16.1997 1089.07 17.5666 1088.62 19.3649C1087.09 25.3542 1090.43 31.0023 1096.28 32.3152C1099.39 32.999 1103.61 32.0274 1105.87 30.0848L1106.6 29.4551L1105.2 28.0521L1103.82 26.6491L1103.36 26.9729C1102.62 27.4945 1101.17 28.1783 1100.25 28.43C1099.16 28.7179 1096.97 28.5923 1096.14 28.1783C1094.67 27.4771 1093.39 25.8758 1093 24.2391L1092.89 23.7536H1108L1107.93 23.0704C1107.88 22.7105 1107.79 21.8471 1107.73 21.182C1107.45 17.7643 1105.38 14.2751 1102.87 12.9977C1101.29 12.1883 1099.01 11.8284 1096.97 12.0628ZM1099.95 16.1095C1101.47 16.6491 1102.53 17.8544 1103.09 19.7068L1103.32 20.5162H1098.13C1095.26 20.5162 1092.93 20.4801 1092.93 20.4441C1092.93 20.1202 1093.56 18.7352 1093.99 18.1235C1095.26 16.2531 1097.86 15.3723 1099.95 16.1095ZM1119.81 12.0801C1118.5 12.2778 1117.07 12.9436 1116.01 13.8791L1115.18 14.6164V12.422H1110.34V32.028H1115.17L1115.22 25.6067C1115.27 19.3295 1115.29 19.1492 1115.67 18.412C1116.42 17.027 1118 16.1456 1119.76 16.1456C1121.38 16.1275 1122.56 16.8474 1123.31 18.2678C1123.69 18.9696 1123.71 19.2214 1123.76 25.4985L1123.82 32.028H1128.47V25.1386C1128.47 19.9947 1128.39 18.034 1128.21 17.3683C1127.23 13.5913 1123.85 11.4865 1119.81 12.0801Z" fill="#B5B5B5"/>
<path d="M1013.27 28.1449C1017.73 28.1449 1021.35 24.5261 1021.35 20.0621C1021.35 15.5981 1017.73 11.9793 1013.27 11.9793C1008.8 11.9793 1005.19 15.5981 1005.19 20.0621C1005.19 24.5261 1008.8 28.1449 1013.27 28.1449Z" fill="#B5B5B5"/>
</g>
<defs>
<clipPath id="clip0_1809_1246">
<rect width="210.552" height="40" fill="white"/>
</clipPath>
<clipPath id="clip1_1809_1246">
<rect width="252.966" height="40" fill="white" transform="translate(250.552)"/>
</clipPath>
<clipPath id="clip2_1809_1246">
<rect width="225.009" height="40" fill="white" transform="translate(543.518)"/>
</clipPath>
<clipPath id="clip3_1809_1246">
<rect width="144.762" height="40" fill="white" transform="translate(808.526)"/>
</clipPath>
<clipPath id="clip4_1809_1246">
<rect width="200.735" height="40" fill="white" transform="translate(993.288)"/>
</clipPath>
</defs>
</svg>
