<svg width="177" height="64" viewBox="0 0 177 64" fill="none" xmlns="http://www.w3.org/2000/svg">
<g filter="url(#filter0_i_2877_3798)">
<rect x="0.820312" width="175.36" height="64" rx="32" fill="#F9F9F9" fill-opacity="0.2"/>
<g clip-path="url(#clip0_2877_3798)">
<path d="M70.2879 15.3572C69.7156 15.0751 69.4691 15.6127 69.1344 15.8859C69.0199 15.974 68.9231 16.0885 68.8262 16.1942C67.9896 17.0928 67.0123 17.6834 65.7354 17.6128C63.8686 17.507 62.2747 18.0975 60.8658 19.5338C60.5664 17.7627 59.5714 16.7051 58.0568 16.0268C57.2644 15.6742 56.463 15.3217 55.9082 14.5551C55.5207 14.009 55.4151 13.4009 55.2213 12.8017C55.098 12.4405 54.9747 12.0702 54.5608 12.0085C54.1117 11.9381 53.9356 12.3169 53.7595 12.6343C53.055 13.9296 52.7821 15.3571 52.8084 16.8022C52.8701 20.0538 54.235 22.6442 56.9471 24.486C57.2553 24.6975 57.3345 24.9088 57.2377 25.2174C57.0527 25.8518 56.8326 26.4686 56.639 27.103C56.5156 27.5084 56.3306 27.5965 55.8992 27.4201C54.411 26.7947 53.1253 25.8693 51.9894 24.7504C50.061 22.8735 48.3174 20.8027 46.1425 19.1813C45.6318 18.8024 45.121 18.4501 44.5926 18.1151C42.3735 15.9476 44.8832 14.1675 45.4644 13.9561C46.0719 13.7358 45.6757 12.9779 43.712 12.9869C41.7483 12.9956 39.952 13.6565 37.6625 14.5377C37.3279 14.6699 36.9756 14.7667 36.6145 14.846C34.5364 14.4496 32.379 14.3613 30.1247 14.617C25.8803 15.0927 22.4902 17.1106 19.9982 20.556C17.0043 24.6975 16.2999 29.4027 17.1629 34.3109C18.0699 39.4832 20.6939 43.7657 24.727 47.1143C28.9098 50.5859 33.7265 52.2866 39.2213 51.9605C42.5587 51.7667 46.2747 51.3174 50.4662 47.7487C51.5228 48.2774 52.6324 48.4887 54.4729 48.6473C55.8906 48.7796 57.2555 48.5769 58.3121 48.3567C59.9676 48.0042 59.8532 46.4621 59.2544 46.1802C54.4025 43.9069 55.4678 44.832 54.4993 44.083C56.9649 41.1488 60.681 38.0998 62.1339 28.222C62.2483 27.4378 62.1515 26.9443 62.1339 26.3099C62.125 25.9222 62.2131 25.7725 62.6534 25.7283C63.8686 25.5873 65.0485 25.2526 66.1317 24.6534C69.2754 22.9264 70.5433 20.089 70.8427 16.6877C70.8868 16.1678 70.8339 15.6301 70.2879 15.3572ZM42.8932 45.9686C38.191 42.2503 35.9104 41.0253 34.9681 41.0782C34.0875 41.1311 34.2461 42.1445 34.4397 42.8054C34.6423 43.4573 34.9065 43.9069 35.2762 44.4795C35.5316 44.8584 35.7078 45.4223 35.021 45.8454C33.5064 46.7882 30.8734 45.5281 30.75 45.4665C27.6858 43.6512 25.1233 41.2543 23.318 37.9766C21.5745 34.8219 20.5619 31.4384 20.3945 27.8255C20.3505 26.9533 20.6058 26.6447 21.4688 26.4863C22.6047 26.2748 23.7759 26.2306 24.9119 26.398C29.7111 27.103 33.7969 29.2618 37.2223 32.6807C39.1771 34.628 40.6565 36.9545 42.18 39.2278C43.8002 41.642 45.5437 43.9421 47.7628 45.8277C48.5464 46.4885 49.1716 46.9907 49.7704 47.361C47.9653 47.5636 44.9538 47.6078 42.8932 45.9686ZM45.1475 31.3855C45.1475 30.9977 45.4557 30.6894 45.8433 30.6894C45.9314 30.6894 46.0106 30.7068 46.081 30.7332C46.178 30.7686 46.266 30.8215 46.3364 30.9006C46.4598 31.0241 46.5301 31.2002 46.5301 31.3854C46.5301 31.7731 46.222 32.0814 45.8346 32.0814C45.4473 32.0814 45.1475 31.7732 45.1475 31.3855ZM52.1481 34.9983C51.699 35.1834 51.25 35.3418 50.8185 35.3595C50.1492 35.3947 49.4184 35.1215 49.0221 34.7866C48.4058 34.2667 47.9654 33.9761 47.7806 33.0684C47.7012 32.6807 47.7453 32.0815 47.8158 31.738C47.9743 30.9977 47.7982 30.522 47.2787 30.0901C46.856 29.7376 46.3188 29.6407 45.7288 29.6407C45.5086 29.6407 45.3062 29.5437 45.1564 29.4644C44.9098 29.3411 44.7075 29.0327 44.9011 28.6538C44.9627 28.5306 45.2622 28.2309 45.3327 28.1781C46.134 27.7197 47.0586 27.8696 47.9128 28.2133C48.7054 28.5393 49.3041 29.1385 50.167 29.9844C51.0476 31.0064 51.206 31.2886 51.708 32.0551C52.1044 32.6543 52.4654 33.2711 52.7119 33.9761C52.8616 34.4167 52.6677 34.7779 52.1481 34.9983Z" fill="#4D6BFE"/>
</g>
<g clip-path="url(#clip1_2877_3798)">
<path d="M83.7929 38.7202L91.4707 34.4263L91.5992 34.052L91.4707 33.8452H91.0952L89.8107 33.7664L85.4233 33.6482L81.619 33.4907L77.9332 33.2937L77.0043 33.0967L76.1348 31.9543L76.2237 31.3831L77.0043 30.8611L78.1209 30.9596L80.5913 31.127L84.2968 31.3831L86.9846 31.5407L90.9668 31.9543H91.5992L91.6881 31.6982L91.4707 31.5407L91.3027 31.3831L87.4688 28.7929L83.3186 26.055L81.1446 24.4793L79.9688 23.6816L79.3759 22.9331L79.119 21.2982L80.1861 20.1263L81.619 20.2247L81.9846 20.3232L83.4371 21.4361L86.5399 23.8293L90.5913 26.8035L91.1842 27.296L91.4213 27.1285L91.451 27.0103L91.1842 26.5672L88.9806 22.5982L86.6288 18.5603L85.5814 16.8861L85.3047 15.8816C85.2059 15.4679 85.1367 15.1232 85.1367 14.6997L86.3522 13.055L87.0241 12.8384L88.6446 13.055L89.3265 13.646L90.3344 15.9407L91.9648 19.555L94.4944 24.4694L95.2356 25.927L95.6308 27.2763L95.779 27.6899H96.0359V27.4535L96.2435 24.6861L96.6288 21.2884L97.0043 16.9157L97.1328 15.6846L97.7454 14.2073L98.9609 13.4096L99.9095 13.8626L100.69 14.9755L100.581 15.6944L100.117 18.6982L99.2079 23.4058L98.615 26.5573H98.9609L99.3561 26.1634L100.957 24.046L103.645 20.6975L104.83 19.3679L106.214 17.9005L107.103 17.2013H108.783L110.018 19.0331L109.465 20.924L107.736 23.1103L106.303 24.9619L104.247 27.7194L102.963 29.9255L103.081 30.1028L103.388 30.0732L108.032 29.0884L110.542 28.6354L113.536 28.1232L114.89 28.7535L115.038 29.3937L114.504 30.7035L111.303 31.4914L107.548 32.2399L101.955 33.5596L101.886 33.6088L101.965 33.7073L104.485 33.9437L105.562 34.0028H108.2L113.111 34.3672L114.396 35.2141L115.166 36.2482L115.038 37.0361L113.062 38.0407L110.394 37.4103L104.168 35.9331L102.034 35.4013H101.738V35.5785L103.516 37.3119L106.777 40.2467L110.858 44.0285L111.066 44.9641L110.542 45.7028L109.989 45.624L106.402 42.9353L105.018 41.724L101.886 39.0944H101.678V39.3702L102.4 40.424L106.214 46.1361L106.411 47.8891L106.135 48.4603L105.147 48.805L104.06 48.6081L101.826 45.4861L99.5241 41.9702L97.6664 38.8187L97.4391 38.9467L96.3423 50.7156L95.8284 51.3164L94.6427 51.7694L93.6545 51.021L93.1308 49.8096L93.6545 47.4164L94.2869 44.2944L94.8008 41.8126L95.2652 38.73L95.5419 37.7058L95.5221 37.6369L95.2948 37.6664L92.9628 40.8573L89.4154 45.6338L86.6091 48.6278L85.9371 48.8937L84.7711 48.2929L84.8798 47.2194L85.532 46.2641L89.4154 41.3399L91.7573 38.2869L93.2692 36.524L93.2593 36.2679H93.1703L82.8541 42.9452L81.0162 43.1816L80.2257 42.4429L80.3245 41.2316L80.7 40.8376L83.8028 38.7104L83.7929 38.7202Z" fill="#D97757"/>
</g>
<mask id="mask0_2877_3798" style="mask-type:luminance" maskUnits="userSpaceOnUse" x="119" y="12" width="42" height="40">
<path d="M160.181 12H119.82V52H160.181V12Z" fill="white"/>
</mask>
<g mask="url(#mask0_2877_3798)">
<path d="M135.3 26.5599V22.7599C135.3 22.4399 135.42 22.1998 135.7 22.04L143.34 17.64C144.38 17.04 145.621 16.7601 146.9 16.7601C151.7 16.7601 154.74 20.4802 154.74 24.4401C154.74 24.72 154.74 25.04 154.7 25.3601L146.78 20.72C146.3 20.4401 145.82 20.4401 145.34 20.72L135.3 26.5599ZM153.14 41.36V32.2799C153.14 31.7197 152.9 31.3197 152.42 31.0398L142.38 25.1998L145.66 23.3197C145.94 23.1599 146.18 23.1599 146.46 23.3197L154.1 27.7197C156.301 28.9999 157.78 31.7197 157.78 34.3596C157.78 37.3995 155.981 40.1996 153.14 41.3597V41.36ZM132.94 33.3601L129.66 31.4402C129.38 31.2804 129.26 31.0402 129.26 30.7202V21.9203C129.26 17.6404 132.54 14.4002 136.98 14.4002C138.661 14.4002 140.22 14.9603 141.541 15.9603L133.661 20.5204C133.181 20.8003 132.941 21.2002 132.941 21.7605V33.3604L132.94 33.3601ZM140 37.44L135.3 34.8001V29.2003L140 26.5604L144.7 29.2003V34.8001L140 37.44ZM143.02 49.6002C141.34 49.6002 139.781 49.04 138.46 48.0402L146.34 43.4799C146.82 43.2001 147.06 42.8001 147.06 42.2399V30.6399L150.38 32.5598C150.66 32.7196 150.78 32.9597 150.78 33.2798V42.0797C150.78 46.3596 147.46 49.5998 143.02 49.5998V49.6002ZM133.54 40.6802L125.9 36.2803C123.7 35.0001 122.22 32.2803 122.22 29.6404C122.22 26.5604 124.06 23.8004 126.9 22.6403V31.7602C126.9 32.3204 127.14 32.7204 127.62 33.0003L137.62 38.8001L134.34 40.6802C134.06 40.84 133.82 40.84 133.54 40.6802ZM133.101 47.2402C128.58 47.2402 125.26 43.8402 125.26 39.6401C125.26 39.3201 125.3 39.0001 125.34 38.68L133.22 43.2402C133.7 43.5201 134.18 43.5201 134.66 43.2402L144.7 37.4404V41.2404C144.7 41.5605 144.58 41.8005 144.3 41.9604L136.66 46.3604C135.62 46.9603 134.38 47.2402 133.1 47.2402H133.101ZM143.02 52C147.86 52 151.9 48.5601 152.821 44C157.301 42.8399 160.181 38.6398 160.181 34.36C160.181 31.5598 158.981 28.8401 156.821 26.88C157.021 26.0399 157.141 25.1998 157.141 24.3602C157.141 18.6403 152.501 14.36 147.14 14.36C146.061 14.36 145.021 14.5198 143.981 14.88C142.18 13.1199 139.7 12 136.98 12C132.14 12 128.101 15.4398 127.18 20C122.7 21.1601 119.82 25.3601 119.82 29.6399C119.82 32.4401 121.02 35.1599 123.18 37.1199C122.98 37.96 122.86 38.8001 122.86 39.6398C122.86 45.3597 127.5 49.6399 132.86 49.6399C133.94 49.6399 134.98 49.4801 136.02 49.1199C137.82 50.88 140.3 52 143.02 52Z" fill="black"/>
</g>
</g>
<defs>
<filter id="filter0_i_2877_3798" x="0.820312" y="0" width="179.359" height="68" filterUnits="userSpaceOnUse" color-interpolation-filters="sRGB">
<feFlood flood-opacity="0" result="BackgroundImageFix"/>
<feBlend mode="normal" in="SourceGraphic" in2="BackgroundImageFix" result="shape"/>
<feColorMatrix in="SourceAlpha" type="matrix" values="0 0 0 0 0 0 0 0 0 0 0 0 0 0 0 0 0 0 127 0" result="hardAlpha"/>
<feOffset dx="4" dy="4"/>
<feGaussianBlur stdDeviation="2"/>
<feComposite in2="hardAlpha" operator="arithmetic" k2="-1" k3="1"/>
<feColorMatrix type="matrix" values="0 0 0 0 0 0 0 0 0 0 0 0 0 0 0 0 0 0 0.25 0"/>
<feBlend mode="normal" in2="shape" result="effect1_innerShadow_2877_3798"/>
</filter>
<clipPath id="clip0_2877_3798">
<rect width="55" height="40" fill="white" transform="translate(16.8203 12)"/>
</clipPath>
<clipPath id="clip1_2877_3798">
<rect width="40" height="40" fill="white" transform="translate(75.8203 12)"/>
</clipPath>
</defs>
</svg>
