<svg width="145" height="33" viewBox="0 0 145 33" fill="none" xmlns="http://www.w3.org/2000/svg">
<path d="M0 32.0156V0.015625H10.2791V32.0156H0Z" fill="#2B2B2B"/>
<path d="M39.5661 32.0156L26.1243 16.4807V32.0156H16.6824V0.015625H25.6592L39.101 15.7831V0.015625H48.5429V32.0156H39.5661Z" fill="#2B2B2B"/>
<path d="M63.1944 32.0156L51.8456 0.015625H62.8223L69.2409 21.411H69.427L75.8921 0.015625H86.4037L75.1014 32.0156H63.1944Z" fill="#2B2B2B"/>
<path d="M83.2126 32.0156V22.7598H93.073V32.0156H83.2126Z" fill="#2B2B2B"/>
<path d="M119.818 32.0156L118.469 27.504H107.259L105.911 32.0156H95.399L107.073 0.015625H119.027L130.701 32.0156H119.818ZM109.399 20.3412H116.329L112.98 8.94586H112.794L109.399 20.3412Z" fill="#2B2B2B"/>
<path d="M134.112 32.0156V0.015625H144.391V32.0156H134.112Z" fill="#2B2B2B"/>
</svg>
