<svg width="1440" height="319" viewBox="0 0 1440 319" fill="none" xmlns="http://www.w3.org/2000/svg">
<g filter="url(#filter0_i_2877_3487)">
<path d="M0 319.134V0H102.513V319.134H0Z" fill="#2B2B2B" fill-opacity="0.03"/>
<path d="M394.591 319.134L260.536 164.206V319.134H166.373V0H255.897L389.952 157.248V0H484.116V319.134H394.591Z" fill="#2B2B2B" fill-opacity="0.03"/>
<path d="M630.234 319.134L517.053 0H626.524L690.536 213.375H692.391L756.868 0H861.7L748.982 319.134H630.234Z" fill="#2B2B2B" fill-opacity="0.03"/>
<path d="M829.875 319.134V226.827H928.212V319.134H829.875Z" fill="#2B2B2B" fill-opacity="0.03"/>
<path d="M1194.93 319.134L1181.48 274.14H1069.69L1056.24 319.134H951.409L1067.84 0H1187.05L1303.48 319.134H1194.93ZM1091.03 202.706H1160.15L1126.75 89.0607H1124.89L1091.03 202.706Z" fill="#2B2B2B" fill-opacity="0.03"/>
<path d="M1337.49 319.134V0H1440V319.134H1337.49Z" fill="#2B2B2B" fill-opacity="0.03"/>
</g>
<defs>
<filter id="filter0_i_2877_3487" x="0" y="0" width="1444" height="323.134" filterUnits="userSpaceOnUse" color-interpolation-filters="sRGB">
<feFlood flood-opacity="0" result="BackgroundImageFix"/>
<feBlend mode="normal" in="SourceGraphic" in2="BackgroundImageFix" result="shape"/>
<feColorMatrix in="SourceAlpha" type="matrix" values="0 0 0 0 0 0 0 0 0 0 0 0 0 0 0 0 0 0 127 0" result="hardAlpha"/>
<feOffset dx="4" dy="4"/>
<feGaussianBlur stdDeviation="4"/>
<feComposite in2="hardAlpha" operator="arithmetic" k2="-1" k3="1"/>
<feColorMatrix type="matrix" values="0 0 0 0 0 0 0 0 0 0 0 0 0 0 0 0 0 0 0.25 0"/>
<feBlend mode="normal" in2="shape" result="effect1_innerShadow_2877_3487"/>
</filter>
</defs>
</svg>
