<svg width="103" height="30" viewBox="0 0 103 30" fill="none" xmlns="http://www.w3.org/2000/svg">
<path d="M0.56 29V0.999998H5.16V24.92H17.2V29H0.56ZM43.6925 15C43.6925 17.72 43.1192 20.16 41.9725 22.32C40.8258 24.48 39.2125 26.1733 37.1325 27.4C35.0792 28.6267 32.7325 29.24 30.0925 29.24C27.4525 29.24 25.0925 28.6267 23.0125 27.4C20.9592 26.1733 19.3592 24.48 18.2125 22.32C17.0658 20.16 16.4925 17.72 16.4925 15C16.4925 12.28 17.0658 9.84 18.2125 7.68C19.3592 5.52 20.9592 3.82667 23.0125 2.6C25.0925 1.37333 27.4525 0.759999 30.0925 0.759999C32.7325 0.759999 35.0792 1.37333 37.1325 2.6C39.2125 3.82667 40.8258 5.52 41.9725 7.68C43.1192 9.84 43.6925 12.28 43.6925 15ZM21.2125 15C21.2125 16.9467 21.5858 18.7067 22.3325 20.28C23.0792 21.8267 24.1192 23.04 25.4525 23.92C26.8125 24.7733 28.3592 25.2 30.0925 25.2C31.8258 25.2 33.3592 24.7733 34.6925 23.92C36.0525 23.04 37.1058 21.8267 37.8525 20.28C38.5992 18.7067 38.9725 16.9467 38.9725 15C38.9725 13.0533 38.5992 11.3067 37.8525 9.76C37.1058 8.18667 36.0525 6.97333 34.6925 6.12C33.3592 5.24 31.8258 4.8 30.0925 4.8C28.3592 4.8 26.8125 5.24 25.4525 6.12C24.1192 6.97333 23.0792 8.18667 22.3325 9.76C21.5858 11.3067 21.2125 13.0533 21.2125 15ZM45.8488 15C45.8488 12.1733 46.3954 9.69333 47.4888 7.56C48.6088 5.4 50.1954 3.73333 52.2488 2.56C54.3021 1.36 56.7021 0.759999 59.4488 0.759999C62.6754 0.759999 65.3554 1.64 67.4888 3.4C69.6221 5.16 70.9288 7.53333 71.4088 10.52H66.8488C66.3954 8.73333 65.5021 7.33333 64.1688 6.32C62.8621 5.30667 61.2488 4.8 59.3288 4.8C57.5688 4.8 56.0221 5.24 54.6888 6.12C53.3821 6.97333 52.3688 8.17333 51.6488 9.72C50.9288 11.24 50.5688 13 50.5688 15C50.5688 17 50.9154 18.7733 51.6088 20.32C52.3288 21.84 53.3421 23.04 54.6488 23.92C55.9821 24.7733 57.5288 25.2 59.2888 25.2C61.5288 25.2 63.3954 24.5867 64.8888 23.36C66.4088 22.1333 67.2221 20.4267 67.3288 18.24V17.56H59.5688V13.68H71.7288V29H68.2488L67.7688 25C66.9688 26.1733 65.8221 27.1733 64.3288 28C62.8621 28.8267 61.1154 29.24 59.0888 29.24C56.5021 29.24 54.2088 28.6533 52.2088 27.48C50.2088 26.28 48.6488 24.6 47.5288 22.44C46.4088 20.28 45.8488 17.8 45.8488 15ZM102.171 15C102.171 17.72 101.597 20.16 100.451 22.32C99.304 24.48 97.6906 26.1733 95.6106 27.4C93.5573 28.6267 91.2106 29.24 88.5706 29.24C85.9306 29.24 83.5706 28.6267 81.4906 27.4C79.4373 26.1733 77.8373 24.48 76.6906 22.32C75.544 20.16 74.9706 17.72 74.9706 15C74.9706 12.28 75.544 9.84 76.6906 7.68C77.8373 5.52 79.4373 3.82667 81.4906 2.6C83.5706 1.37333 85.9306 0.759999 88.5706 0.759999C91.2106 0.759999 93.5573 1.37333 95.6106 2.6C97.6906 3.82667 99.304 5.52 100.451 7.68C101.597 9.84 102.171 12.28 102.171 15ZM79.6906 15C79.6906 16.9467 80.064 18.7067 80.8106 20.28C81.5573 21.8267 82.5973 23.04 83.9306 23.92C85.2906 24.7733 86.8373 25.2 88.5706 25.2C90.304 25.2 91.8373 24.7733 93.1706 23.92C94.5306 23.04 95.584 21.8267 96.3306 20.28C97.0773 18.7067 97.4506 16.9467 97.4506 15C97.4506 13.0533 97.0773 11.3067 96.3306 9.76C95.584 8.18667 94.5306 6.97333 93.1706 6.12C91.8373 5.24 90.304 4.8 88.5706 4.8C86.8373 4.8 85.2906 5.24 83.9306 6.12C82.5973 6.97333 81.5573 8.18667 80.8106 9.76C80.064 11.3067 79.6906 13.0533 79.6906 15Z" fill="#EFEFEF"/>
</svg>
