<svg width="1677" height="228" viewBox="0 0 1677 228" fill="none" xmlns="http://www.w3.org/2000/svg">
<path d="M1 313V266.008L148.689 68.8096H1.41957V0.419434H256.519V47.4114L108.83 244.61H256.099V313H1Z" fill="#AAAAAA" fill-opacity="0.5"/>
<path d="M279.394 313V0.419434H504.704V68.8096H364.148V121.676H492.956V188.387H364.148V244.61H503.865V313H279.394Z" fill="#AAAAAA" fill-opacity="0.5"/>
<path d="M798.203 0.419434V313H727.715L614.85 148.948H612.752V313H527.999V0.419434H600.165L710.932 164.052H713.449V0.419434H798.203Z" fill="#AAAAAA" fill-opacity="0.5"/>
<path d="M811.428 68.8096V0.419434H1082.89V68.8096H988.906V313H905.412V68.8096H811.428Z" fill="#AAAAAA" fill-opacity="0.5"/>
<path d="M1096.12 313V0.419434H1230.8C1254.01 0.419434 1274.29 4.68508 1291.64 13.2164C1309.12 21.6078 1322.68 33.7754 1332.33 49.7191C1342.12 65.5229 1347.02 84.4736 1347.02 106.571C1347.02 128.948 1342.05 147.829 1332.12 163.213C1322.19 178.597 1308.28 190.206 1290.38 198.038C1272.48 205.87 1251.64 209.786 1227.86 209.786H1147.3V143.913H1210.66C1220.73 143.913 1229.33 142.654 1236.46 140.137C1243.59 137.619 1249.05 133.633 1252.83 128.179C1256.6 122.725 1258.49 115.522 1258.49 106.571C1258.49 97.6202 1256.6 90.3476 1252.83 84.7533C1249.05 79.159 1243.59 75.0332 1236.46 72.3759C1229.33 69.7187 1220.73 68.39 1210.66 68.39H1180.87V313H1096.12ZM1265.2 313L1188.84 169.507H1279.05L1357.51 313H1265.2Z" fill="#AAAAAA" fill-opacity="0.5"/>
<path d="M1445.42 313H1353.95L1457.16 0.419434H1572.97L1676.18 313H1584.71L1516.32 86.4316H1513.81L1445.42 313ZM1428.63 189.646H1600.66V253.001H1428.63V189.646Z" fill="#AAAAAA" fill-opacity="0.5"/>
<path d="M1 313V266.008L148.689 68.8096H1.41957V0.419434H256.519V47.4114L108.83 244.61H256.099V313H1Z" stroke="#CCCCCC" stroke-width="0.5"/>
<path d="M279.394 313V0.419434H504.704V68.8096H364.148V121.676H492.956V188.387H364.148V244.61H503.865V313H279.394Z" stroke="#CCCCCC" stroke-width="0.5"/>
<path d="M798.203 0.419434V313H727.715L614.85 148.948H612.752V313H527.999V0.419434H600.165L710.932 164.052H713.449V0.419434H798.203Z" stroke="#CCCCCC" stroke-width="0.5"/>
<path d="M811.428 68.8096V0.419434H1082.89V68.8096H988.906V313H905.412V68.8096H811.428Z" stroke="#CCCCCC" stroke-width="0.5"/>
<path d="M1096.12 313V0.419434H1230.8C1254.01 0.419434 1274.29 4.68508 1291.64 13.2164C1309.12 21.6078 1322.68 33.7754 1332.33 49.7191C1342.12 65.5229 1347.02 84.4736 1347.02 106.571C1347.02 128.948 1342.05 147.829 1332.12 163.213C1322.19 178.597 1308.28 190.206 1290.38 198.038C1272.48 205.87 1251.64 209.786 1227.86 209.786H1147.3V143.913H1210.66C1220.73 143.913 1229.33 142.654 1236.46 140.137C1243.59 137.619 1249.05 133.633 1252.83 128.179C1256.6 122.725 1258.49 115.522 1258.49 106.571C1258.49 97.6202 1256.6 90.3476 1252.83 84.7533C1249.05 79.159 1243.59 75.0332 1236.46 72.3759C1229.33 69.7187 1220.73 68.39 1210.66 68.39H1180.87V313H1096.12ZM1265.2 313L1188.84 169.507H1279.05L1357.51 313H1265.2Z" stroke="#CCCCCC" stroke-width="0.5"/>
<path d="M1445.42 313H1353.95L1457.16 0.419434H1572.97L1676.18 313H1584.71L1516.32 86.4316H1513.81L1445.42 313ZM1428.63 189.646H1600.66V253.001H1428.63V189.646Z" stroke="#CCCCCC" stroke-width="0.5"/>
</svg>
